<svg xmlns="http://www.w3.org/2000/svg" viewBox="0 0 99 123.085">
  <defs>
    <style>
      .cls-1 {
        fill: #fff;
      }
    </style>
  </defs>
  <g id="apple" transform="translate(-5.79)">
    <path id="Path_449" data-name="Path 449" class="cls-1" d="M93.02,37.453c-8.954-7.045-21.637-5.095-31.684-2.608a24.978,24.978,0,0,1-4.935.667c-.264-1.327-.593-2.658-.994-3.978l7.765-1.156A22.572,22.572,0,0,0,82.278,11.273l1.146-7.7a2.056,2.056,0,0,0,.123-.83L83.954,0,72.681,1.678A22.574,22.574,0,0,0,53.576,20.784L52.9,25.323A24.811,24.811,0,0,0,42.708,14.591a2.08,2.08,0,1,0-1.959,3.67C47.1,21.647,50.6,28.495,52.13,35.378a24.682,24.682,0,0,1-2.884-.53C39.2,32.36,26.512,30.408,17.562,37.455c-8.018,6.311-11.869,18.8-11.77,38.187.073,14.321,8.32,30.842,20.056,40.177,7.75,6.166,16.084,8.476,24.088,6.669a24.476,24.476,0,0,1,10.707,0,24.259,24.259,0,0,0,5.346.6c6.313,0,12.7-2.462,18.742-7.266,11.736-9.337,19.981-25.858,20.056-40.177C104.89,56.255,101.039,43.764,93.02,37.453ZM62.559,26.263l-1.824.272,17.7-17.7-.272,1.824A18.426,18.426,0,0,1,62.559,26.263ZM73.295,5.793,76,5.39,57.287,24.1l.4-2.707A18.432,18.432,0,0,1,73.295,5.793Zm8.85,106.771c-4.691,3.735-12.065,7.79-20.584,5.864a28.719,28.719,0,0,0-12.537,0c-8.5,1.921-15.893-2.129-20.584-5.864-10.645-8.47-18.42-24.005-18.486-36.945-.094-18.018,3.238-29.432,10.181-34.9,5.881-4.627,14.556-5.192,28.116-1.838a29.181,29.181,0,0,0,4.587.707c.119,1.065.2,2.115.231,3.134a2.078,2.078,0,0,0,2.075,2.013h.067a2.079,2.079,0,0,0,2.013-2.144c-.031-.963-.106-1.955-.208-2.957a29.241,29.241,0,0,0,5.319-.751c13.56-3.352,22.233-2.786,28.116,1.838,6.945,5.465,10.275,16.881,10.181,34.9C100.567,88.557,92.79,104.095,82.145,112.564Z" transform="translate(0)"/>
    <path id="Path_450" data-name="Path 450" class="cls-1" d="M29.506,20.188c-10.32,0-18.715,9.328-18.715,20.794a2.079,2.079,0,1,0,4.159,0c0-9.172,6.532-16.636,14.556-16.636a2.079,2.079,0,1,0,0-4.159Z" transform="translate(5.398 21.792)"/>
    <path id="Path_451" data-name="Path 451" class="cls-1" d="M40.866,20.8a8.918,8.918,0,0,1-12.624,0,2.079,2.079,0,0,0-2.94,2.94,13.075,13.075,0,0,0,18.5,0,2.079,2.079,0,0,0-2.94-2.94Z" transform="translate(20.403 21.792)"/>
  </g>
</svg>
