<svg xmlns="http://www.w3.org/2000/svg" viewBox="0 0 132.798 137.484">
  <defs>
    <style>
      .cls-1 {
        fill: #fff;
      }
    </style>
  </defs>
  <g id="laugh" transform="translate(-8.726)">
    <g id="Group_26" data-name="Group 26" transform="translate(30.776 48.636)">
      <g id="Group_25" data-name="Group 25" transform="translate(0)">
        <path id="Path_433" data-name="Path 433" class="cls-1" d="M99.523,182.367a5.887,5.887,0,0,0-8.254,1.013,2.014,2.014,0,1,0,3.174,2.48,1.855,1.855,0,0,1,2.6-.319,2.014,2.014,0,0,0,2.48-3.174Z" transform="translate(-90.842 -181.123)"/>
      </g>
    </g>
    <g id="Group_28" data-name="Group 28" transform="translate(51.45 46.097)">
      <g id="Group_27" data-name="Group 27" transform="translate(0)">
        <path id="Path_434" data-name="Path 434" class="cls-1" d="M176.516,172.914a5.887,5.887,0,0,0-8.254,1.013,2.014,2.014,0,1,0,3.174,2.48,1.854,1.854,0,0,1,2.6-.319,2.014,2.014,0,1,0,2.48-3.174Z" transform="translate(-167.835 -171.669)"/>
      </g>
    </g>
    <g id="Group_30" data-name="Group 30" transform="translate(39.924 58.269)">
      <g id="Group_29" data-name="Group 29" transform="translate(0)">
        <path id="Path_435" data-name="Path 435" class="cls-1" d="M142.791,221.551l-.23-1.872a3.054,3.054,0,0,0-3.4-2.659l-11.566,1.42a3.054,3.054,0,0,0-2.659,3.4l.23,1.872a8.88,8.88,0,1,0,17.627-2.164Zm-8.222,5.9a4.857,4.857,0,0,1-5.407-4.224l-.111-.9,9.631-1.182.111.9A4.857,4.857,0,0,1,134.569,227.449Z" transform="translate(-124.912 -216.998)"/>
      </g>
    </g>
    <g id="Group_32" data-name="Group 32" transform="translate(8.726 0)">
      <g id="Group_31" data-name="Group 31" transform="translate(0)">
        <path id="Path_436" data-name="Path 436" class="cls-1" d="M72.357,9.284A17.786,17.786,0,0,0,62.63.143a2.014,2.014,0,0,0-2.535.951c-2.167,4.217-7.4,7.218-14,8.029l-11.646,1.43a2.014,2.014,0,1,0,.491,4l11.646-1.43C53.671,12.25,59.53,9.113,62.676,4.6c6.564,3.5,8.157,10.852,7.445,16.375-.74,5.742-3.759,10.059-7.341,10.5L23.6,36.281A5.95,5.95,0,0,0,18.421,42.9l.481,3.922L15.85,47.2,12.791,22.284a4.976,4.976,0,0,1,4.333-5.546l9.775-1.2a2.014,2.014,0,1,0-.491-4l-9.775,1.2a9.014,9.014,0,0,0-7.84,10.034l3.162,25.755a6.959,6.959,0,0,0,4.03,12.629,7.242,7.242,0,0,0,.856-.053l3.758-.463.369,3A23.727,23.727,0,0,0,44.461,84.476,24.116,24.116,0,0,0,47.4,84.3,23.651,23.651,0,0,0,62.672,76a2.014,2.014,0,1,0-3.086-2.588,19.689,19.689,0,0,1-34.62-10.264l-.615-5A2.014,2.014,0,0,0,22.106,56.4l-5.748.708a3.154,3.154,0,0,1-.373.024,2.934,2.934,0,0,1-1.106-5.648l.006,0a2.9,2.9,0,0,1,.749-.195l5.758-.707a2.014,2.014,0,0,0,1.753-2.244l-.727-5.921a1.917,1.917,0,0,1,1.667-2.134l37.186-4.566,2.781,22.641a19.494,19.494,0,0,1-.876,8.68,2.014,2.014,0,1,0,3.817,1.287A23.486,23.486,0,0,0,68.05,57.862L65.241,35c4.546-1.619,8.006-6.77,8.875-13.513A22.419,22.419,0,0,0,72.357,9.284Z" transform="translate(-8.726 0)"/>
      </g>
    </g>
    <g id="Group_34" data-name="Group 34" transform="translate(110.018 101.645)">
      <g id="Group_33" data-name="Group 33">
        <path id="Path_437" data-name="Path 437" class="cls-1" d="M394.973,380.788a5.887,5.887,0,0,0-8.254-1.013,2.014,2.014,0,0,0,2.48,3.174,1.854,1.854,0,0,1,2.6.319,2.014,2.014,0,0,0,3.174-2.48Z" transform="translate(-385.945 -378.53)"/>
      </g>
    </g>
    <g id="Group_36" data-name="Group 36" transform="translate(89.344 99.106)">
      <g id="Group_35" data-name="Group 35">
        <path id="Path_438" data-name="Path 438" class="cls-1" d="M317.982,371.335a5.887,5.887,0,0,0-8.254-1.013,2.014,2.014,0,0,0,2.48,3.174,1.855,1.855,0,0,1,2.6.319,2.014,2.014,0,1,0,3.174-2.48Z" transform="translate(-308.954 -369.077)"/>
      </g>
    </g>
    <g id="Group_38" data-name="Group 38" transform="translate(92.374 111.278)">
      <g id="Group_37" data-name="Group 37">
        <path id="Path_439" data-name="Path 439" class="cls-1" d="M335.505,415.849l-11.566-1.42a3.038,3.038,0,0,0-2.252.625c-1.446,1.13-1.108,2.65-1.38,3.906a8.89,8.89,0,0,0,14.28,8.079c3.706-2.9,3.334-6.889,3.576-7.787A3.057,3.057,0,0,0,335.505,415.849Zm-3.4,8.016a4.852,4.852,0,0,1-7.8-4.414l.111-.9,9.631,1.183A5.452,5.452,0,0,1,332.107,423.865Z" transform="translate(-320.236 -414.406)"/>
      </g>
    </g>
    <g id="Group_40" data-name="Group 40" transform="translate(71.568 53.627)">
      <g id="Group_39" data-name="Group 39">
        <path id="Path_440" data-name="Path 440" class="cls-1" d="M310.8,215.225a8.946,8.946,0,0,0-6-3.394l-27.673-3.4a3.774,3.774,0,0,1-2.592-1.54A17.523,17.523,0,0,0,267,200.928a2.014,2.014,0,1,0-1.536,3.724,13.5,13.5,0,0,1,5.8,4.6,7.814,7.814,0,0,0,5.368,3.183l27.673,3.4a4.982,4.982,0,0,1,4.333,5.546l-3.059,24.916-3.052-.375.481-3.922a5.95,5.95,0,0,0-5.174-6.623l-39.185-4.811a13.516,13.516,0,0,1-11.692-15.6,13.581,13.581,0,0,1,11.745-11.242,2.014,2.014,0,0,0-.481-4,17.628,17.628,0,0,0-15.24,14.6A17.542,17.542,0,0,0,256.179,234.2l-2.8,22.756a23.6,23.6,0,0,0,.614,8.985,2.014,2.014,0,0,0,3.893-1.035,19.592,19.592,0,0,1-.509-7.459l2.781-22.64,37.186,4.566a1.917,1.917,0,0,1,1.668,2.134l-.727,5.921a2.014,2.014,0,0,0,1.753,2.244l5.758.707a2.934,2.934,0,0,1-.351,5.846,3.109,3.109,0,0,1-.364-.023l-5.757-.709a2.014,2.014,0,0,0-2.245,1.753l-.615,5a19.686,19.686,0,0,1-35.415,9.254,2.014,2.014,0,1,0-3.246,2.384,23.674,23.674,0,0,0,16.23,9.5,24.065,24.065,0,0,0,2.938.18,23.726,23.726,0,0,0,23.492-20.832l.369-3c3.6.427,3.875.515,4.614.515a6.964,6.964,0,0,0,4.031-12.636l3.161-25.747A8.942,8.942,0,0,0,310.8,215.225Z" transform="translate(-242.753 -199.71)"/>
      </g>
    </g>
    <g id="Group_42" data-name="Group 42" transform="translate(109.088 16.894)">
      <g id="Group_41" data-name="Group 41">
        <path id="Path_441" data-name="Path 441" class="cls-1" d="M384.5,62.914a2.014,2.014,0,0,0-2.014,2.014v4.93a2.014,2.014,0,1,0,4.028,0v-4.93A2.014,2.014,0,0,0,384.5,62.914Z" transform="translate(-382.482 -62.914)"/>
      </g>
    </g>
    <g id="Group_44" data-name="Group 44" transform="translate(109.088 32.048)">
      <g id="Group_43" data-name="Group 43">
        <path id="Path_442" data-name="Path 442" class="cls-1" d="M384.5,119.35a2.014,2.014,0,0,0-2.014,2.014v4.93a2.014,2.014,0,1,0,4.028,0v-4.93A2.014,2.014,0,0,0,384.5,119.35Z" transform="translate(-382.482 -119.35)"/>
      </g>
    </g>
    <g id="Group_46" data-name="Group 46" transform="translate(114.201 26.936)">
      <g id="Group_45" data-name="Group 45">
        <path id="Path_443" data-name="Path 443" class="cls-1" d="M408.465,100.312h-4.93a2.014,2.014,0,0,0,0,4.028h4.93a2.014,2.014,0,0,0,0-4.028Z" transform="translate(-401.521 -100.312)"/>
      </g>
    </g>
    <g id="Group_48" data-name="Group 48" transform="translate(99.046 26.936)">
      <g id="Group_47" data-name="Group 47">
        <path id="Path_444" data-name="Path 444" class="cls-1" d="M352.029,100.312H347.1a2.014,2.014,0,1,0,0,4.028h4.93a2.014,2.014,0,1,0,0-4.028Z" transform="translate(-345.085 -100.312)"/>
      </g>
    </g>
    <g id="Group_50" data-name="Group 50" transform="translate(37.133 96.477)">
      <g id="Group_49" data-name="Group 49">
        <path id="Path_445" data-name="Path 445" class="cls-1" d="M116.531,359.286a2.014,2.014,0,0,0-2.014,2.014v4.93a2.014,2.014,0,0,0,4.028,0V361.3A2.014,2.014,0,0,0,116.531,359.286Z" transform="translate(-114.517 -359.286)"/>
      </g>
    </g>
    <g id="Group_52" data-name="Group 52" transform="translate(37.133 111.632)">
      <g id="Group_51" data-name="Group 51">
        <path id="Path_446" data-name="Path 446" class="cls-1" d="M116.531,415.723a2.014,2.014,0,0,0-2.014,2.014v4.93a2.014,2.014,0,1,0,4.028,0v-4.93A2.014,2.014,0,0,0,116.531,415.723Z" transform="translate(-114.517 -415.723)"/>
      </g>
    </g>
    <g id="Group_54" data-name="Group 54" transform="translate(42.245 106.519)">
      <g id="Group_53" data-name="Group 53" transform="translate(0)">
        <path id="Path_447" data-name="Path 447" class="cls-1" d="M140.5,396.684h-4.93a2.014,2.014,0,1,0,0,4.028h4.93a2.014,2.014,0,1,0,0-4.028Z" transform="translate(-133.555 -396.684)"/>
      </g>
    </g>
    <g id="Group_56" data-name="Group 56" transform="translate(27.091 106.519)">
      <g id="Group_55" data-name="Group 55" transform="translate(0)">
        <path id="Path_448" data-name="Path 448" class="cls-1" d="M84.063,396.684h-4.93a2.014,2.014,0,0,0,0,4.028h4.93a2.014,2.014,0,1,0,0-4.028Z" transform="translate(-77.12 -396.684)"/>
      </g>
    </g>
  </g>
</svg>
