<svg id="man" xmlns="http://www.w3.org/2000/svg" viewBox="0 0 92.882 137.798">
  <defs>
    <style>
      .cls-1 {
        fill: #fff;
      }
    </style>
  </defs>
  <g id="Group_23" data-name="Group 23" transform="translate(0)">
    <path id="Path_431" data-name="Path 431" class="cls-1" d="M174.309,111.65a2.019,2.019,0,0,0-2.019,2.019v18.978a1.116,1.116,0,0,1-1.114,1.114H160.326V94.01a2.019,2.019,0,0,0-4.037,0v39.751h-21.85l6.336-6.971a3.619,3.619,0,0,0,.873-2.9c0-.02-.006-.041-.009-.061L135.6,88.174l1.626-2.448a4.578,4.578,0,0,0,2.89,1.253,3.535,3.535,0,0,0,3.164-1.956h0l6.365-12.757,14.5,5.616a13.987,13.987,0,0,1,8.142,12.713v13.653a2.019,2.019,0,1,0,4.037,0V90.595c0-11.935-10.219-16.273-10.654-16.452l-.038-.015L141.5,64.782v-5.66A18.913,18.913,0,0,0,148.66,46.68a8.738,8.738,0,0,0,5.133-2.094,8.57,8.57,0,0,0,.894-12.092V25.017a25.017,25.017,0,1,0-50.034,0V32.69a8.1,8.1,0,0,0-2.081,5.4,8.554,8.554,0,0,0,2.976,6.494,8.733,8.733,0,0,0,5.13,2.093,18.714,18.714,0,0,0,7.567,12.741v5.361L94.139,74.127l-.038.015c-.435.179-10.654,4.517-10.654,16.452v42.051A5.158,5.158,0,0,0,88.6,137.8h19.232a2.019,2.019,0,1,0,0-4.037h-4.343V94.01a2.019,2.019,0,0,0-4.037,0v39.751H88.6a1.116,1.116,0,0,1-1.115-1.114V90.594a13.987,13.987,0,0,1,8.14-12.712l14.489-5.617,6.366,12.758a3.535,3.535,0,0,0,3.164,1.957,4.574,4.574,0,0,0,2.89-1.253l1.626,2.448-6.034,35.652c0,.02-.006.04-.009.061a3.619,3.619,0,0,0,.873,2.9l6.336,6.971h-8.073a2.019,2.019,0,1,0,0,4.037h53.926a5.158,5.158,0,0,0,5.152-5.152V113.668A2.019,2.019,0,0,0,174.309,111.65ZM145.867,70.8l-5.934,11.893L132.8,77.626l7.33-9.048ZM133.936,83.387,132.4,85.7h-5.034l-1.539-2.316,4.056-2.881ZM122.282,65.433V61.655a20.481,20.481,0,0,0,7.633,1.447,18.951,18.951,0,0,0,7.55-1.573v3.921l-7.585,9.362Zm30.45-27.339a4.522,4.522,0,0,1-1.571,3.432,4.7,4.7,0,0,1-2.331,1.073v-9.01A4.566,4.566,0,0,1,152.732,38.093ZM110.511,42.6a4.561,4.561,0,0,1-3.9-4.506,4.794,4.794,0,0,1,3.9-4.4Zm.108-13.022a9.98,9.98,0,0,0-1.929.435V25.017a20.979,20.979,0,1,1,41.959,0v4.856a8.973,8.973,0,0,0-1.82-.352c0-1.948.017-1.572-6.355-8.422a3.591,3.591,0,0,0-4.585-.559,38.917,38.917,0,0,1-23.527,6.333A3.589,3.589,0,0,0,110.62,29.577Zm3.929,14.611V30.931a43.136,43.136,0,0,0,25.229-6.8c2.922,3.138,4.5,4.783,5.015,5.409V44.188a15.124,15.124,0,0,1-30.244,0Zm5.279,38.507L113.894,70.8l5.731-2.22,7.332,9.05Zm2.316,41.566,5.843-34.52h3.787l5.843,34.52-7.736,8.511Z" transform="translate(-83.447)"/>
  </g>
</svg>
