<svg xmlns="http://www.w3.org/2000/svg" viewBox="0 0 114.394 123.319">
  <defs>
    <style>
      .cls-1 {
        fill: #fff;
      }
    </style>
  </defs>
  <g id="scale" transform="translate(0.001)">
    <path id="Path_424" data-name="Path 424" class="cls-1" d="M7.163,105.358a20.416,20.416,0,0,0,20.256,17.961H86.983a20.416,20.416,0,0,0,20.255-17.961l6.844-56.8A43.365,43.365,0,0,0,71.028,0H43.373A43.405,43.405,0,0,0,15.858,9.844a1.806,1.806,0,1,0,2.295,2.79,39.255,39.255,0,0,1,25.22-9.021H71.028A39.753,39.753,0,0,1,110.5,48.121l-6.844,56.8a16.8,16.8,0,0,1-16.668,14.781H27.418a16.8,16.8,0,0,1-16.669-14.781l-6.844-56.8a39.31,39.31,0,0,1,9.308-30.648,1.806,1.806,0,0,0-2.741-2.354A43.182,43.182,0,0,0,.318,48.554Zm0,0" transform="translate(0)"/>
    <path id="Path_425" data-name="Path 425" class="cls-1" d="M132.3,259.619a1.807,1.807,0,0,0,3.587.432s3.12-25.9,3.121-25.9a5.1,5.1,0,0,0-5.01-5.65H52.582a5.1,5.1,0,0,0-5.01,5.65l5.243,43.52a10.775,10.775,0,0,0,10.69,9.479h59.566a10.775,10.775,0,0,0,10.69-9.479l1.262-10.469a1.807,1.807,0,1,0-3.587-.432l-1.261,10.468a7.161,7.161,0,0,1-7.1,6.3H63.505a7.159,7.159,0,0,1-7.1-6.3s-5.243-43.52-5.243-43.522a1.44,1.44,0,0,1,1.423-1.6h81.413a1.449,1.449,0,0,1,1.423,1.605Zm0,0" transform="translate(-36.088 -173.464)"/>
    <path id="Path_429" data-name="Path 429" class="cls-1" d="M135.166,73.042a33.787,33.787,0,0,0-2.145-11.153l-.007-.02,0-.008C127.708,48.955,115.624,40,101.441,40H73.787A34.136,34.136,0,0,0,42.219,61.862l0,.008a.122.122,0,0,0-.007.02,33.739,33.739,0,0,0-2.145,11.153,6.285,6.285,0,0,0,6.23,6.315h82.641a6.271,6.271,0,0,0,6.231-6.315Zm-50.3,2.7L86.779,59.85l0-.025a.837.837,0,0,1,1.664,0l0,.024,1.915,15.895Zm45.95-.8a2.646,2.646,0,0,1-1.881.8H94L92.037,59.43a4.449,4.449,0,0,0-8.846,0L81.226,75.744H46.294a2.619,2.619,0,0,1-2.619-2.628,30.1,30.1,0,0,1,1.311-8.178l7.268,2.942a1.807,1.807,0,1,0,1.355-3.349l-7.364-2.981A30.01,30.01,0,0,1,54.5,50.6l4.511,5.414a1.83,1.83,0,0,0,2.544.231,1.806,1.806,0,0,0,.231-2.544l-4.373-5.248a30.156,30.156,0,0,1,12.05-4.529s2.219,6.852,2.222,6.865a1.829,1.829,0,0,0,2.275,1.162,1.806,1.806,0,0,0,1.162-2.275L73.16,43.622c.209,0,.418-.008.627-.008h12.02v6.624a1.806,1.806,0,1,0,3.613,0V43.613h12.021c.209,0,.418,0,.627.008l-1.962,6.059a1.806,1.806,0,1,0,3.437,1.112l2.222-6.864a30.159,30.159,0,0,1,12.051,4.528L113.444,53.7a1.807,1.807,0,1,0,2.775,2.314l4.511-5.415a30,30,0,0,1,8.254,10.948l-7.364,2.981a1.805,1.805,0,0,0-1,2.351,1.828,1.828,0,0,0,2.352,1l7.268-2.942a30.166,30.166,0,0,1,1.311,8.178,2.542,2.542,0,0,1-.739,1.83Zm0,0" transform="translate(-30.414 -30.366)"/>
  </g>
</svg>
