<svg xmlns="http://www.w3.org/2000/svg" xmlns:xlink="http://www.w3.org/1999/xlink" viewBox="0 0 37 57.06">
  <defs>
    <style>
      .cls-1 {
        fill: url(#linear-gradient);
      }
    </style>
    <linearGradient id="linear-gradient" x1="0.5" x2="0.5" y2="1" gradientUnits="objectBoundingBox">
      <stop offset="0" stop-color="#6c63ff"/>
      <stop offset="0.5" stop-color="#13b9a7"/>
      <stop offset="1" stop-color="#0fbda3"/>
    </linearGradient>
  </defs>
  <path id="scroll" class="cls-1" d="M18.527,47.938l-10-10.576L11.761,34.3l6.757,7.143L25.235,34.3l3.247,3.055ZM37,43.687V13.374A13.389,13.389,0,0,0,23.627,0H13.373A13.389,13.389,0,0,0,0,13.374V43.687A13.389,13.389,0,0,0,13.373,57.061H23.627A13.389,13.389,0,0,0,37,43.687ZM23.627,4.458a8.926,8.926,0,0,1,8.916,8.916V43.687A8.926,8.926,0,0,1,23.627,52.6H13.373a8.926,8.926,0,0,1-8.916-8.916V13.374a8.926,8.926,0,0,1,8.916-8.916ZM18.5,9.028a2.229,2.229,0,1,0,2.229,2.229A2.229,2.229,0,0,0,18.5,9.028Zm0,8.916a2.229,2.229,0,1,0,2.229,2.229A2.229,2.229,0,0,0,18.5,17.943Zm0,8.916a2.229,2.229,0,1,0,2.229,2.229A2.229,2.229,0,0,0,18.5,26.859Zm0,0" transform="translate(0 0)"/>
</svg>
