<svg xmlns="http://www.w3.org/2000/svg" viewBox="0 0 97.212 134.845">
  <defs>
    <style>
      .cls-1 {
        fill: #fff;
      }
    </style>
  </defs>
  <g id="woman" transform="translate(-71.445 0)">
    <g id="Group_24" data-name="Group 24" transform="translate(71.445 0.001)">
      <path id="Path_432" data-name="Path 432" class="cls-1" d="M162.766,96.606A13.33,13.33,0,0,0,152.61,86.175h0c-.09-.026.766.188-20.369-5.051v-.717H147.8a5.823,5.823,0,0,0,5.816-5.816V44.919a7.268,7.268,0,0,0,0-3.356V30.734a1.976,1.976,0,1,0-3.951,0V36.4a10.257,10.257,0,0,0-3.518-1.29,5.153,5.153,0,0,0-4.342-3.971,6.44,6.44,0,0,1-5.091-3.916,3.386,3.386,0,0,0-5.774-.528c-3.4,4.622-12.836,14.988-29.138,14.987-1.24,0-2.081-.059-2.374-.072A5.225,5.225,0,0,0,93.9,46.828v4.539a26.8,26.8,0,0,0,8.257,19.3,26.456,26.456,0,0,0,5.707,4.151v1.642H92.377a1.867,1.867,0,0,1-1.865-1.865V30.2c0-14.391,11.734-26.25,25.908-26.25h.137a33.666,33.666,0,0,1,14.937,3.674c2.532,1.4,4.1.287,6.6.287,6.1,0,10.995,6.276,11.581,11.921,0,.083.012.414.013,1.682a2.014,2.014,0,0,0,1.977,1.974,1.975,1.975,0,0,0,1.974-1.977c0-.351,0-1.726-.03-2.046-.794-7.858-7.5-15.505-15.515-15.505-3.131,0-3.619.794-4.688.2A37.915,37.915,0,0,0,116.578,0C100.177-.1,86.56,13.558,86.56,30.2V74.592a5.823,5.823,0,0,0,5.816,5.816h15.488v.717L87.575,86.154l-.08.022-1.482.437c-.045.013-.088.028-.132.044a13.109,13.109,0,0,0-8.542,9.951c-6.013,30.2-5.76,28.914-5.774,29.018-.724,5.123,1.84,9.221,8.009,9.221h21.363a1.976,1.976,0,1,0,0-3.951H93.5V112.261a1.976,1.976,0,0,0-3.951,0v18.633H79.574c-2.624,0-4.148-.845-4.173-3.6-.011-1.345-.064-.034,5.813-29.913a9.258,9.258,0,0,1,5.987-7l1.37-.4,11.651-2.888c12.961,15.269,12.194,14.46,12.943,15.191,4.326,4.22,10.5,3.922,14.562-.849l12.2-14.331,11.607,2.877c.336.154,6.114,1.171,7.357,7.4,5.827,29.62,5.825,28.563,5.814,29.912-.02,2.7-1.481,3.6-4.173,3.6h-9.907V112.261a1.976,1.976,0,1,0-3.951,0v18.633H110.156a1.976,1.976,0,0,0,0,3.951h50.376c4.881,0,8.079-2.686,8.124-7.523C168.673,125.064,168.539,126.143,162.766,96.606Zm-16.49-57.417a4.958,4.958,0,0,1,3.389,2.921v2.263a4.956,4.956,0,0,1-3.389,2.921Zm0,12.522v-.365a10.235,10.235,0,0,0,3.389-1.267V74.592a1.867,1.867,0,0,1-1.865,1.865H132.241V74.93A26.153,26.153,0,0,0,146.276,51.711ZM104.885,67.805a22.828,22.828,0,0,1-7.034-16.439c.117-4.3-.285-4.823.4-5.469a1.246,1.246,0,0,1,.938-.341,39.683,39.683,0,0,0,34.392-15.8,10.136,10.136,0,0,0,7.708,5.3,1.188,1.188,0,0,1,1.034,1.171V51.712C142.325,71.368,118.793,81.079,104.885,67.805ZM124.718,98.87c-2.752,3.233-6.606,3.225-9.351-.016l-4.122-4.865h17.629Zm7.52-8.833H107.9l-3.4-4.007,5.814-1.441a2,2,0,0,0,1.5-1.937V76.54a26.167,26.167,0,0,0,16.474.056c.037,6.314-.085,6.17.11,6.727a1.976,1.976,0,0,0,1.39,1.265l5.852,1.45Z" transform="translate(-71.445 -0.001)"/>
    </g>
  </g>
</svg>
