<svg xmlns="http://www.w3.org/2000/svg" xmlns:xlink="http://www.w3.org/1999/xlink" viewBox="0 0 407.897 273">
  <defs>
    <style>
      .cls-1, .cls-3 {
        fill: #6c63ff;
      }

      .cls-1 {
        opacity: 0.1;
      }

      .cls-2 {
        opacity: 0.5;
      }

      .cls-4 {
        fill: #fff;
        opacity: 0.2;
      }

      .cls-5 {
        fill: url(#linear-gradient);
      }

      .cls-11, .cls-6 {
        opacity: 0.06;
      }

      .cls-7 {
        fill: #a1616a;
      }

      .cls-8 {
        fill: #464353;
      }

      .cls-9 {
        fill: #fbbebe;
      }

      .cls-10 {
        opacity: 0.03;
      }
    </style>
    <linearGradient id="linear-gradient" x1="0.5" y1="1" x2="0.5" gradientUnits="objectBoundingBox">
      <stop offset="0" stop-color="gray" stop-opacity="0.251"/>
      <stop offset="0.54" stop-color="gray" stop-opacity="0.122"/>
      <stop offset="1" stop-color="gray" stop-opacity="0.102"/>
    </linearGradient>
  </defs>
  <g id="undraw_personal_trainer_ote3" transform="translate(-0.001 0)">
    <path id="Path_331" data-name="Path 331" class="cls-1" d="M260.932,109.459c-26.149-.913-51.053-9.347-74.819-18.584S138.773,71.4,113.251,66.511c-16.435-3.147-35.209-3.59-48.436,5.215C52.087,80.194,47.973,94.816,45.764,108.38c-1.664,10.207-2.641,20.952,1.915,30.5,3.165,6.635,8.784,12.211,12.671,18.566,13.531,22.106,3.972,49.371-10.688,70.96C42.786,238.535,34.813,248.2,29.51,258.978s-7.757,23.133-3.116,34.13C31,304,41.954,312.194,53.829,317.95c24.117,11.683,52.536,15.043,80.247,16.941,61.345,4.2,123.015,2.379,184.522.559,22.761-.673,45.625-1.356,68.015-4.875,12.437-1.954,25.275-5.056,34.3-12.547,11.46-9.506,14.3-25.6,6.621-37.528-12.88-20-48.5-24.96-57.5-46.422-4.957-11.811.135-24.97,7.336-35.924,15.45-23.5,41.345-44.117,42.711-70.982.935-18.449-11.513-36.923-30.763-45.671-20.18-9.148-48.15-8-63.037,7.148C310.957,104.262,284.022,110.263,260.932,109.459Z" transform="translate(-23.94 -64.45)"/>
    <g id="Group_20" data-name="Group 20" class="cls-2" transform="translate(163.507 142.519)">
      <path id="Path_332" data-name="Path 332" class="cls-3" d="M475.613,402.58l-11.846.244-1.937,2.659v9.187l2.418,1.692h11.365l2.418-2.659V405Z" transform="translate(-461.83 -402.569)"/>
      <path id="Path_333" data-name="Path 333" class="cls-4" d="M502.386,468.462s-10.88,1.692-11.846,0l.244-1.207,11.6-.255Z" transform="translate(-488.851 -467)"/>
      <path id="Path_334" data-name="Path 334" class="cls-3" d="M502.283,542.1l1.933,1.937v9.205l-1.933,1.9s-7.01,2.418-11.605.482l-2.177-2.174v-9.205l1.937-2.177Z" transform="translate(-487.533 -515.492)"/>
      <path id="Path_335" data-name="Path 335" class="cls-4" d="M505.331,544.327s-8.462,1.933-11.361,0V542.15h11.846Z" transform="translate(-491.067 -515.544)"/>
      <path id="Path_336" data-name="Path 336" class="cls-3" d="M506.957,502.392V515.47a1.961,1.961,0,0,1-2.053,1.855h0a1.961,1.961,0,0,1-2.053-1.855V502.392a1.986,1.986,0,0,1,2.294-1.845h0A1.933,1.933,0,0,1,506.957,502.392Z" transform="translate(-496.803 -488.662)"/>
      <path id="Path_337" data-name="Path 337" class="cls-3" d="M529.2,403.64l-11.846.241-1.937,2.659v9.187l2.418,1.692H529.2l2.418-2.659v-8.706Z" transform="translate(-496.447 -403.254)"/>
      <path id="Path_338" data-name="Path 338" class="cls-4" d="M555.986,469.538s-10.88,1.692-11.846,0l.241-1.207,11.605-.241Z" transform="translate(-523.475 -467.704)"/>
      <path id="Path_339" data-name="Path 339" class="cls-3" d="M555.853,543.2l1.933,1.937v9.205l-1.933,1.915s-7.014,2.418-11.605.482l-2.177-2.174v-9.187l1.937-2.177Z" transform="translate(-522.138 -516.222)"/>
      <path id="Path_340" data-name="Path 340" class="cls-4" d="M558.921,545.377s-8.462,1.933-11.361,0V543.2H559.4Z" transform="translate(-525.684 -516.222)"/>
      <path id="Path_341" data-name="Path 341" class="cls-3" d="M560.5,503.442V516.52a1.965,1.965,0,0,1-2.053,1.855h0a1.965,1.965,0,0,1-2.057-1.855V503.442a1.987,1.987,0,0,1,2.3-1.845h0a1.933,1.933,0,0,1,1.813,1.845Z" transform="translate(-531.388 -489.34)"/>
      <path id="Path_342" data-name="Path 342" class="cls-3" d="M601.867,423.39l-9.754.2-1.593,2.188v7.562l1.99,1.395h9.357l1.99-2.192V425.38Z" transform="translate(-544.959 -416.012)"/>
      <path id="Path_343" data-name="Path 343" class="cls-4" d="M628.15,489.037s-8.954,1.391-9.75,0l.2-.995,9.559-.2Z" transform="translate(-571.444 -480.462)"/>
      <path id="Path_344" data-name="Path 344" class="cls-3" d="M628.041,549.68l1.593,1.593v7.562l-1.593,1.593s-5.771,1.99-9.559.4l-1.791-1.791v-7.562l1.593-1.791Z" transform="translate(-570.339 -520.408)"/>
      <path id="Path_345" data-name="Path 345" class="cls-4" d="M630.564,551.471s-6.968,1.593-9.354,0V549.68h9.75Z" transform="translate(-573.259 -520.408)"/>
      <path id="Path_346" data-name="Path 346" class="cls-3" d="M631.9,516.933V527.7a1.614,1.614,0,0,1-1.692,1.526h0a1.611,1.611,0,0,1-1.689-1.526V516.933a1.636,1.636,0,0,1,1.887-1.519h0A1.593,1.593,0,0,1,631.9,516.933Z" transform="translate(-577.981 -498.26)"/>
      <path id="Path_347" data-name="Path 347" class="cls-3" d="M645.983,424.26l-9.754.2-1.59,2.188v7.566l1.99,1.391h9.354l1.99-2.188V426.25Z" transform="translate(-573.458 -416.574)"/>
      <path id="Path_348" data-name="Path 348" class="cls-4" d="M672.264,489.9s-8.957,1.395-9.754,0l.2-.995,9.559-.2Z" transform="translate(-599.937 -481.024)"/>
      <path id="Path_349" data-name="Path 349" class="cls-3" d="M672.167,550.55l1.59,1.59V559.7l-1.59,1.593s-5.774,1.99-9.559.4l-1.788-1.781v-7.573l1.593-1.791Z" transform="translate(-598.845 -520.97)"/>
      <path id="Path_350" data-name="Path 350" class="cls-4" d="M674.674,552.341s-6.964,1.59-9.354,0V550.55h9.754Z" transform="translate(-601.752 -520.97)"/>
      <path id="Path_351" data-name="Path 351" class="cls-3" d="M676.015,517.816v10.763a1.614,1.614,0,0,1-1.692,1.526h0a1.615,1.615,0,0,1-1.692-1.526V517.816a1.639,1.639,0,0,1,1.891-1.515h0A1.59,1.59,0,0,1,676.015,517.816Z" transform="translate(-606.474 -498.839)"/>
    </g>
    <path id="Path_352" data-name="Path 352" class="cls-5" d="M430.3,317.682a5.976,5.976,0,0,0-3.682-2.7,13.454,13.454,0,0,0-4.631-.29,40.713,40.713,0,0,0-7.41,1.221,7.722,7.722,0,0,0-4.082,2.124c-.028.035-.06.078-.092.113-1.554.407-3.1,1.034-4.6,1.544a43.192,43.192,0,0,1-4.6,1.25,27.261,27.261,0,0,0,5.7-4.018,16.1,16.1,0,0,0,2.124-2.535,8.43,8.43,0,0,0,3.54.237c2.4-.411,4.333-2.124,6.135-3.8l5.8-5.332a11.753,11.753,0,0,0,2.478-2.832,11.083,11.083,0,0,0,.928-5.155c.028-2.429,0-4.857-.071-7.283l1.834,1.416a16.239,16.239,0,0,1,1.607-8.7c.637-1.285,1.473-2.563,1.491-4,.028-2.223-1.883-3.972-3.841-4.957s-4.16-1.614-5.764-3.126c-2.386-2.248-2.832-5.835-4.011-8.915a35.427,35.427,0,0,0-2.478-4.875l-2.294-4a56.719,56.719,0,0,0-3.852-6.086,55.827,55.827,0,0,0-8.377-8.309l-15.521-13.372a145.845,145.845,0,0,0-11.644-9.357c-8.281-5.774-17.624-9.74-26.907-13.666-2.337-.991-4.769-2-7.3-1.876a8.345,8.345,0,0,0-5.112,2.188,30.531,30.531,0,0,1-3.894-1.48l-.1-.046c.028-.209.06-.414.081-.623.032-.276.05-.552.071-.832a6.5,6.5,0,0,0,2-.655,2.4,2.4,0,0,0,.825-.641,2.935,2.935,0,0,0,.421-1.568,70.312,70.312,0,0,0,.262-11.117,23.52,23.52,0,0,0-3.186-10.54,5.472,5.472,0,0,0-2.415-2.337c-1.416-.566-3.055-.039-4.567-.294-2.616-.443-4.248-3-6.143-4.889a14.9,14.9,0,0,0-18.513-1.629,54.117,54.117,0,0,0-5.643,5.219c-1.869,1.756-4.061,3.346-6.585,3.689a3.208,3.208,0,0,0-1.335.354,2.749,2.749,0,0,0-.949,1.533,27.111,27.111,0,0,0-1.6,6.157c-.025-.127-.046-.255-.067-.382a12.008,12.008,0,0,0-.06,2.34,6.829,6.829,0,0,0,.843,2.832,3.841,3.841,0,0,0,1.937,1.848,5.275,5.275,0,0,0,1.866.3h.28c-.1.273-.2.545-.294.821a22.658,22.658,0,0,0-1.186,7.261,22.261,22.261,0,0,0,22.1,22.432,22.021,22.021,0,0,0,4.372-.46c.478.152.956.308,1.416.474a26.555,26.555,0,0,1,2.769,1.09c.382.181,1.93,1.083,3.8,2.248h0l-.127.266a14.07,14.07,0,0,0-4.068,13.606c1.352,5.265,5.789,9.779,5.342,15.2a9.279,9.279,0,0,0-.1,2.319,5.62,5.62,0,0,0,1.618,2.712c.623.687,1.271,1.352,1.93,2-.053,3.459-.354,6.914-.68,10.363-.028.3-.035.605-.039.913a6.373,6.373,0,0,0,1.529,4.061,6.587,6.587,0,0,1,1.243,4.794c-.28,2.393-1.459,4.564-2.248,6.833-3.562,10.207.814,21.717-1.65,32.257-.605,2.6-1.625,5.119-1.77,7.789-.081,1.668.181,3.416-.46,4.957a9.3,9.3,0,0,1-2.808,3.243q-2.319,1.986-4.518,4.107a62.529,62.529,0,0,0-6.847-3.222,12.3,12.3,0,0,0-1.168-.4c-2.769-2.592-6.259-4.249-9.538-6.153-2.719-1.576-5.311-3.346-7.916-5.116a44.276,44.276,0,0,1-7.106-5.6c-1.062-1.1-2.007-2.323-3.151-3.332a26.793,26.793,0,0,0-3.186-2.28,128.037,128.037,0,0,1-14.332-10.781c-3.445-2.988-6.263-6.837-9.945-9.517-2.255-1.643-4.879-3.14-7.64-2.832a7.289,7.289,0,0,0-2.517.775,6.582,6.582,0,0,0-2.308-.517c-2.245-.071-4.305,1.147-6.231,2.319q-16.994,10.327-34.519,19.734c-2.358,1.267-4.73,2.524-6.982,3.976a47.416,47.416,0,0,0-11.52,10.5c-.595.754-1.345,1.611-2.291,1.5a2.046,2.046,0,0,1-.733-.262,9.215,9.215,0,0,1-3.186-3.763,11.971,11.971,0,0,0-2.16-2.977h0a6.286,6.286,0,0,0-.758-1.416c1.257-3.1,2.34-6.277,3.346-9.474.524-1.678,1.03-3.367,1.7-5,1.65-4.029,4.28-7.679,5.211-11.942.223-1.03.354-2.089.528-3.13a22.168,22.168,0,1,0-16.024-3.048v.124a15.661,15.661,0,0,1-.209,2.124,26.887,26.887,0,0,1-2.432,6.766c-.673,1.448-1.345,2.9-2.043,4.348a4.032,4.032,0,0,1-.967-.326,2.926,2.926,0,0,1-1.087-1.706,61.065,61.065,0,0,0-3.671-8.589,14.869,14.869,0,0,0-2.124-3.261,17.906,17.906,0,0,0-5.52-3.586c-.354-.17-.683-.354-1.023-.517a8.742,8.742,0,0,0-.921-.6c-1.646-.931-3.473-1.6-4.847-2.9-1.03-.977-1.738-2.248-2.7-3.285a17.242,17.242,0,0,0-5.966-3.647,7.914,7.914,0,0,0-3.516-.921,4.213,4.213,0,0,0-.513.057,8.146,8.146,0,0,0-.871.2,4.735,4.735,0,0,1-.786-.524c-1.313-1.013-1.823-2.751-2.252-4.369-.708-2.7-1.455-5.505-1.016-8.274a12.531,12.531,0,0,1,.312-1.416c.11-.181.216-.354.312-.549a18.47,18.47,0,0,0,9.669-28.486c-.181-.248-.354-.489-.556-.729l.212-.117c1.958-1.2,2.4-4.057,1.5-6.189a11.164,11.164,0,0,0-4.783-4.818c-.283-.173-.57-.336-.86-.5l-.248-.135c-.219-.12-.435-.237-.655-.354l-.258-.131c-.258-.131-.517-.255-.775-.375l-.117-.057c-.322-.145-.644-.287-.97-.421h0c-.315-.131-.63-.251-.949-.354l-.131-.05c-.3-.11-.605-.212-.91-.312l-.067-.021a23.8,23.8,0,0,0-6.89-1.161,39.835,39.835,0,0,0-13.188,2.585,22.722,22.722,0,0,0-8.734,6.55,8.419,8.419,0,0,0-1.459.241,14.66,14.66,0,0,0-5.215,2.765,16.639,16.639,0,0,0-3.47,3.441,14.848,14.848,0,0,0-2.34,5.583c-1.342,6.277.308,12.745,1.522,19.054s1.915,13.184-1.062,18.846c-1.122,2.124-2.715,3.969-3.894,6.054s-2,4.6-1.317,6.914c.825,2.808,3.54,4.574,4.957,7.123a8.73,8.73,0,0,1-.967,9.559c-.1.113-.191.227-.294.354a3.543,3.543,0,0,1-.382.382c2.234.786,4.723-.06,6.727-1.321a11.941,11.941,0,0,0,3.969-3.82c2.531-4.156,1.395-9.531,2.287-14.335,1.172-6.291,5.9-11.9,5.25-18.272-.439-4.273-3.229-7.846-5.42-11.52a45.571,45.571,0,0,1-3.647-7.761c-.039-.113-.078-.23-.12-.354h0a11.4,11.4,0,0,1-.8-5.665,7.923,7.923,0,0,1,.552-1.795v.205a13.9,13.9,0,0,0,1.207,5.35c2.213,4.6,7.538,6.727,10.919,10.458.142.156.276.315.411.478.039.043.074.089.11.135l.287.354.12.166c.089.124.177.248.258.375l.11.159c.113.181.227.354.333.549a8.431,8.431,0,0,0,2.1-3.186c.032-.106.053-.216.074-.326.028.028.053.06.081.092.067.379.12.758.17,1.14h0a7.7,7.7,0,0,0,.174,1.626,71.493,71.493,0,0,1-.174,10.3c-.12,1.823.354,4.532-.807,5.891l-.035.039a1.871,1.871,0,0,1-.223.22h0c-.2.205-.4.407-.588.62-3.894,4.39-5.665,10.621-5.573,16.59.092,6.794,2.262,13.376,4.723,19.7a55.3,55.3,0,0,0,3.031,6.727,11.747,11.747,0,0,0,2.34,3.147,14.1,14.1,0,0,0,3.4,2.029c.3.142.6.28.9.425l.761.354,5.8,2.754c1.062,1.561,2.089,3.165,3.126,4.772.149.227.294.46.446.687,1.133,1.77,2.273,3.54,3.434,5.261l9.768,14.466a12.19,12.19,0,0,0,2.443,2.91,4.988,4.988,0,0,0,.913.57,4.773,4.773,0,0,0,.506.209,1.614,1.614,0,0,0-.258,1.094,1.852,1.852,0,0,0,.708.924c2.209,1.827,4.663,3.753,5.357,6.56.492,2,0,4.142.443,6.153.811,3.625,4.4,5.824,7.789,7.219a43.636,43.636,0,0,0,24.121,2.871,35.237,35.237,0,0,0,20.977-12.037c1.607-1.976,2.977-4.132,4.5-6.171a51.669,51.669,0,0,1,3.438-4.128,28.375,28.375,0,0,0,3.756-2.075,72.52,72.52,0,0,0,7.081-5.891c1.738-1.515,3.558-2.946,5.155-4.6a53.947,53.947,0,0,0,4.011-4.957q4.248-5.629,8.777-11.035c1.614-1.93,3.324-3.894,5.58-4.957l.1-.042c.269,1.586,1.526,2.931,2.407,4.3,3.647,5.665,7.463,11.5,13.1,15.107a41.869,41.869,0,0,0,10.062,4.291c8.851,2.8,17.844,4.992,26.843,7.191.3-.566.588-1.09.913-1.6a4.862,4.862,0,0,1,.389.467c.039.057.071.117.11.173a1.281,1.281,0,0,0-.191.053,2.517,2.517,0,0,0-1.271,1.338,14.861,14.861,0,0,0-1.108,6.373c-.032,2.124,0,4.248,0,6.373a5.5,5.5,0,0,0,.354,2.33c.687,1.416,2.432,1.944,3.994,2.124a33.381,33.381,0,0,0,8.143-.319,6.274,6.274,0,0,0,.754,1.8,12.864,12.864,0,0,0,6.854,5.073,60.87,60.87,0,0,0,8.437,1.9c5.024,1,10.164,2.6,15.16,1.469,1.993-.45,3.894-1.321,5.888-1.7,4.564-.864,9.294.885,13.889.184a21.827,21.827,0,0,0,6.33-2.255,8.682,8.682,0,0,0,2.708-1.869,3.393,3.393,0,0,0,.874-3.077,12.428,12.428,0,0,0-.836-1.721,9.147,9.147,0,0,1-.6-2.9,79.711,79.711,0,0,0-1.9-11.159c-.025-.1-.053-.209-.081-.315a48.26,48.26,0,0,0,9.658-5.693l6.61-4.624a39.261,39.261,0,0,1,6.688-4.05,28.956,28.956,0,0,1,11.7-2.064c1.632,0,3.268.081,4.893.23a2.124,2.124,0,0,0-.457.786,2.916,2.916,0,0,0,.959,2.864,12.622,12.622,0,0,0,2.673,1.671,16.173,16.173,0,0,1,6.019,5.916c.906,1.554,1.565,3.441.991,5.151-.708,2.145-3.232,3.625-3.087,5.884a3.621,3.621,0,0,0,2.379,2.924,9.612,9.612,0,0,0,3.894.446,14.8,14.8,0,0,0,6.305-1.214,16.331,16.331,0,0,0,3.48-2.648,10.106,10.106,0,0,0,2.549-3.059,9.316,9.316,0,0,0,.63-3.707c.106-5.934-.917-11.949.262-17.762.354-1.77.921-3.5,1.221-5.286a37.234,37.234,0,0,0,.113-8.539A9.333,9.333,0,0,0,430.3,317.682Z" transform="translate(-58.894 -128.405)"/>
    <path id="Path_353" data-name="Path 353" class="cls-6" d="M764.683,331.891c-1.391.938-1.876,2.751-2.053,4.422-.754,7.106,2.177,14.14,1.983,21.281-.156,5.682-2.273,11.1-4.362,16.389a97.55,97.55,0,0,0-6.135,28.479c-.719,9.669-1.77,19.738-6.96,27.916-1.179,1.852-2.553,3.572-3.707,5.435-1.211,1.947-2.17,4.036-3.24,6.061a65.219,65.219,0,0,1-12.037,16.169,16.61,16.61,0,0,1-4.723,3.516,9.51,9.51,0,0,1-7.385.078,7.059,7.059,0,0,1-4.56-5.881c-.089-2.344,1.31-4.457,2.712-6.334A103.963,103.963,0,0,1,730.5,432.158a9.373,9.373,0,0,0,2.832-3.211c.641-1.526.379-3.257.46-4.911.131-2.638,1.158-5.141,1.77-7.711,2.478-10.441-1.926-21.841,1.657-31.956.8-2.248,1.979-4.4,2.259-6.766a6.43,6.43,0,0,0-1.25-4.751,6.245,6.245,0,0,1-1.533-4.022,7.639,7.639,0,0,1,.035-.9,97.635,97.635,0,0,0,.627-13.939,32.681,32.681,0,0,0-3.3-13.454c-1.112-2.142-2.549-4.146-3.236-6.458-1.1-3.742-.085-7.789,1.561-11.329a19.765,19.765,0,0,1,5.392-7.3,14.444,14.444,0,0,1,15.971-1.016c3.59,2.146,6.047,5.753,8.04,9.432C763.214,326.548,764.7,328.825,764.683,331.891Z" transform="translate(-468.075 -224.676)"/>
    <path id="Path_354" data-name="Path 354" class="cls-7" d="M768.37,263.983q-1.02,2.751-2.029,5.5c-.446,1.2-.889,2.418-1.349,3.622-2.124,5.548-4.5,11.007-8.217,15.6.556-.687-4.673-4.142-8.529-6.5-1.88-1.158-3.438-2.05-3.82-2.227a27.937,27.937,0,0,0-2.786-1.083c-1.469-.5-2.956-.924-4.425-1.459-3.4-1.229-1.023-3.073.432-5.056,4.762-6.493,5.665-15.365,11.071-21.331a19.936,19.936,0,0,0,8.95,8.656c.074.039.152.074.23.106,3.211,1.5,6.759,2.149,10.08,3.406.181.067.389.163.45.354A.708.708,0,0,1,768.37,263.983Z" transform="translate(-483.561 -184.986)"/>
    <path id="Path_355" data-name="Path 355" class="cls-7" d="M797.035,621.874a15.971,15.971,0,0,0-1.646,15.284A5.179,5.179,0,0,0,796.581,639a5.587,5.587,0,0,0,2.276,1.062c7.031,2,14.537,1.607,21.738.354a38.255,38.255,0,0,0,7.159-1.823,47.829,47.829,0,0,0,9.892-5.714L844.3,628.3a40.3,40.3,0,0,1,6.727-4.015,29.569,29.569,0,0,1,11.772-2.043,54.924,54.924,0,0,1,10.267.981c2.255.435,4.957.885,6.543-.761a6.194,6.194,0,0,0,1.352-3.579,53.337,53.337,0,0,0-.039-15.071,1.957,1.957,0,0,0-.435-1.151,1.77,1.77,0,0,0-.878-.4c-3.133-.708-6.277.761-9.322,1.77-6.327,2.1-13.121,2.354-19.557,4.086-6.755,1.816-13.1,5.254-20.081,5.951-3.328.333-6.67.042-10.005.117-3.094.067-5.98,1.136-9.01,1.264C805.786,615.707,800.706,616.726,797.035,621.874Z" transform="translate(-521.47 -411.733)"/>
    <path id="Path_356" data-name="Path 356" class="cls-6" d="M797.035,621.874a15.971,15.971,0,0,0-1.646,15.284A5.179,5.179,0,0,0,796.581,639a5.587,5.587,0,0,0,2.276,1.062c7.031,2,14.537,1.607,21.738.354a38.255,38.255,0,0,0,7.159-1.823,47.829,47.829,0,0,0,9.892-5.714L844.3,628.3a40.3,40.3,0,0,1,6.727-4.015,29.569,29.569,0,0,1,11.772-2.043,54.924,54.924,0,0,1,10.267.981c2.255.435,4.957.885,6.543-.761a6.194,6.194,0,0,0,1.352-3.579,53.337,53.337,0,0,0-.039-15.071,1.957,1.957,0,0,0-.435-1.151,1.77,1.77,0,0,0-.878-.4c-3.133-.708-6.277.761-9.322,1.77-6.327,2.1-13.121,2.354-19.557,4.086-6.755,1.816-13.1,5.254-20.081,5.951-3.328.333-6.67.042-10.005.117-3.094.067-5.98,1.136-9.01,1.264C805.786,615.707,800.706,616.726,797.035,621.874Z" transform="translate(-521.47 -411.733)"/>
    <path id="Path_357" data-name="Path 357" class="cls-8" d="M818.051,546.94a4.792,4.792,0,0,0-.081,2.376,4.425,4.425,0,0,0,1.416,1.9c6.019,5.388,14.618,6.5,22.659,7.378a17.154,17.154,0,0,0,12.158-2,53.816,53.816,0,0,0,11.149-6.422c3.275-2.655,5.9-6.054,9.294-8.557,3.855-2.832,8.6-4.454,12.037-7.789a16.183,16.183,0,0,0,4.719-8.943,25.524,25.524,0,0,0,0-7.045,20.957,20.957,0,0,0-2.011-7.821,18.909,18.909,0,0,0-6.606-6.56,34.3,34.3,0,0,0-18.764-5.806c-9.205.081-17.7,5.438-24.308,11.453a71.543,71.543,0,0,0-16.64,22.634,69.112,69.112,0,0,0-5.02,15.2Z" transform="translate(-536.773 -344.284)"/>
    <path id="Path_358" data-name="Path 358" class="cls-6" d="M818.051,546.94a4.792,4.792,0,0,0-.081,2.376,4.425,4.425,0,0,0,1.416,1.9c6.019,5.388,14.618,6.5,22.659,7.378a17.154,17.154,0,0,0,12.158-2,53.816,53.816,0,0,0,11.149-6.422c3.275-2.655,5.9-6.054,9.294-8.557,3.855-2.832,8.6-4.454,12.037-7.789a16.183,16.183,0,0,0,4.719-8.943,25.524,25.524,0,0,0,0-7.045,20.957,20.957,0,0,0-2.011-7.821,18.909,18.909,0,0,0-6.606-6.56,34.3,34.3,0,0,0-18.764-5.806c-9.205.081-17.7,5.438-24.308,11.453a71.543,71.543,0,0,0-16.64,22.634,69.112,69.112,0,0,0-5.02,15.2Z" transform="translate(-536.773 -344.284)"/>
    <path id="Path_359" data-name="Path 359" class="cls-7" d="M764.683,331.891c-1.391.938-1.876,2.751-2.053,4.422-.754,7.106,2.177,14.14,1.983,21.281-.156,5.682-2.273,11.1-4.362,16.389a97.55,97.55,0,0,0-6.135,28.479c-.719,9.669-1.77,19.738-6.96,27.916-1.179,1.852-2.553,3.572-3.707,5.435-1.211,1.947-2.17,4.036-3.24,6.061a65.219,65.219,0,0,1-12.037,16.169,16.61,16.61,0,0,1-4.723,3.516,9.51,9.51,0,0,1-7.385.078,7.059,7.059,0,0,1-4.56-5.881c-.089-2.344,1.31-4.457,2.712-6.334A103.963,103.963,0,0,1,730.5,432.158a9.373,9.373,0,0,0,2.832-3.211c.641-1.526.379-3.257.46-4.911.131-2.638,1.158-5.141,1.77-7.711,2.478-10.441-1.926-21.841,1.657-31.956.8-2.248,1.979-4.4,2.259-6.766a6.43,6.43,0,0,0-1.25-4.751,6.245,6.245,0,0,1-1.533-4.022,7.639,7.639,0,0,1,.035-.9,97.635,97.635,0,0,0,.627-13.939,32.681,32.681,0,0,0-3.3-13.454c-1.112-2.142-2.549-4.146-3.236-6.458-1.1-3.742-.085-7.789,1.561-11.329a19.765,19.765,0,0,1,5.392-7.3,14.444,14.444,0,0,1,15.971-1.016c3.59,2.146,6.047,5.753,8.04,9.432C763.214,326.548,764.7,328.825,764.683,331.891Z" transform="translate(-468.075 -224.676)"/>
    <ellipse id="Ellipse_34" data-name="Ellipse 34" class="cls-7" cx="13.4" cy="21.026" rx="13.4" ry="21.026" transform="translate(263.647 88.946)"/>
    <path id="Path_360" data-name="Path 360" class="cls-9" d="M704.491,663.438a4.673,4.673,0,0,1,.708,3.894,6.808,6.808,0,0,0,4.351,1.267,13.454,13.454,0,0,0,4.479-1.03,14.8,14.8,0,0,0,3.484-1.827,15.356,15.356,0,0,0,4.248-5.346c.6-1.119,1.108-2.567.354-3.572a3.427,3.427,0,0,0-1.062-.821,63.076,63.076,0,0,0-8.5-4.04,6.245,6.245,0,0,0-2.563-.574,5.5,5.5,0,0,0-2.939,1.321,15.931,15.931,0,0,0-4.574,5.665c-.333.708-1.338,2.39-.839,3.119.227.336,1.062.453,1.416.666a4.578,4.578,0,0,1,1.434,1.278Z" transform="translate(-461.619 -443.589)"/>
    <path id="Path_361" data-name="Path 361" class="cls-10" d="M704.491,663.438a4.673,4.673,0,0,1,.708,3.894,6.808,6.808,0,0,0,4.351,1.267,13.454,13.454,0,0,0,4.479-1.03,14.8,14.8,0,0,0,3.484-1.827,15.356,15.356,0,0,0,4.248-5.346c.6-1.119,1.108-2.567.354-3.572a3.427,3.427,0,0,0-1.062-.821,63.076,63.076,0,0,0-8.5-4.04,6.245,6.245,0,0,0-2.563-.574,5.5,5.5,0,0,0-2.939,1.321,15.931,15.931,0,0,0-4.574,5.665c-.333.708-1.338,2.39-.839,3.119.227.336,1.062.453,1.416.666a4.578,4.578,0,0,1,1.434,1.278Z" transform="translate(-461.619 -443.589)"/>
    <path id="Path_362" data-name="Path 362" class="cls-8" d="M717.232,662.239c5.99,1.112,11.5,4.008,17.387,5.569a57.775,57.775,0,0,1,7.113,1.99,9.682,9.682,0,0,1,5.4,4.772,13.673,13.673,0,0,1,.818,3.37c.255,1.632.464,3.455-.506,4.794-1.023,1.416-2.956,1.728-4.687,1.937-6.224.74-12.448,1.483-18.693,2.007a32.678,32.678,0,0,0-3.771.45c-1.027.205-2.029.517-3.048.758-1.321.308-2.662.5-4,.708a41.293,41.293,0,0,1-10.324.609c-1.568-.173-3.324-.68-4.015-2.1a5.351,5.351,0,0,1-.354-2.308c-.018-2.1-.035-4.2,0-6.3a14.3,14.3,0,0,1,1.115-6.316,2.51,2.51,0,0,1,1.278-1.328,2.936,2.936,0,0,1,1.1-.1,12.964,12.964,0,0,1,5.392.963c1.306.648,2.369,1.728,3.7,2.315,2.521,1.119,5.562.315,8.115,1.367a10.158,10.158,0,0,0,.018-5.569,43.345,43.345,0,0,1-1.25-5.643,3.6,3.6,0,0,0-.241-1.232C717.586,662.561,717.65,662.178,717.232,662.239Z" transform="translate(-459.699 -450.593)"/>
    <path id="Path_363" data-name="Path 363" class="cls-6" d="M717.232,662.239c5.99,1.112,11.5,4.008,17.387,5.569a57.775,57.775,0,0,1,7.113,1.99,9.682,9.682,0,0,1,5.4,4.772,13.673,13.673,0,0,1,.818,3.37c.255,1.632.464,3.455-.506,4.794-1.023,1.416-2.956,1.728-4.687,1.937-6.224.74-12.448,1.483-18.693,2.007a32.678,32.678,0,0,0-3.771.45c-1.027.205-2.029.517-3.048.758-1.321.308-2.662.5-4,.708a41.293,41.293,0,0,1-10.324.609c-1.568-.173-3.324-.68-4.015-2.1a5.351,5.351,0,0,1-.354-2.308c-.018-2.1-.035-4.2,0-6.3a14.3,14.3,0,0,1,1.115-6.316,2.51,2.51,0,0,1,1.278-1.328,2.936,2.936,0,0,1,1.1-.1,12.964,12.964,0,0,1,5.392.963c1.306.648,2.369,1.728,3.7,2.315,2.521,1.119,5.562.315,8.115,1.367a10.158,10.158,0,0,0,.018-5.569,43.345,43.345,0,0,1-1.25-5.643,3.6,3.6,0,0,0-.241-1.232C717.586,662.561,717.65,662.178,717.232,662.239Z" transform="translate(-459.699 -450.593)"/>
    <path id="Path_364" data-name="Path 364" class="cls-9" d="M176.813,451.784c-1.207-.382-2.372.687-3.048,1.77-2.811,4.418-2.581,10.317-.333,15.047a11.421,11.421,0,0,0,2.181,3.247,21,21,0,0,0,4.248,2.832,31.966,31.966,0,0,1,10.182,9.559c1.731,2.553,3.094,5.36,5.059,7.736,4.836,5.849,12.784,8.5,17.475,14.445,1.122,1.416,2.071,3.059,3.569,4.089a6.068,6.068,0,0,0,9.5-4.7,68.208,68.208,0,0,0,4.734-8.557,101.835,101.835,0,0,0,5.311-13.762c.528-1.664,1.037-3.339,1.71-4.957,1.66-3.994,4.305-7.608,5.24-11.828a51.039,51.039,0,0,1,1.013-5.095,9.7,9.7,0,0,1,2.436-3.894c3.682-3.579,5.665-8.794,8.593-13.007a28.082,28.082,0,0,0,3.211-5.328,8.429,8.429,0,0,0,.354-6.079,5.069,5.069,0,0,0-4.723-3.409,7.172,7.172,0,0,0-2.652.814,29.544,29.544,0,0,0-7.768,5.353,37.592,37.592,0,0,0-2.832,3.045c-4.326,5.169-7.711,11.443-8.008,18.176-.1,2.308.085,4.868-1.381,6.656-4.043,4.939-5.342,11.729-8.791,17.1-1.6,2.478-3.427,5.045-6.157,6.174a2.627,2.627,0,0,1-1.3.255c-1.09-.124-1.717-1.271-2.177-2.269a87.83,87.83,0,0,0-6.228-11.241,10.7,10.7,0,0,0-3.434-3.7c-1.013-.563-2.188-.814-3.14-1.473a9.3,9.3,0,0,1-2.712-3.94,61.22,61.22,0,0,0-8.43-13.142c-1.537-1.83-3.562-3.721-5.934-3.448C180.325,448.52,178.944,450.9,176.813,451.784Z" transform="translate(-119.387 -300.506)"/>
    <path id="Path_365" data-name="Path 365" class="cls-10" d="M176.813,451.784c-1.207-.382-2.372.687-3.048,1.77-2.811,4.418-2.581,10.317-.333,15.047a11.421,11.421,0,0,0,2.181,3.247,21,21,0,0,0,4.248,2.832,31.966,31.966,0,0,1,10.182,9.559c1.731,2.553,3.094,5.36,5.059,7.736,4.836,5.849,12.784,8.5,17.475,14.445,1.122,1.416,2.071,3.059,3.569,4.089a6.068,6.068,0,0,0,9.5-4.7,68.208,68.208,0,0,0,4.734-8.557,101.835,101.835,0,0,0,5.311-13.762c.528-1.664,1.037-3.339,1.71-4.957,1.66-3.994,4.305-7.608,5.24-11.828a51.039,51.039,0,0,1,1.013-5.095,9.7,9.7,0,0,1,2.436-3.894c3.682-3.579,5.665-8.794,8.593-13.007a28.082,28.082,0,0,0,3.211-5.328,8.429,8.429,0,0,0,.354-6.079,5.069,5.069,0,0,0-4.723-3.409,7.172,7.172,0,0,0-2.652.814,29.544,29.544,0,0,0-7.768,5.353,37.592,37.592,0,0,0-2.832,3.045c-4.326,5.169-7.711,11.443-8.008,18.176-.1,2.308.085,4.868-1.381,6.656-4.043,4.939-5.342,11.729-8.791,17.1-1.6,2.478-3.427,5.045-6.157,6.174a2.627,2.627,0,0,1-1.3.255c-1.09-.124-1.717-1.271-2.177-2.269a87.83,87.83,0,0,0-6.228-11.241,10.7,10.7,0,0,0-3.434-3.7c-1.013-.563-2.188-.814-3.14-1.473a9.3,9.3,0,0,1-2.712-3.94,61.22,61.22,0,0,0-8.43-13.142c-1.537-1.83-3.562-3.721-5.934-3.448C180.325,448.52,178.944,450.9,176.813,451.784Z" transform="translate(-119.387 -300.506)"/>
    <ellipse id="Ellipse_35" data-name="Ellipse 35" class="cls-9" cx="9.333" cy="8.423" rx="9.333" ry="8.423" transform="translate(47.845 117.517)"/>
    <circle id="Ellipse_36" data-name="Ellipse 36" class="cls-9" cx="3.36" cy="3.36" r="3.36" transform="translate(62.57 120.848)"/>
    <ellipse id="Ellipse_37" data-name="Ellipse 37" class="cls-9" cx="12.855" cy="3.438" rx="12.855" ry="3.438" transform="translate(45.548 119.064)"/>
    <path id="Path_366" data-name="Path 366" class="cls-9" d="M148.368,357.5a23.287,23.287,0,0,1,.736,3.027,18.081,18.081,0,0,1-2.783-3.657,2.722,2.722,0,0,1-.492-.779,20.8,20.8,0,0,1-1.93-8.3,18.184,18.184,0,1,1,22.963,17.543,22.719,22.719,0,0,0,1.416-5.4,3.9,3.9,0,0,0-.262-1.823,4.156,4.156,0,0,0-1.335-1.537,11.531,11.531,0,0,0-7.18-2.181,19.7,19.7,0,0,0-7.382,1.77c-.733.315-1.611.74-2.478,1.03A6.448,6.448,0,0,1,148.368,357.5Z" transform="translate(-101.429 -235.735)"/>
    <path id="Path_367" data-name="Path 367" class="cls-9" d="M202.33,453.7c-1.165,1.866-3.654,2.436-5.842,2.269-4.079-.3-7.789-2.478-10.94-5.1s-5.905-5.665-9.127-8.185c-5.994-4.7-12.745-6.585-20.371-6.695,1.491-1.236.942-4.167,1.062-6.093a59.561,59.561,0,0,0,0-11.729c-.053-.414-.113-.821-.184-1.229.12.127.248.251.379.379a18.2,18.2,0,0,0,17.38,4.433,14.162,14.162,0,0,0-.457,1.883c-.439,2.737.3,5.512,1.023,8.193.432,1.6.945,3.324,2.266,4.326a9.975,9.975,0,0,0,2.953,1.25,16.285,16.285,0,0,1,5.5,3.186,44.509,44.509,0,0,0,3.324,2.977,23.143,23.143,0,0,0,3.594,1.855,44.963,44.963,0,0,1,8.639,5.236,2.832,2.832,0,0,1,1.122,1.331,2.188,2.188,0,0,1-.322,1.71Z" transform="translate(-109.277 -292.144)"/>
    <path id="Path_368" data-name="Path 368" class="cls-9" d="M211.953,519.183c-.244,1.614-1.724,2.875-2.769,4.128-2.839,3.427-5.718,6.865-8.893,10a139.168,139.168,0,0,1-10.858,9.329l-4.836,3.87a6.089,6.089,0,0,1-2.057,1.239,3.757,3.757,0,0,1-2.648-.315,5.18,5.18,0,0,1-.917-.563,12.418,12.418,0,0,1-2.457-2.885q-4.907-7.162-9.825-14.328c-1.168-1.706-2.315-3.459-3.455-5.211-.152-.227-.3-.457-.45-.683-1.041-1.593-2.078-3.186-3.144-4.726l-5.827-2.73-.765-.354-.9-.421a14.3,14.3,0,0,1-3.416-2.007,11.568,11.568,0,0,1-2.354-3.119,54.588,54.588,0,0,1-3.052-6.681c-2.478-6.256-4.659-12.777-4.751-19.511-.081-5.923,1.668-12.083,5.6-16.431a17.64,17.64,0,0,1,1.731-1.678,3.1,3.1,0,0,1,2.514-.867c.974.138,1.9.28,2.832.439q3.866.666,7.672,1.629c2.287.584,4.656,1.25,6.968.786.372-.074.74-.181,1.108-.276.3-.078.6-.152.906-.2a4.2,4.2,0,0,1,.517-.057,8.129,8.129,0,0,1,3.54.913,17.592,17.592,0,0,1,6.019,3.611c.97,1.027,1.682,2.287,2.715,3.254,1.381,1.292,3.222,1.954,4.879,2.878a8.738,8.738,0,0,1,.924.591,10.5,10.5,0,0,1,1.77,1.682h0c2.145,2.531,3.42,5.948,5.789,8.465a34.555,34.555,0,0,1,4.907,6.645c.223.4.439.8.651,1.214q.531,1.025.988,2.078c.078.181.156.354.227.542A32.477,32.477,0,0,1,202,502.677c.8,2.673,1.338,5.558,3.123,7.7,1.246,1.491,2.974,2.478,4.429,3.763a7.835,7.835,0,0,1,2.153,2.928A4.184,4.184,0,0,1,211.953,519.183Z" transform="translate(-97.987 -323.324)"/>
    <path id="Path_369" data-name="Path 369" class="cls-6" d="M212.353,499.392q-.609.768-1.25,1.515c-.071.092-.149.181-.227.269a67.62,67.62,0,0,1-12.7,11.51c-2.91,2.032-5.98,3.834-9.042,5.633l-5.665,3.317a35.076,35.076,0,0,1-7.4,3.594c-.843.251-1.724.453-2.584.69-.152-.227-.3-.457-.45-.683-1.041-1.593-2.078-3.186-3.144-4.726l-5.827-2.73a34.129,34.129,0,0,0,8.447-7.569,91.792,91.792,0,0,0,8.947-14.289,10.741,10.741,0,0,0,1.1-2.549,8.765,8.765,0,0,0-.379-4.5,23.721,23.721,0,0,0-9.488-12.792,44.841,44.841,0,0,0-10.416-4.663c-2.517-.871-5.275-1.714-7.835-1.356a17.21,17.21,0,0,1,1.731-1.675,3.087,3.087,0,0,1,2.514-.871c.974.138,1.9.28,2.832.443,1.894.581,3.756,1.275,5.608,1.99a26.293,26.293,0,0,1,3.54,1.6,31.7,31.7,0,0,1,3.261,2.284,81.468,81.468,0,0,0,9.672,6.341c3.894,2.149,7.984,3.894,12.069,5.665a3.212,3.212,0,0,0,1.4.354,1.1,1.1,0,0,0,1.062-.828,1.335,1.335,0,0,0-.17-.74c-.708-1.448-2.315-2.177-3.771-2.882-6.04-2.924-11.351-7.134-16.6-11.312a1.668,1.668,0,0,1-.333-.354l.906-.2a135.067,135.067,0,0,0,18.569,11.195q.513.262,1.03.51c.248.124.492.244.743.354h0a15.848,15.848,0,0,1,4.8,3.186,14.671,14.671,0,0,1,2.124,3.225,60.616,60.616,0,0,1,3.7,8.5,1.926,1.926,0,0,0,.067.184,3.271,3.271,0,0,0,.651,1.214,1.378,1.378,0,0,0,.372.294C210.891,498.932,211.8,498.889,212.353,499.392Z" transform="translate(-108.244 -324.797)"/>
    <path id="Path_370" data-name="Path 370" class="cls-3" d="M178.181,467.613A134.7,134.7,0,0,0,196.751,478.8l1.03.513a18.341,18.341,0,0,1,5.551,3.54,14.777,14.777,0,0,1,2.124,3.229,60.008,60.008,0,0,1,3.693,8.5,2.874,2.874,0,0,0,1.094,1.692c.6.333,1.558.308,2.092.811-.481.6-.97,1.2-1.476,1.77a67.52,67.52,0,0,1-12.7,11.513c-2.91,2.032-5.98,3.834-9.042,5.633l-5.665,3.317a35.236,35.236,0,0,1-7.4,3.59c-.988.3-2.032.528-3.034.818-1.041-1.593-2.078-3.186-3.144-4.726l-6.592-3.087a33.178,33.178,0,0,0,9.205-8.023,91.593,91.593,0,0,0,8.947-14.286,10.8,10.8,0,0,0,1.1-2.549,8.778,8.778,0,0,0-.379-4.5A23.721,23.721,0,0,0,172.7,473.8a44.986,44.986,0,0,0-10.416-4.663c-2.517-.867-5.275-1.714-7.835-1.352a17.637,17.637,0,0,1,1.731-1.678,3.1,3.1,0,0,1,2.514-.867c.974.138,1.9.28,2.832.439,1.894.584,3.756,1.278,5.608,1.993a25.847,25.847,0,0,1,3.54,1.6,31.7,31.7,0,0,1,3.261,2.284,81.431,81.431,0,0,0,9.687,6.323c3.894,2.153,7.984,3.912,12.069,5.665a3.2,3.2,0,0,0,1.4.354,1.09,1.09,0,0,0,1.062-.828,1.328,1.328,0,0,0-.17-.736c-.708-1.448-2.315-2.181-3.771-2.882-6.04-2.924-11.351-7.137-16.6-11.329a1.568,1.568,0,0,1-.333-.354Z" transform="translate(-108.244 -323.324)"/>
    <circle id="Ellipse_38" data-name="Ellipse 38" class="cls-3" cx="22.223" cy="22.223" r="22.223" transform="translate(97.319 119.064)"/>
    <path id="Path_371" data-name="Path 371" class="cls-8" d="M400.745,591.113c4.16-1.306,8.384-2.638,12.037-5.027a71.136,71.136,0,0,0,7.109-5.835c1.753-1.5,3.579-2.917,5.187-4.574a54.033,54.033,0,0,0,4.036-4.893q4.263-5.58,8.8-10.947c1.625-1.908,3.342-3.852,5.612-4.914,4.033-1.894,8.766-.616,13.022.683a121.117,121.117,0,0,1,18.676,6.975c3.392,1.689,6.677,3.572,10.1,5.19a142.9,142.9,0,0,0,19.525,7,2.478,2.478,0,0,0,1.558.127,2.29,2.29,0,0,0,.924-.772,13.188,13.188,0,0,0,2.05-3.54.68.68,0,0,0-.166-.917c-2.832-2.758-6.507-4.454-9.941-6.419-2.733-1.561-5.35-3.314-7.962-5.066a43.569,43.569,0,0,1-7.148-5.544c-1.062-1.094-2.018-2.3-3.169-3.3a26.547,26.547,0,0,0-3.222-2.259A129.463,129.463,0,0,1,463.361,536.4c-3.463-2.96-6.3-6.773-10-9.428-2.269-1.629-4.911-3.112-7.686-2.815-3.378.354-5.87,3.186-8.224,5.629-7.913,8.217-17.9,14.1-26.727,21.324C403.518,557,396.78,564,388,567.112c.393,1.3.531,2.606.928,3.894a40.7,40.7,0,0,0,1.845,5.254,41.309,41.309,0,0,0,2.454,4.39l3.519,5.746a14.527,14.527,0,0,0,2.461,3.282C399.736,590.189,400.745,590.373,400.745,591.113Z" transform="translate(-259.108 -361.379)"/>
    <path id="Path_372" data-name="Path 372" class="cls-6" d="M400.745,591.113c4.16-1.306,8.384-2.638,12.037-5.027a71.136,71.136,0,0,0,7.109-5.835c1.753-1.5,3.579-2.917,5.187-4.574a54.033,54.033,0,0,0,4.036-4.893q4.263-5.58,8.8-10.947c1.625-1.908,3.342-3.852,5.612-4.914,4.033-1.894,8.766-.616,13.022.683a121.117,121.117,0,0,1,18.676,6.975c3.392,1.689,6.677,3.572,10.1,5.19a142.9,142.9,0,0,0,19.525,7,2.478,2.478,0,0,0,1.558.127,2.29,2.29,0,0,0,.924-.772,13.188,13.188,0,0,0,2.05-3.54.68.68,0,0,0-.166-.917c-2.832-2.758-6.507-4.454-9.941-6.419-2.733-1.561-5.35-3.314-7.962-5.066a43.569,43.569,0,0,1-7.148-5.544c-1.062-1.094-2.018-2.3-3.169-3.3a26.547,26.547,0,0,0-3.222-2.259A129.463,129.463,0,0,1,463.361,536.4c-3.463-2.96-6.3-6.773-10-9.428-2.269-1.629-4.911-3.112-7.686-2.815-3.378.354-5.87,3.186-8.224,5.629-7.913,8.217-17.9,14.1-26.727,21.324C403.518,557,396.78,564,388,567.112c.393,1.3.531,2.606.928,3.894a40.7,40.7,0,0,0,1.845,5.254,41.309,41.309,0,0,0,2.454,4.39l3.519,5.746a14.527,14.527,0,0,0,2.461,3.282C399.736,590.189,400.745,590.373,400.745,591.113Z" transform="translate(-259.108 -361.379)"/>
    <path id="Path_373" data-name="Path 373" class="cls-9" d="M692.34,672.327a4.684,4.684,0,0,1,.708,3.894,6.794,6.794,0,0,0,4.341,1.278,13.639,13.639,0,0,0,4.489-1.027,14.934,14.934,0,0,0,3.484-1.827,15.547,15.547,0,0,0,4.266-5.349c.6-1.115,1.108-2.563.336-3.569a3.337,3.337,0,0,0-1.062-.821,63.23,63.23,0,0,0-8.479-4.04,6.32,6.32,0,0,0-2.563-.577,5.5,5.5,0,0,0-2.942,1.324,15.931,15.931,0,0,0-4.571,5.665c-.333.708-1.338,2.393-.843,3.123.227.336,1.062.453,1.416.662A4.581,4.581,0,0,1,692.34,672.327Z" transform="translate(-453.78 -449.338)"/>
    <path id="Path_374" data-name="Path 374" class="cls-8" d="M709.453,670.619c5.99,1.115,11.5,4.008,17.387,5.569a57.775,57.775,0,0,1,7.113,1.99,9.682,9.682,0,0,1,5.4,4.772,13.71,13.71,0,0,1,.818,3.37c.255,1.632.464,3.455-.506,4.794-1.023,1.416-2.956,1.731-4.687,1.937-6.224.743-12.448,1.483-18.693,2.007a33.477,33.477,0,0,0-3.763.45c-1.027.209-2.029.517-3.048.758-1.317.312-2.662.5-4,.708a41.294,41.294,0,0,1-10.324.605c-1.568-.173-3.324-.68-4.015-2.1a5.348,5.348,0,0,1-.354-2.308c0-2.1-.035-4.2,0-6.3a14.3,14.3,0,0,1,1.115-6.316,2.521,2.521,0,0,1,1.278-1.328,2.935,2.935,0,0,1,1.1-.1,12.965,12.965,0,0,1,5.392.963c1.306.648,2.248-1.289,3.579-.708,2.524,1.115.814-2.266,3.363-1.214.595-1.834,3.123-.743,2.684-2.623s1.136-1.062.956-3a3.614,3.614,0,0,0-.241-1.232C709.807,670.941,709.871,670.558,709.453,670.619Z" transform="translate(-454.682 -456.006)"/>
    <path id="Path_375" data-name="Path 375" class="cls-6" d="M176.752,337.078c-1.374.8-3.077.651-4.677.616a29.076,29.076,0,0,0-4.188.216,3.955,3.955,0,0,0-1.441.382,3.6,3.6,0,0,0-1.338,1.561,11.067,11.067,0,0,0-1.129,3.477c-.2,1.363-.177,2.854-1.027,3.933-1.158,1.469-2.963,1.243-4.6,1.533a12.392,12.392,0,0,0-4.04,1.544,9.98,9.98,0,0,0-4.68,6.872c-.046.322-.078.641-.092.963-.035.913.057,1.845-.064,2.74a4.769,4.769,0,0,1-.135.662,1.42,1.42,0,0,1-.06.188c-.053-.414-.113-.821-.184-1.229a18.081,18.081,0,0,1-2.783-3.657,2.723,2.723,0,0,1-.492-.779,20.8,20.8,0,0,1-1.93-8.3,18.18,18.18,0,0,1,32.859-10.727Z" transform="translate(-101.422 -235.741)"/>
    <path id="Path_376" data-name="Path 376" class="cls-8" d="M135.387,315.284a11.082,11.082,0,0,0-4.808-4.772,26.176,26.176,0,0,0-12.922-3.841,39.047,39.047,0,0,0-13.223,2.524,22.79,22.79,0,0,0-8.784,6.486,8.826,8.826,0,0,0-1.469.237,14.806,14.806,0,0,0-5.243,2.74,16.689,16.689,0,0,0-3.491,3.409,14.65,14.65,0,0,0-2.354,5.534c-1.349,6.217.312,12.632,1.529,18.874s1.93,13.061-1.062,18.669c-1.129,2.124-2.733,3.93-3.937,6s-2,4.557-1.321,6.851c.814,2.79,3.555,4.56,4.985,7.07a8.5,8.5,0,0,1-1.653,10.168c2.248.779,4.751-.06,6.776-1.306a11.973,11.973,0,0,0,3.99-3.785c2.546-4.121,1.416-9.442,2.3-14.2,1.179-6.231,5.937-11.79,5.282-18.1-.443-4.249-3.247-7.771-5.452-11.414a44.727,44.727,0,0,1-3.693-7.658,11.562,11.562,0,0,1-.931-5.941,8,8,0,0,1,.556-1.77v.2a13.563,13.563,0,0,0,1.211,5.311c2.634,5.381,9.648,7.364,12.618,12.565a8.386,8.386,0,0,0,2.124-3.169,14.551,14.551,0,0,0,.2-3.406,9.869,9.869,0,0,1,4.772-7.831,12.261,12.261,0,0,1,4.04-1.54c1.636-.294,3.441-.071,4.6-1.54.85-1.062.828-2.57,1.03-3.93a11,11,0,0,1,1.129-3.48,3.572,3.572,0,0,1,1.338-1.558,3.9,3.9,0,0,1,1.444-.382,29,29,0,0,1,4.185-.216c1.618.039,3.349.184,4.737-.648C135.847,320.24,136.3,317.408,135.387,315.284Z" transform="translate(-58.893 -220.914)"/>
    <path id="Path_377" data-name="Path 377" class="cls-6" d="M757.9,259.793v.145c-.641,5.523-5.951,5.268-7.191,13.97-.489,3.409-5.665,4.04-9.067,4.957-1.469-.5-2.956-.924-4.425-1.459-3.4-1.229-1.023-3.073.432-5.056,4.762-6.493,5.665-15.365,11.071-21.331a19.936,19.936,0,0,0,8.95,8.656A1.282,1.282,0,0,0,757.9,259.793Z" transform="translate(-483.561 -184.966)"/>
    <path id="Path_378" data-name="Path 378" class="cls-7" d="M718.065,226.306a22.48,22.48,0,0,1-.142,2.507,22.223,22.223,0,1,1,.142-2.507Z" transform="translate(-443.606 -154.648)"/>
    <path id="Path_379" data-name="Path 379" class="cls-3" d="M781.824,273.851c2.546-.124,4.992.875,7.343,1.855,9.322,3.894,18.722,7.821,27.052,13.538a149.058,149.058,0,0,1,11.712,9.272l15.61,13.262a56.5,56.5,0,0,1,8.426,8.231,55.922,55.922,0,0,1,3.87,6.019l2.315,3.948a35.436,35.436,0,0,1,2.478,4.833c1.19,3.048,1.632,6.6,4.032,8.83,1.611,1.5,3.831,2.107,5.8,3.094s3.894,2.723,3.863,4.925c0,1.416-.857,2.691-1.5,3.965a15.9,15.9,0,0,0-1.614,8.614L845.682,344.73a8.67,8.67,0,0,0-3.328-1.837c-1.622-.354-3.275.258-4.84.811a93.839,93.839,0,0,1-38.488,5.059c-5.767-.453-11.623-1.491-16.672-4.312a51.7,51.7,0,0,1-7.718-5.665,94.577,94.577,0,0,1-8.851-8.065,5.7,5.7,0,0,1-1.625-2.691,8.92,8.92,0,0,1,.1-2.294c.446-5.371-4.015-9.842-5.374-15.057a13.808,13.808,0,0,1,4.323-13.691c3.041,2.662,2.931,7.339,2.577,11.365-.478,5.42,1.037,8.108.559,13.531,1.926-.071,1.576,1.168,2.4-.577a16.16,16.16,0,0,0,1.136-5.636q.853-10.43,2.071-20.825c.4-3.466.864-6.925,1.306-10.388.269-2.107.234-4.075,1.345-5.944A9.116,9.116,0,0,1,781.824,273.851Z" transform="translate(-498.424 -199.708)"/>
    <path id="Path_380" data-name="Path 380" class="cls-7" d="M810.575,291.307a8.649,8.649,0,0,1,5,.443q4.319,1.282,8.589,2.708a23.278,23.278,0,0,1,6.652,3.07,36.4,36.4,0,0,1,7.856,10.384,24.877,24.877,0,0,1,1.416,7.031,9.23,9.23,0,0,1-.039,3.1,7.542,7.542,0,0,1-1.71,2.985,20.419,20.419,0,0,1-4.2,3.763c-4.167,2.8-9.205,3.972-14.112,5a92.877,92.877,0,0,1-13.259,2.046c-1.738.11-3.756,0-4.819-1.374a5.415,5.415,0,0,1-.708-1.395,52.8,52.8,0,0,1-3.317-21.678,15.973,15.973,0,0,1,.62-3.972,19.115,19.115,0,0,1,1.363-2.992c1.342-2.538,2.754-5.165,5.066-6.865a13.576,13.576,0,0,1,8.55-2.216" transform="translate(-523.844 -210.847)"/>
    <path id="Path_381" data-name="Path 381" class="cls-6" d="M782.853,330.48c-1.391.938-1.876,2.751-2.053,4.422-.754,7.106,2.177,14.14,1.983,21.281-.156,5.665-2.273,11.1-4.362,16.389a97.548,97.548,0,0,0-6.135,28.479c-.719,9.669-1.77,19.738-6.96,27.916-1.179,1.852-2.553,3.572-3.707,5.435-1.211,1.947-2.17,4.036-3.24,6.061a65.219,65.219,0,0,1-12.037,16.169,16.61,16.61,0,0,1-4.723,3.516,9.509,9.509,0,0,1-7.385.078,7.059,7.059,0,0,1-4.56-5.881c-.089-2.344,1.31-4.457,2.712-6.334a103.96,103.96,0,0,1,16.286-17.263,9.374,9.374,0,0,0,2.832-3.211c.641-1.526.379-3.257.46-4.911.131-2.638,1.158-5.141,1.77-7.711,2.478-10.441-1.926-21.841,1.657-31.956.8-2.248,1.979-4.4,2.259-6.766a6.445,6.445,0,0,0-1.25-4.751,6.267,6.267,0,0,1-1.536-4.022,6.949,6.949,0,0,1,.039-.9,97.626,97.626,0,0,0,.627-13.939,32.68,32.68,0,0,0-3.3-13.454c-1.112-2.142-2.549-4.146-3.236-6.458-1.1-3.742-.085-7.789,1.561-11.329a19.764,19.764,0,0,1,5.392-7.3,14.444,14.444,0,0,1,15.971-1.016c3.59,2.146,6.047,5.753,8.04,9.432C781.384,325.138,782.892,327.415,782.853,330.48Z" transform="translate(-479.812 -223.765)"/>
    <path id="Path_382" data-name="Path 382" class="cls-7" d="M785.133,330.481c-1.391.938-1.876,2.751-2.053,4.422-.754,7.106,2.177,14.14,1.983,21.281-.156,5.665-2.273,11.1-4.362,16.389a97.667,97.667,0,0,0-6.135,28.479c-.722,9.669-1.77,19.738-6.96,27.916-1.179,1.852-2.549,3.572-3.707,5.435-1.207,1.947-2.17,4.036-3.24,6.061a65.291,65.291,0,0,1-12.037,16.169,16.625,16.625,0,0,1-4.726,3.516,9.509,9.509,0,0,1-7.385.078,7.061,7.061,0,0,1-4.557-5.881c-.092-2.344,1.306-4.457,2.712-6.334a103.938,103.938,0,0,1,16.286-17.263,9.338,9.338,0,0,0,2.832-3.211c.644-1.526.379-3.257.46-4.911.131-2.638,1.158-5.141,1.77-7.711,2.478-10.441-1.926-21.841,1.657-31.956.8-2.248,1.983-4.4,2.262-6.766a6.462,6.462,0,0,0-1.25-4.751,6.231,6.231,0,0,1-1.579-4.022,6.949,6.949,0,0,1,.039-.9,98.143,98.143,0,0,0,.623-13.939,32.679,32.679,0,0,0-3.3-13.454c-1.112-2.142-2.549-4.146-3.236-6.458-1.1-3.742-.085-7.789,1.561-11.329a19.8,19.8,0,0,1,5.392-7.3,14.444,14.444,0,0,1,15.971-1.016c3.59,2.146,6.047,5.753,8.04,9.432C783.656,325.138,785.157,327.415,785.133,330.481Z" transform="translate(-481.284 -223.766)"/>
    <path id="Path_383" data-name="Path 383" class="cls-8" d="M982.744,627l-.3.092" transform="translate(-643.092 -427.834)"/>
    <path id="Path_384" data-name="Path 384" class="cls-8" d="M808.15,670.974a2.626,2.626,0,0,1,.064-.354" transform="translate(-530.508 -456.011)"/>
    <path id="Path_385" data-name="Path 385" class="cls-3" d="M1008.195,596.815a7.837,7.837,0,0,1,4.1-2.1,41.2,41.2,0,0,1,7.435-1.211,13.9,13.9,0,0,1,4.659.287,6,6,0,0,1,3.7,2.677,9.3,9.3,0,0,1,.871,4.011,36.665,36.665,0,0,1-.113,8.455c-.3,1.77-.864,3.484-1.228,5.24-1.183,5.757-.156,11.715-.262,17.592a9.093,9.093,0,0,1-.634,3.675,10.223,10.223,0,0,1-2.563,3.031,16.253,16.253,0,0,1-3.5,2.623,15.068,15.068,0,0,1-6.344,1.2,9.712,9.712,0,0,1-3.894-.443,3.626,3.626,0,0,1-2.4-2.9c-.142-2.241,2.386-3.707,3.108-5.831.574-1.692-.085-3.562-1-5.1a16.143,16.143,0,0,0-6.058-5.859,12.851,12.851,0,0,1-2.687-1.657,2.847,2.847,0,0,1-.966-2.832c.393-1.207,1.8-1.77,3.062-1.891a10.517,10.517,0,0,0,3.735-.591,5.1,5.1,0,0,0,2.2-2.478,9.2,9.2,0,0,0,.4-6.929,8.513,8.513,0,0,0-1.317-2.4c-.531-.68-1.622-1.253-2-2C1005.837,600.058,1007.292,597.877,1008.195,596.815Z" transform="translate(-654.646 -406.146)"/>
    <path id="Path_386" data-name="Path 386" class="cls-6" d="M863.626,435.452c-5.849-5.169-14-6.575-21.65-8.143q-5.909-1.207-11.761-2.691a43.857,43.857,0,0,0-7.789-1.526,13.2,13.2,0,0,0-7.661,1.544,7.866,7.866,0,0,0-4,6.447c0,1.062.251,2.1.174,3.155-.124,1.692-1.062,3.186-1.7,4.769a12.533,12.533,0,0,0-.428,7.846c1.133,4.132,4.4,7.771,4.114,12.037a80.657,80.657,0,0,0,1.14,21.6c1.466,6.992,3.3,14.016,3.254,21.172s-2.209,14.678-7.552,19.444a29.183,29.183,0,0,0,12.862,7.028c4.117,1.03,9.014.928,11.945-2.142a3.3,3.3,0,0,0,1.1-2.627,5.137,5.137,0,0,0-.761-1.717c-2.015-3.608-1.77-8.054-.878-12.083s2.418-7.945,2.8-12.059c.283-2.985-.035-6.019.535-8.964.439-2.255,1.388-4.379,1.958-6.606,1.682-6.606-.085-13.542-1.841-20.124,1.469,3.381,4.249,6.019,7.123,8.313,4.362,3.477,9.637,6.546,15.181,5.93,4.935-.552,9.138-3.983,12.037-8.008.025-4.656,1.639-9.056,1.352-13.7a34.777,34.777,0,0,0-1.09-6.036,29.971,29.971,0,0,0-2.124-6.468C868.61,439.141,865.884,437.445,863.626,435.452Z" transform="translate(-530.65 -296.091)"/>
    <path id="Path_387" data-name="Path 387" class="cls-7" d="M867.056,435.452c-5.849-5.169-14-6.575-21.65-8.143q-5.909-1.207-11.758-2.691a43.919,43.919,0,0,0-7.789-1.526,13.19,13.19,0,0,0-7.658,1.544,7.858,7.858,0,0,0-4,6.447c0,1.062.248,2.1.17,3.155-.12,1.692-1.08,3.186-1.7,4.769a12.533,12.533,0,0,0-.425,7.846c1.129,4.132,4.394,7.771,4.114,12.037a80.505,80.505,0,0,0,1.136,21.6c1.466,6.992,3.3,14.016,3.254,21.172s-2.223,14.654-7.569,19.412A29.2,29.2,0,0,0,826.04,528.1c4.117,1.03,9.017.928,11.945-2.142a3.3,3.3,0,0,0,1.1-2.627,5.138,5.138,0,0,0-.761-1.717c-2.015-3.608-1.77-8.054-.878-12.083s2.418-7.945,2.808-12.059c.28-2.985-.039-6.019.535-8.964.435-2.255,1.388-4.379,1.954-6.606,1.682-6.606-.081-13.542-1.841-20.124,1.469,3.381,4.249,6.019,7.127,8.313,4.362,3.477,9.633,6.546,15.178,5.93,4.935-.552,9.138-3.983,12.037-8.008.021-4.656,1.636-9.056,1.349-13.7a34.772,34.772,0,0,0-1.09-6.036,29.779,29.779,0,0,0-2.124-6.468C872.062,439.141,869.315,437.445,867.056,435.452Z" transform="translate(-532.87 -296.091)"/>
    <path id="Path_388" data-name="Path 388" class="cls-3" d="M770.973,692.2a22.108,22.108,0,0,1-6.589-6.171,17.371,17.371,0,0,0-1.983-2.6,3.829,3.829,0,0,0-2.938-1.207,4.784,4.784,0,0,0-2.992,2.025c-2.089,2.588-3.434,5.753-5.753,8.143-2.677,2.765-6.412,4.248-10.14,5.2s-7.577,1.448-11.23,2.648a5.118,5.118,0,0,0-2.974,1.922,4.294,4.294,0,0,0,.474,4.362,12.794,12.794,0,0,0,6.893,5.024,62.357,62.357,0,0,0,8.5,1.887c5.049.988,10.221,2.57,15.245,1.455,2-.446,3.894-1.31,5.92-1.685,4.6-.857,9.35.874,13.97.181a21.865,21.865,0,0,0,6.373-2.234,8.787,8.787,0,0,0,2.726-1.852,3.336,3.336,0,0,0,.882-3.048,12.285,12.285,0,0,0-.839-1.707,8.774,8.774,0,0,1-.6-2.875,78.8,78.8,0,0,0-1.94-11.074c-.315-1.271-.786-2.687-1.972-3.243a1.062,1.062,0,0,0-.79-.089c-.421.159-.559.669-.687,1.1a6.755,6.755,0,0,1-11.747,2.33" transform="translate(-477.417 -463.497)"/>
    <path id="Path_389" data-name="Path 389" class="cls-6" d="M720.308,226.313a22.48,22.48,0,0,1-.142,2.507,7.169,7.169,0,0,1-6.16-2.05c-.747-.793-1.306-1.753-2.046-2.553a3.123,3.123,0,0,0-5.144-.074,7.533,7.533,0,0,0-1.724,3.048,4.155,4.155,0,0,1-1.02,2.252,3.224,3.224,0,0,1-2.273.471,6.778,6.778,0,0,1-2.988-.566c-1.7-.917-2.273-3.016-2.9-4.843-1.062-3.07-3.452-8.876-7.166-9.5a7.847,7.847,0,0,0-5.311,1.65c-2.092,1.519-3.636,2.5-6.341,2.461h0a22.227,22.227,0,0,1,43.253,7.194Z" transform="translate(-445.848 -154.655)"/>
    <path id="Path_390" data-name="Path 390" class="cls-8" d="M668.592,196.566a5.342,5.342,0,0,1-1.876-.3c-1.717-.673-2.553-2.655-2.7-4.493-.227-2.8.708-5.548,1.646-8.2a2.718,2.718,0,0,1,.952-1.519,3.306,3.306,0,0,1,1.342-.336,12.7,12.7,0,0,0,6.624-3.65,54.165,54.165,0,0,1,5.665-5.169,15.149,15.149,0,0,1,18.615,1.611c1.9,1.869,3.54,4.4,6.182,4.843,1.522.251,3.154-.273,4.6.294a5.431,5.431,0,0,1,2.429,2.312,22.936,22.936,0,0,1,3.211,10.441,68.156,68.156,0,0,1-.262,11.014,2.875,2.875,0,0,1-.407,1.561,2.379,2.379,0,0,1-.832.637,7.148,7.148,0,0,1-8.246-1.388c-.751-.79-1.306-1.749-2.046-2.553a3.125,3.125,0,0,0-5.144-.071,7.534,7.534,0,0,0-1.724,3.048,4.107,4.107,0,0,1-1.02,2.248,3.25,3.25,0,0,1-2.276.474,6.775,6.775,0,0,1-2.984-.57c-1.7-.913-2.276-3.013-2.9-4.84-1.062-3.07-3.448-8.879-7.166-9.5a7.829,7.829,0,0,0-5.311,1.65C672.84,195.628,671.311,196.612,668.592,196.566Z" transform="translate(-437.382 -132.913)"/>
    <path id="Path_391" data-name="Path 391" class="cls-6" d="M287.342,611.125c-.244,1.614-1.724,2.875-2.769,4.128-2.839,3.427-5.718,6.865-8.893,10a139.163,139.163,0,0,1-10.858,9.329l-4.836,3.87a6.089,6.089,0,0,1-2.057,1.239,3.756,3.756,0,0,1-2.648-.315c.071-.142.145-.273.227-.4l5.8-9.718c1.14-1.9,1.887-3.64,3.186-5.427a54.087,54.087,0,0,1,6.344-7.637c3.048-2.871,6.957-4.957,10.582-7.031.524-1.572,2.719-2.007,4.2-1.264a5.251,5.251,0,0,1,1.462,1.122A4.185,4.185,0,0,1,287.342,611.125Z" transform="translate(-173.376 -415.266)"/>
    <path id="Path_392" data-name="Path 392" class="cls-8" d="M262.124,576.208l-5.8,9.722a1.374,1.374,0,0,0,.329,2.2c2.223,1.809,4.688,3.717,5.385,6.5.5,1.983,0,4.107.446,6.1.818,3.59,4.426,5.771,7.838,7.152a44.372,44.372,0,0,0,24.262,2.832,35.552,35.552,0,0,0,21.1-11.945c1.614-1.954,3-4.093,4.528-6.111,4.248-5.576,9.641-10.154,14.99-14.686,6.886-5.835,10.943-14.537,16.994-21.242a8.483,8.483,0,0,1,3.894-2.882c.885-.223,2.124.106,2.16,1.02.081,1.77,1.5,3.218,2.478,4.7,3.668,5.608,7.506,11.389,13.174,14.965a41.911,41.911,0,0,0,10.122,4.249c8.886,2.769,17.946,4.957,27,7.123a15.141,15.141,0,0,1,1.636-2.581c.938-1.151,2.174-2.029,3.116-3.186,1.724-2.085,2.33-4.843,2.882-7.492-5.406-3.31-10.954-6.727-16.286-10.168a38.429,38.429,0,0,1-7.559-5.831c-1.416-1.537-2.606-3.3-4.025-4.843a41.064,41.064,0,0,0-4.68-4.153l-12.745-10.207c-3.661-2.928-7.392-6.019-10.975-9.049-2.014-1.706-4.249-3.5-6.883-3.583-2.255-.071-4.33,1.136-6.27,2.3q-17.093,10.235-34.7,19.55c-2.376,1.253-4.762,2.5-7.028,3.94a47.371,47.371,0,0,0-11.584,10.4c-.6.747-1.356,1.6-2.3,1.483a2.074,2.074,0,0,1-.74-.258,9.027,9.027,0,0,1-3.186-3.728,8.637,8.637,0,0,0-3.236-3.686c-1.483-.744-3.675-.308-4.2,1.267-3.643,2.135-7.538,4.2-10.589,7.074a53.889,53.889,0,0,0-6.344,7.637C264.011,572.572,263.261,574.307,262.124,576.208Z" transform="translate(-173.791 -361.818)"/>
    <path id="Path_393" data-name="Path 393" class="cls-6" d="M246.61,502.52a71.356,71.356,0,0,1,10.012,5.509" transform="translate(-167.775 -347.425)"/>
    <path id="Path_394" data-name="Path 394" class="cls-8" d="M989.13,471.984c.106,3.3.191,6.613.152,9.913a10.8,10.8,0,0,1-.935,5.105,11.108,11.108,0,0,1-2.478,2.8l-5.831,5.286c-1.809,1.639-3.76,3.349-6.171,3.756-2.758.467-5.452-.874-8.1-1.77a26.6,26.6,0,0,0-8.285-1.391,30.6,30.6,0,0,1-4.836-.127,19.833,19.833,0,0,1-3.378-.959L944,492.773c.149-1.328,1.416-2.174,2.478-3.013,3.771-3.059,5.424-7.977,6.613-12.682a75.623,75.623,0,0,0,2.06-11.191,18.375,18.375,0,0,0-.131-5.608,22.3,22.3,0,0,0-1.558-4.3l-1.852-4.174c-1.062-2.358-3.186-3.406-5.349-4.8,3.264,1.239,7.244,1.724,9.725,4.181a6.441,6.441,0,0,0,1.678,1.359,7.942,7.942,0,0,0,2.184.474c3.686.552,6.819,2.868,9.864,5.01q5.59,3.937,11.492,7.4a27.017,27.017,0,0,1,5.088,3.484,8.205,8.205,0,0,1,2.754,5.367" transform="translate(-618.261 -311.568)"/>
    <path id="Path_395" data-name="Path 395" class="cls-6" d="M162.3,456.665c-4.641.917-7.056,6.373-6.783,11.092a18.056,18.056,0,0,0,4.893,11.276c1.937,2.036,4.351,3.608,6.1,5.806,2.585,3.243,3.484,7.53,5.8,10.975a29.9,29.9,0,0,0,6.373,6.341q8.093,6.458,16.714,12.225c2.337,1.561,4.893,3.14,7.7,3.08a9.606,9.606,0,0,0,6.815-3.622,29.07,29.07,0,0,0,3.955-6.861c4.043-8.816,8.115-17.727,10.048-27.229.605-2.985,1.013-6.061,2.365-8.791a42.679,42.679,0,0,1,4.036-5.863,40.443,40.443,0,0,0,6.826-15.252c.772-3.59,1.03-7.435-.237-10.869s-4.344-6.412-8.008-6.681a9.734,9.734,0,0,0-7.693,3.438,19.03,19.03,0,0,0-3.877,7.729,37.022,37.022,0,0,0-1.275,12.391c.227,3.367.913,6.766.333,10.094a27.037,27.037,0,0,1-2.446,6.7c-2.616,5.573-5.275,11.216-9.23,15.932-1.289,1.537-3.062,3.091-5.034,2.73-2.726-.5-3.448-3.948-4.794-6.373-1.65-2.974-4.78-4.762-7.233-7.123-3.491-3.363-5.583-7.874-8.065-12.037s-5.693-8.274-10.267-9.871-10.671.453-11.846,5.155" transform="translate(-108.916 -302.049)"/>
    <path id="Path_396" data-name="Path 396" class="cls-6" d="M165.848,456.952c-4.645.917-10.557,1.515-10.267,6.242a18.021,18.021,0,0,0,4.893,11.276c1.937,2.039,4.351,3.611,6.1,5.81,2.585,3.243,3.484,7.527,5.8,10.975a29.735,29.735,0,0,0,6.373,6.341q8.093,6.461,16.714,12.225c2.337,1.565,4.893,3.144,7.7,3.084a9.619,9.619,0,0,0,6.815-3.622,28.952,28.952,0,0,0,3.955-6.865c4.043-8.816,8.115-17.727,10.048-27.229.605-2.981,1.013-6.061,2.365-8.787a42.933,42.933,0,0,1,4.036-5.866,40.4,40.4,0,0,0,6.826-15.249c.772-3.594,1.03-7.435-.237-10.873s-4.344-6.408-8.008-6.681a9.744,9.744,0,0,0-7.693,3.438,19,19,0,0,0-3.877,7.732,37.011,37.011,0,0,0-1.275,12.391c.227,3.37.913,6.769.333,10.094a27.009,27.009,0,0,1-2.446,6.7c-2.616,5.573-5.275,11.212-9.23,15.932-1.289,1.537-3.062,3.087-5.034,2.73-2.726-.5-3.448-3.951-4.794-6.373-1.65-2.974-4.78-4.762-7.233-7.123-3.491-3.36-5.583-7.874-8.065-12.037s-5.693-8.27-10.267-9.871,1.154,8.649-.025,13.351" transform="translate(-108.968 -299.103)"/>
    <path id="Path_397" data-name="Path 397" class="cls-9" d="M162.3,454.387c-4.641.917-7.056,6.373-6.783,11.092a18.056,18.056,0,0,0,4.893,11.28c1.937,2.036,4.351,3.608,6.1,5.806,2.585,3.243,3.484,7.53,5.8,10.975a29.833,29.833,0,0,0,6.373,6.344q8.093,6.458,16.714,12.221c2.337,1.565,4.893,3.144,7.7,3.084a9.606,9.606,0,0,0,6.815-3.622,29.07,29.07,0,0,0,3.955-6.861c4.043-8.816,8.115-17.727,10.048-27.233.605-2.981,1.013-6.061,2.365-8.787a42.93,42.93,0,0,1,4.036-5.866,40.4,40.4,0,0,0,6.826-15.249c.772-3.594,1.03-7.435-.237-10.873s-4.344-6.408-8.008-6.677a9.722,9.722,0,0,0-7.693,3.438,19.03,19.03,0,0,0-3.877,7.729,37.022,37.022,0,0,0-1.275,12.391c.227,3.367.913,6.766.333,10.09a27.01,27.01,0,0,1-2.446,6.7c-2.616,5.573-5.275,11.216-9.23,15.932-1.289,1.537-3.062,3.087-5.034,2.73-2.726-.5-3.448-3.948-4.794-6.373-1.65-2.977-4.78-4.765-7.233-7.123-3.491-3.363-5.583-7.874-8.065-12.037s-5.693-8.27-10.267-9.867-10.671.453-11.846,5.155" transform="translate(-108.916 -300.581)"/>
    <g id="Group_21" data-name="Group 21" class="cls-11" transform="translate(22.737 86.34)">
      <path id="Path_398" data-name="Path 398" d="M101.061,389.422a44.726,44.726,0,0,1-3.693-7.658l-.12-.354a11.47,11.47,0,0,1-1.866-2.687,13.546,13.546,0,0,1-1.211-5.311v-.2a8,8,0,0,0-.556,1.77,11.605,11.605,0,0,0,.931,5.941,44.852,44.852,0,0,0,3.693,7.658c2.2,3.675,5.006,7.215,5.442,11.432.655,6.309-4.1,11.864-5.279,18.1-.9,4.762.241,10.083-2.3,14.2a11.928,11.928,0,0,1-3.99,3.781,11.288,11.288,0,0,1-3.268,1.416,7.585,7.585,0,0,1-.68.708c2.248.779,4.751-.06,6.776-1.306a11.973,11.973,0,0,0,3.99-3.785c2.546-4.121,1.416-9.442,2.3-14.2,1.179-6.231,5.937-11.79,5.282-18.1C106.071,396.584,103.267,393.047,101.061,389.422Z" transform="translate(-88.16 -350.236)"/>
      <path id="Path_399" data-name="Path 399" d="M180.281,316.35a11.082,11.082,0,0,0-4.808-4.772,27.831,27.831,0,0,0-8.076-3.257,28.865,28.865,0,0,1,5.247,2.446,11.135,11.135,0,0,1,4.811,4.776c.917,2.11.46,4.957-1.508,6.132-1.388.832-3.119.683-4.737.648a28.5,28.5,0,0,0-4.185.212,4.025,4.025,0,0,0-1.444.382,3.593,3.593,0,0,0-1.338,1.576,11,11,0,0,0-1.133,3.48c-.2,1.359-.181,2.85-1.03,3.93-1.154,1.469-2.96,1.246-4.6,1.536a12.391,12.391,0,0,0-4.04,1.544,9.848,9.848,0,0,0-4.772,7.831,14.519,14.519,0,0,1-.195,3.4,5.615,5.615,0,0,1-.921,1.77,12.072,12.072,0,0,1,1.636,2.206,8.386,8.386,0,0,0,2.124-3.169,14.551,14.551,0,0,0,.2-3.406,9.869,9.869,0,0,1,4.772-7.831,12.26,12.26,0,0,1,4.04-1.54c1.636-.294,3.441-.071,4.6-1.54.85-1.062.828-2.57,1.03-3.93a11,11,0,0,1,1.129-3.48,3.572,3.572,0,0,1,1.338-1.558,3.9,3.9,0,0,1,1.444-.382,29,29,0,0,1,4.185-.216c1.618.039,3.349.184,4.737-.648C180.741,321.306,181.191,318.474,180.281,316.35Z" transform="translate(-126.524 -308.32)"/>
    </g>
    <path id="Path_400" data-name="Path 400" class="cls-6" d="M174.52,426.55s4.181,3.6,12.122,1.416C186.642,427.959,181.725,429.9,174.52,426.55Z" transform="translate(-121.208 -298.352)"/>
    <path id="Path_401" data-name="Path 401" class="cls-6" d="M714.836,234.873a2.886,2.886,0,0,1-.425,1.551,2.369,2.369,0,0,1-.832.634,7.141,7.141,0,0,1-8.242-1.384c-.751-.793-1.306-1.77-2.046-2.553a3.765,3.765,0,0,0-2.832-1.381,3.716,3.716,0,0,0-2.312,1.306,7.665,7.665,0,0,0-1.724,3.048,4.114,4.114,0,0,1-1.016,2.252,3.226,3.226,0,0,1-2.276.471,6.7,6.7,0,0,1-2.985-.566c-1.7-.913-2.276-3.016-2.907-4.84-1.062-3.073-3.448-8.879-7.162-9.5a7.86,7.86,0,0,0-5.311,1.65c-2.092,1.519-3.636,2.5-6.344,2.478a5.413,5.413,0,0,1-1.876-.3,4.85,4.85,0,0,1-2.641-3.983,11.8,11.8,0,0,0-.06,2.319c.149,1.834.984,3.817,2.7,4.493a5.414,5.414,0,0,0,1.876.3c2.708.042,4.248-.942,6.344-2.461a7.853,7.853,0,0,1,5.311-1.65c3.7.6,6.107,6.408,7.148,9.478.63,1.827,1.2,3.93,2.907,4.843a6.754,6.754,0,0,0,2.985.566,3.339,3.339,0,0,0,2.276-.471,4.391,4.391,0,0,0,1.016-2.252,7.641,7.641,0,0,1,1.724-3.048,3.734,3.734,0,0,1,2.312-1.306,3.606,3.606,0,0,1,2.832,1.381c.708.8,1.3,1.77,2.046,2.553a7.141,7.141,0,0,0,8.242,1.384,2.41,2.41,0,0,0,.832-.634,2.889,2.889,0,0,0,.425-1.554,84.429,84.429,0,0,0,.354-8.971C715.147,230.777,715,232.827,714.836,234.873Z" transform="translate(-437.271 -167.358)"/>
    <path id="Path_402" data-name="Path 402" class="cls-8" d="M91.378,663.34s.563-.627-.5-.874v-1.03h.637a5.435,5.435,0,0,0-4.309-5.311v-1.25h.166V653.25h-4.1v1.625H83.4v1.264a5.438,5.438,0,0,0-4.248,5.311h.563v.988s-1.342.634,0,1.77,1.133,1.958,1.133,1.958-.563,2.124-1.692,2.4v19.7a4.376,4.376,0,0,0,4.376,4.379h3.459a4.379,4.379,0,0,0,4.379-4.379v-19.7s-1.979-1.483-1.625-2.4A22.144,22.144,0,0,1,91.378,663.34Z" transform="translate(-59.581 -444.791)"/>
  </g>
</svg>
