<svg xmlns="http://www.w3.org/2000/svg" xmlns:xlink="http://www.w3.org/1999/xlink" viewBox="0 0 237.071 167.658">
  <defs>
    <style>
      .cls-1, .cls-7 {
        fill: #6c63ff;
      }

      .cls-1, .cls-10, .cls-2, .cls-22, .cls-5 {
        opacity: 0.1;
      }

      .cls-2 {
        fill: #251f7f;
      }

      .cls-3 {
        fill: url(#linear-gradient);
      }

      .cls-22, .cls-4 {
        fill: #fff;
      }

      .cls-6 {
        fill: #cf6f80;
      }

      .cls-8 {
        fill: #3f3d56;
      }

      .cls-9 {
        fill: #512e4e;
      }

      .cls-11 {
        fill: #535461;
      }

      .cls-12 {
        fill: #9d9cb5;
      }

      .cls-13 {
        fill: none;
        stroke: #535461;
        stroke-miterlimit: 10;
        stroke-width: 2px;
      }

      .cls-14 {
        fill: url(#linear-gradient-2);
      }

      .cls-15 {
        fill: #1d2366;
      }

      .cls-16 {
        fill: #ffb0b1;
      }

      .cls-17 {
        fill: #c7daf5;
      }

      .cls-18 {
        opacity: 0.03;
      }

      .cls-19 {
        fill: #dce7ff;
      }

      .cls-20 {
        fill: #591d4b;
      }

      .cls-21 {
        fill: #be8b87;
      }

      .cls-23 {
        fill: #efc8c4;
      }

      .cls-24 {
        fill: #727a9c;
      }

      .cls-25 {
        fill: #ff748e;
      }
    </style>
    <linearGradient id="linear-gradient" x1="0.5" y1="1" x2="0.5" gradientUnits="objectBoundingBox">
      <stop offset="0" stop-color="gray" stop-opacity="0.251"/>
      <stop offset="0.54" stop-color="gray" stop-opacity="0.122"/>
      <stop offset="1" stop-color="gray" stop-opacity="0.102"/>
    </linearGradient>
    <linearGradient id="linear-gradient-2" x1="0.5" y1="1" x2="0.5" y2="0" xlink:href="#linear-gradient"/>
  </defs>
  <g id="medicine" transform="translate(0.485 0)">
    <ellipse id="Ellipse_25" data-name="Ellipse 25" class="cls-1" cx="20.871" cy="3.352" rx="20.871" ry="3.352" transform="translate(57.716 160.86)"/>
    <ellipse id="Ellipse_26" data-name="Ellipse 26" class="cls-1" cx="26.044" cy="3.352" rx="26.044" ry="3.352" transform="translate(165.995 160.954)"/>
    <path id="Path_202" data-name="Path 202" class="cls-1" d="M59.446,396.83H81.184v29.629H61.037c-.054.3-.1.61-.161.917H81.184v23.9c-.036-.011-.069-.024-.1-.036-.574-.227-1.144-.467-1.714-.724L79,450.346q-.857-.4-1.714-.857c-.2-.1-.4-.214-.6-.326a35.645,35.645,0,0,1-8.542-6.674c-.073-.071-.141-.146-.214-.214-.347-.377-.688-.758-1.017-1.148l-.364-.428c-.39-.478-.767-.968-1.133-1.465-.054-.073-.1-.146-.161-.214a31.89,31.89,0,0,1-3.684-6.661c-.03-.071-.056-.148-.084-.214q-.441-1.135-.782-2.292c-.1-.323-.193-.643-.274-.979-.03-.1-.056-.195-.079-.291A58.564,58.564,0,0,1,59,414v-1.714c0-1.981.024-3.975.058-5.967,0-.516.021-1.03.032-1.549q.045-1.973.129-3.945c.013-.366.03-.73.049-1.095a6.2,6.2,0,0,1,.032-.63C59.351,398.34,59.394,397.584,59.446,396.83Z" transform="translate(-56.584 -324.389)"/>
    <path id="Path_203" data-name="Path 203" class="cls-1" d="M118.824,187.521H106.9a90.392,90.392,0,0,1,6.342-8.731c1.771-2.176,3.641-4.3,5.582-6.34Z" transform="translate(-94.224 -148.069)"/>
    <path id="Path_204" data-name="Path 204" class="cls-1" d="M83.07,247.09v31.156H61.4c0-.09.015-.182.021-.272.019-.246.039-.493.06-.737.024-.287.049-.576.077-.857s.058-.623.09-.934.062-.625.1-.936.069-.621.107-.93.073-.621.114-.93c.032-.257.066-.512.1-.769.049-.362.1-.726.156-1.086a1,1,0,0,1,.024-.161,74.089,74.089,0,0,1,1.6-7.822,57.848,57.848,0,0,1,2.688-7.925,59.492,59.492,0,0,1,4.044-7.788Z" transform="translate(-58.47 -206.722)"/>
    <path id="Path_205" data-name="Path 205" class="cls-1" d="M186.8,131.063v29.631h46.43V131.063Zm0,30.546v25.446c.266.056.529.109.79.154.356.069.709.131,1.071.184.069.011.139.021.214.028.141.024.287.043.428.062.358.049.713.09,1.071.122.169.017.341.032.512.045l.413.032h0c.225.017.448.03.668.036.137,0,.274.013.416.017h1.527c.184,0,.368,0,.55-.017h.013a2.89,2.89,0,0,0,.383-.017.9.9,0,0,0,.107,0,2.211,2.211,0,0,0,.317-.015h.075l.718-.056c.236-.021.473-.049.713-.075l.488-.058a42.722,42.722,0,0,0,5.88-1.251c4.331-1.208,8.568-2.9,12.9-4.136,5.6-1.6,11.781-2.38,17.189-.428V161.609Zm46.43-63.534V58.627A59.689,59.689,0,0,0,218.145,60.4c-11.757,2.954-22.306,9.36-31.345,17.542V98.073h2.33v.915H186.8v31.161h46.43V98.99H198.7v-.915ZM292.868,84.75a19.232,19.232,0,0,1-8.416-2.446c-5-2.72-9-6.921-13.46-10.465a61.8,61.8,0,0,0-32.577-12.944v39.18H304.7l.165-.173Zm6.038-1.071,6.4,7.026V81.837a25.4,25.4,0,0,0-6.394,1.833Zm6.4,109.694V161.609H291.667c-.036-.135-.073-.272-.116-.409.041.137.075.274.113.409h-53.24v22.972c.505.375,1,.769,1.5,1.169h0c.533.428,1.06.88,1.589,1.324l.533.441c.255.214.512.428.771.63q.771.625,1.557,1.234c.259.214.525.407.788.608a107.354,107.354,0,0,0,13.2,8.634q1.549.857,3.125,1.673c.7.358,1.405.713,2.112,1.058q1.594.777,3.213,1.5h0a117.985,117.985,0,0,0,31.272,9.11q3.6.531,7.22.835V193.371h.214ZM238.425,98.99v31.159h66.892V98.99Zm0,32.073v29.631h66.892V131.063ZM310.509,81.8V91.69l8.171-8.966q-4.061-.655-8.171-.936Zm0,49.275v29.621H375.57V131.063Zm64.823,64.652.229-34.117H310.509v51.528a116.666,116.666,0,0,0,12.573-.15h.073q3-.188,5.97-.548h.045a109.933,109.933,0,0,0,30.672-8.184m28.273-68.312c-.244-.576-.5-1.148-.758-1.714-.484-1.071-1-2.112-1.523-3.153h-5.076v29.619h12.834a64.026,64.026,0,0,0-5.471-24.763Zm-7.357,25.677v29.344A42.037,42.037,0,0,0,389.627,179a41.125,41.125,0,0,0,3.954-17.386Zm0-39.18v7.711h4.6a83.533,83.533,0,0,0-4.594-7.722ZM336.634,87.612c-.338-.129-.677-.259-1.017-.386a92.882,92.882,0,0,0-10.99-3.3l-12.5,13.723h0l-.24.255.161.176h44.5A95.189,95.189,0,0,0,336.64,87.6ZM357.852,99H311.421l-.912.835v30.313h65.07V115.465a92.7,92.7,0,0,0-17.72-16.476Z" transform="translate(-157.01 -58.624)"/>
    <path id="Path_206" data-name="Path 206" class="cls-1" d="M83.07,320.46V335.9H61.4c0-.09.015-.182.021-.272.019-.246.039-.493.06-.737.024-.287.049-.576.077-.857s.058-.623.09-.934.062-.625.1-.936.069-.621.107-.93.073-.621.114-.93c.032-.257.066-.512.1-.769.049-.362.1-.726.156-1.086a1,1,0,0,1,.024-.161,74.093,74.093,0,0,1,1.6-7.822Z" transform="translate(-58.47 -264.377)"/>
    <path id="Path_207" data-name="Path 207" class="cls-1" d="M59.446,396.83H81.184v29.629H61.037c-.054.3-.1.61-.161.917H81.184v23.9c-.036-.011-.069-.024-.1-.036-.574-.227-1.144-.467-1.714-.724L79,450.346q-.857-.4-1.714-.857c-.2-.1-.4-.214-.6-.326a35.645,35.645,0,0,1-8.542-6.674c-.073-.071-.141-.146-.214-.214-.347-.377-.688-.758-1.017-1.148l-.364-.428c-.39-.478-.767-.968-1.133-1.465-.054-.073-.1-.146-.161-.214a31.89,31.89,0,0,1-3.684-6.661c-.03-.071-.056-.148-.084-.214q-.441-1.135-.782-2.292c-.1-.323-.193-.643-.274-.979-.03-.1-.056-.195-.079-.291A58.564,58.564,0,0,1,59,414v-1.714c0-1.981.024-3.975.058-5.967,0-.516.021-1.03.032-1.549q.045-1.973.129-3.945c.013-.366.03-.73.049-1.095a6.2,6.2,0,0,1,.032-.63C59.351,398.34,59.394,397.584,59.446,396.83Z" transform="translate(-56.584 -324.389)"/>
    <path id="Path_208" data-name="Path 208" class="cls-1" d="M155.905,176.119v26.7H139.56v-26.7h2.33V167.08h9.566v9.039Z" transform="translate(-109.77 -131.291)"/>
    <rect id="Rectangle_62" data-name="Rectangle 62" class="cls-1" width="16.343" height="29.629" transform="translate(29.792 72.439)"/>
    <path id="Path_209" data-name="Path 209" class="cls-1" d="M186.8,539.44h16.345v24.632a42.667,42.667,0,0,1-5.88,1.249l-.488.06c-.24.028-.478.051-.713.075s-.48.041-.718.056h-.075c-.1,0-.214.013-.315.015h-.109c-.129,0-.257.013-.386.017h0c-.182.011-.364.013-.55.015h-1.516l-.413-.015c-.214,0-.446-.024-.668-.039h0l-.411-.03-.512-.047c-.36-.032-.718-.073-1.071-.122l-.428-.06-.214-.03c-.358-.056-.711-.116-1.071-.184-.263-.045-.525-.1-.79-.154Z" transform="translate(-157.01 -436.453)"/>
    <rect id="Rectangle_63" data-name="Rectangle 63" class="cls-1" width="13.477" height="29.848" transform="translate(134.83 41.675)"/>
    <path id="Path_210" data-name="Path 210" class="cls-1" d="M447.474,338.19v29.631H380.58V355.041h35.631v7.54H434V338.19Z" transform="translate(-299.165 -265.751)"/>
    <path id="Path_211" data-name="Path 211" class="cls-2" d="M494.926,569.708h-.214v19.438q-3.62-.306-7.218-.833a117.993,117.993,0,0,1-31.285-9.129q-4.312-1.941-8.448-4.237a107.8,107.8,0,0,1-13.2-8.634q-1.576-1.208-3.112-2.472c-.709-.585-1.414-1.185-2.127-1.767-.495-.4-.994-.795-1.5-1.172V537.939h53.238c-.036-.137-.073-.274-.111-.409.041.135.079.272.116.409h13.65V569.7C494.785,569.7,494.856,569.7,494.926,569.708Z" transform="translate(-346.405 -434.952)"/>
    <path id="Path_212" data-name="Path 212" class="cls-1" d="M872,202.977H863.22v-2.729h3.937V192.12q.512.186,1.02.383v7.745H872Z" transform="translate(-688.546 -163.526)"/>
    <path id="Path_213" data-name="Path 213" class="cls-1" d="M815.475,278.246H772.362l.015.011-.019-.011h-8V248.4h2.266v22.062h10.356V257.395h8.555v-10.3h8.782V257.4h8.555v13.066h12.6Z" transform="translate(-610.861 -206.722)"/>
    <path id="Path_214" data-name="Path 214" class="cls-1" d="M764.36,396.82v29.631h51.115V396.82Zm64.99,64.51.071-23.454H815.475v-10.5H764.36v51.513a116.659,116.659,0,0,0,12.573-.15h.073q3-.189,5.97-.548h.045a109.931,109.931,0,0,0,30.672-8.184" transform="translate(-610.861 -324.381)"/>
    <path id="Path_215" data-name="Path 215" class="cls-1" d="M1093.27,539.44h11.924a41.249,41.249,0,0,1-3.956,17.384,42.054,42.054,0,0,1-8.868,11.963V549.938h.9Z" transform="translate(-868.614 -436.453)"/>
    <path id="Path_216" data-name="Path 216" class="cls-1" d="M1108.5,444.313h-11.93V419.55h6.456A64.108,64.108,0,0,1,1108.5,444.313Z" transform="translate(-871.914 -342.242)"/>
    <rect id="Rectangle_64" data-name="Rectangle 64" class="cls-1" width="7.22" height="9.358" transform="translate(141.089 49.972)"/>
    <rect id="Rectangle_65" data-name="Rectangle 65" class="cls-1" width="7.22" height="2.155" transform="translate(141.089 69.37)"/>
    <rect id="Rectangle_66" data-name="Rectangle 66" class="cls-1" width="7.22" height="6.287" transform="translate(141.089 72.439)"/>
    <rect id="Rectangle_67" data-name="Rectangle 67" class="cls-1" width="7.22" height="9.358" transform="translate(141.089 88.767)"/>
    <rect id="Rectangle_68" data-name="Rectangle 68" class="cls-1" width="7.22" height="9.358" transform="translate(141.089 108.164)"/>
    <path id="Path_217" data-name="Path 217" class="cls-1" d="M713.638,661.352a1.191,1.191,0,0,1,.214.013h-.214v2.174H706.42V654.17h7.218Z" transform="translate(-565.331 -526.609)"/>
    <path id="Path_218" data-name="Path 218" class="cls-1" d="M713.638,744.71v7.229q-3.62-.306-7.218-.833v-6.4Z" transform="translate(-565.331 -597.756)"/>
    <rect id="Rectangle_69" data-name="Rectangle 69" class="cls-1" width="30.944" height="0.688" transform="translate(81.415 101.383)"/>
    <rect id="Rectangle_70" data-name="Rectangle 70" class="cls-1" width="30.944" height="2.635" transform="translate(81.415 102.985)"/>
    <rect id="Rectangle_71" data-name="Rectangle 71" class="cls-1" width="30.944" height="4.237" transform="translate(81.415 114.256)"/>
    <path id="Path_219" data-name="Path 219" class="cls-1" d="M464.255,652.15v4.237h-24.2q-1.576-1.2-3.114-2.472c-.709-.585-1.412-1.184-2.127-1.765Z" transform="translate(-351.898 -525.021)"/>
    <path id="Path_220" data-name="Path 220" class="cls-1" d="M531.921,712.216v4.232h-2.555q-4.307-1.943-8.446-4.239Z" transform="translate(-419.564 -572.217)"/>
    <rect id="Rectangle_72" data-name="Rectangle 72" class="cls-1" width="6.092" height="6.092" transform="translate(166.074 75.311)"/>
    <rect id="Rectangle_73" data-name="Rectangle 73" class="cls-1" width="6.092" height="6.092" transform="translate(34.179 46.929)"/>
    <rect id="Rectangle_74" data-name="Rectangle 74" class="cls-1" width="6.092" height="6.092" transform="translate(34.179 61.078)"/>
    <rect id="Rectangle_75" data-name="Rectangle 75" class="cls-1" width="6.092" height="6.092" transform="translate(34.179 75.228)"/>
    <rect id="Rectangle_76" data-name="Rectangle 76" class="cls-1" width="6.092" height="6.092" transform="translate(34.179 89.375)"/>
    <rect id="Rectangle_77" data-name="Rectangle 77" class="cls-1" width="6.092" height="6.092" transform="translate(34.179 103.525)"/>
    <rect id="Rectangle_78" data-name="Rectangle 78" class="cls-1" width="6.092" height="6.092" transform="translate(34.179 117.674)"/>
    <rect id="Rectangle_79" data-name="Rectangle 79" class="cls-1" width="6.092" height="6.092" transform="translate(189.329 75.311)"/>
    <rect id="Rectangle_80" data-name="Rectangle 80" class="cls-1" width="6.092" height="6.092" transform="translate(166.074 90.337)"/>
    <rect id="Rectangle_81" data-name="Rectangle 81" class="cls-1" width="6.092" height="6.092" transform="translate(189.329 90.337)"/>
    <rect id="Rectangle_82" data-name="Rectangle 82" class="cls-1" width="6.092" height="6.092" transform="translate(166.074 105.36)"/>
    <rect id="Rectangle_83" data-name="Rectangle 83" class="cls-1" width="6.092" height="6.092" transform="translate(189.329 105.36)"/>
    <rect id="Rectangle_84" data-name="Rectangle 84" class="cls-1" width="6.092" height="6.092" transform="translate(166.074 120.386)"/>
    <rect id="Rectangle_85" data-name="Rectangle 85" class="cls-1" width="6.092" height="6.092" transform="translate(189.329 120.386)"/>
    <rect id="Rectangle_86" data-name="Rectangle 86" class="cls-1" width="6.092" height="6.092" transform="translate(166.074 135.412)"/>
    <rect id="Rectangle_87" data-name="Rectangle 87" class="cls-1" width="6.092" height="6.092" transform="translate(189.329 135.412)"/>
    <path id="Path_221" data-name="Path 221" class="cls-1" d="M775.83,706.258V702.33h6.089V705.7Z" transform="translate(-609.756 -551.895)"/>
    <path id="Path_222" data-name="Path 222" class="cls-1" d="M65.24,357v3.485H86.087V357Zm2.078,3.266h-1.7v-3.052h1.714Zm2.076,0H67.68v-3.052h1.714Zm2.071,0H69.751v-3.052h1.714Zm2.076,0H71.829v-3.052h1.714Zm2.073,0H73.9v-3.052h1.714Zm2.076,0H75.975v-3.052h1.714Zm2.076,0H78.051v-3.052h1.714Zm2.073,0H80.124v-3.052h1.714Zm2.073,0H82.2v-3.052h1.714Zm2.073,0H84.271v-3.052h1.714Z" transform="translate(-61.487 -293.09)"/>
    <path id="Path_223" data-name="Path 223" class="cls-1" d="M65.24,404.34v3.485H86.087V404.34Zm2.078,3.264h-1.7v-3.044h1.714Zm2.076,0H67.68v-3.044h1.714Zm2.071,0H69.751v-3.044h1.714Zm2.076,0H71.829v-3.044h1.714Zm2.073,0H73.9v-3.044h1.714Zm2.076,0H75.975v-3.044h1.714Zm2.076,0H78.051v-3.044h1.714Zm2.073,0H80.124v-3.044h1.714Zm2.073,0H82.2v-3.044h1.714Zm2.073,0H84.271v-3.044h1.714Z" transform="translate(-61.487 -330.29)"/>
    <path id="Path_224" data-name="Path 224" class="cls-1" d="M65.24,451.7v3.491H86.087V451.7Zm2.078,3.264h-1.7v-3.046h1.714Zm2.076,0H67.68v-3.046h1.714Zm2.071,0H69.751v-3.046h1.714Zm2.076,0H71.829v-3.046h1.714Zm2.073,0H73.9v-3.046h1.714Zm2.076,0H75.975v-3.046h1.714Zm2.076,0H78.051v-3.046h1.714Zm2.073,0H80.124v-3.046h1.714Zm2.073,0H82.2v-3.046h1.714Zm2.073,0H84.271v-3.046h1.714Z" transform="translate(-61.487 -367.506)"/>
    <path id="Path_225" data-name="Path 225" class="cls-1" d="M65.24,499.06v3.481H86.087V499.06Zm2.078,3.264h-1.7v-3.048h1.714Zm2.076,0H67.68v-3.048h1.714Zm2.071,0H69.751v-3.048h1.714Zm2.076,0H71.829v-3.048h1.714Zm2.073,0H73.9v-3.048h1.714Zm2.076,0H75.975v-3.048h1.714Zm2.076,0H78.051v-3.048h1.714Zm2.073,0H80.124v-3.048h1.714Zm2.073,0H82.2v-3.048h1.714Zm2.073,0H84.271v-3.048h1.714Z" transform="translate(-61.487 -404.722)"/>
    <path id="Path_226" data-name="Path 226" class="cls-1" d="M65.66,546.41c.084.328.178.656.276.979v-.76H67.65v3.046h-.917c.028.071.056.148.084.214h19.6V546.41Zm4.07,3.264H68.016v-3.046H69.73Zm2.071,0H70.087v-3.046H71.8Zm2.076,0H72.159v-3.046h1.714Zm2.073,0H74.236v-3.046H75.95Zm2.076,0H76.312v-3.046h1.714Zm2.076,0H78.387v-3.046H80.1Zm2.073,0H80.461v-3.046h1.714Zm2.073,0H82.534v-3.046h1.714Zm2.073,0H84.607v-3.046h1.714Z" transform="translate(-61.817 -441.93)"/>
    <path id="Path_227" data-name="Path 227" class="cls-1" d="M88.26,593.77c.054.069.1.146.161.214h1.133v1.463c.122.146.242.291.366.428v-1.9h1.714v3.057H90.94c.069.071.135.146.214.214h13.029V593.77Zm5.443,3.262H91.989v-3.044H93.7Zm2.076,0H94.065v-3.044h1.714Zm2.076,0H96.14v-3.044h1.714Zm2.073,0H98.214v-3.044h1.714Zm2.073,0h-1.714v-3.044H102Zm2.073,0H102.36v-3.044h1.714Z" transform="translate(-79.577 -479.146)"/>
    <path id="Path_228" data-name="Path 228" class="cls-1" d="M141.65,641.12c.195.111.394.214.6.326v-.107h1.714v.964l.364.169v-1.133h1.714v1.853a.537.537,0,0,0,.1.039v-2.11Z" transform="translate(-121.531 -516.354)"/>
    <path id="Path_229" data-name="Path 229" class="cls-1" d="M327.092,274.86ZM313.9,338.076Zm-13.766-32.165c.041.137.075.274.114.409h0C300.211,306.185,300.175,306.048,300.132,305.911Zm26.96-31.058ZM197.72,242.78v.915h9.568v-.915Zm116.178,95.3Zm-13.766-32.165c.041.137.075.274.114.409h0C300.211,306.185,300.175,306.048,300.132,305.911Zm26.96-31.058ZM313.9,338.07Zm-13.766-32.159c.041.137.075.274.114.409h0C300.211,306.185,300.175,306.048,300.132,305.911Z" transform="translate(-165.591 -203.335)"/>
    <path id="Path_230" data-name="Path 230" class="cls-3" d="M341.29,265.311s-.844-.118-.844-1.347a19.261,19.261,0,0,0-.6-3.526h0c0-.011-.523-4-1.244-4.633s-1.649-4.357-1.649-4.357a8.783,8.783,0,0,0-.482-2.455,20.851,20.851,0,0,1-1.405-3.018c-.645-1.519-3.333-2.57-3.333-2.57s-4.86-2.819-6.237-3.738h0a2.109,2.109,0,0,1-.349-.263c-.24-.315-1.285-.321-1.285-.321a21.047,21.047,0,0,1-.248-2.2,1.668,1.668,0,0,0-.011-.231,7.411,7.411,0,0,0,3.258-4.031c.026-.081.047-.167.071-.248a.7.7,0,0,0,.418-.377,7.851,7.851,0,0,1,.281-.857,3.225,3.225,0,0,1,.793-.7,3,3,0,0,0,.825-2.44c-.021-.718-.137-1.442-.092-2.155l.013-.18c.013-.107.028-.214.047-.317.1-.531.334-1.032.463-1.559a2.006,2.006,0,0,0-.159-1.574,2.736,2.736,0,0,0-2.157-.867c-.91-.077-1.724.024-2.307-.733a8.23,8.23,0,0,0-.917-1.107c-.12-.111-1.285-.823-1.285-.87a5.207,5.207,0,0,0-3.631-.278c-.6.176-1.174.463-1.786.606-1.322.313-2.842-.026-3.965.73a4.66,4.66,0,0,0-1.352,1.773q-.428.82-.87,1.639a10.612,10.612,0,0,0-1.154,2.8,4.447,4.447,0,0,0-.077.655h0v.349a1.149,1.149,0,0,0,.013.214c.013.066.011.088.017.133s.017.146.03.214.039.188.064.283c.011.041.026.079.039.118.021.073.047.143.075.214.015.036.03.075.047.111a2.013,2.013,0,0,0,.109.214c.017.03.03.058.047.086a2.844,2.844,0,0,0,.2.287c.458.572,1.133.936,1.632,1.471v.24a7.332,7.332,0,0,0,3.337,5.987c0,.081.011.165.015.246a12.249,12.249,0,0,1-.024,1.908.9.9,0,0,0-.711-.317,1.025,1.025,0,0,0-.274.024l-.019-.015h0v.019c-.471.116-1.052.606-1.606,2,0,0-1.688,1.9-2.973,1.823s-4.539,1.979-4.539,1.979-3.174,2.061-3.855,4.16a29.32,29.32,0,0,1-1.367,3.487l-3.924,8.086h0l-.724,6.415a29.773,29.773,0,0,1,.321,3.288,31.658,31.658,0,0,0,1.647,4.357s5.7,10.022,8.034,10.536l.167-.118a1.369,1.369,0,0,0,.315.118l.48-.338a5.233,5.233,0,0,1-.036,1.131,29.8,29.8,0,0,0,.681,8.713c.561,1.266.362,17.864.362,17.864l-.079,1.465a.621.621,0,0,0,.019.129l-.019.347.058.03a4.124,4.124,0,0,1-.058,1.394,15.5,15.5,0,0,0-.283,2.459s-1.6,10.256-.844,12.316,1.407,4.318,1.407,4.318.8,2.57.039,3.009-2.939,1.176-2.491,2.247c.407.99,1.951,3.641,2.18,4.029l-.019.2-.315,3.412a4.283,4.283,0,0,0,.362,1.3,2.244,2.244,0,0,0,2.29,1.431c.214-.015.463-.041.7-.073a30.361,30.361,0,0,0,5.2-1.354,2.122,2.122,0,0,1-.407-.336h0a1.176,1.176,0,0,1-.358-.857,25.086,25.086,0,0,0-1.418-4.31c-.045-.1-.069-.165-.069-.165s2.652-2.772,2.21-5.228c0,0-2.934-1.714-1.968-2.654a29.922,29.922,0,0,0,2.692-3.641s.079-10.1,0-11.607a12.489,12.489,0,0,1,.148-3.134c.032-.156.071-.308.111-.458a27.957,27.957,0,0,0,4.035.306c.493,0,.994,0,1.5-.03q0,.214.019.463c.111,2.5.319,6.888.488,8.518.24,2.337,1.566,8.634,1.566,8.634s-2.53,1.624.441,5.625a5.424,5.424,0,0,1-.2,1.66h0a18.157,18.157,0,0,0-.508,2.091,3.685,3.685,0,0,0,.026,1.913c.482.947,3.374.87,3.374.87h0l.071-.013a4.145,4.145,0,0,1,3.061.923c1.1.882,5.269.495,7.527.214.885-.111,1.476-.214,1.476-.214a.856.856,0,0,0,.03-.308h0c-.024-.555-.458-1.771-3.406-2.857,0,0-2.772-1.863-2.733-3.487h-.379a3.03,3.03,0,0,1,.383,0s-1.086-3.963-.643-4.284-.885-4.712-.885-4.712-.76-7.368-.8-7.884a4.5,4.5,0,0,1,.2-1.307l-.2-4.04s-.039-1.343,0-1.78a8.887,8.887,0,0,0-.092-1.133c-.019-.15-.038-.306-.06-.461,1.039-.263,1.714-.508,1.714-.508l-.12-14.062c.882-1.714,1.045-5.473,1.041-8.139,0-1.714-.077-2.982-.077-2.982l1.206-1.968s.278-2.356-.163-2.872a.494.494,0,0,1,.054-.675,2.246,2.246,0,0,1,.263-.18s-.013-.019-.028-.047a2.127,2.127,0,0,1,.268-.191s-.428-.664-.045-.945c.36.244.681.428.925.578-.017.156-.034.246-.034.246l.1-.214.379.214s1.889-3.763,1.849-4.318a12.594,12.594,0,0,1,1.285-2.892,2.893,2.893,0,0,1,.885-1.741c.724-.514.561-4.239.561-4.239a9.132,9.132,0,0,1,.683-2.733C342.211,266.38,341.29,265.311,341.29,265.311Zm-36.147-1.651.036.9-.368-.593Z" transform="translate(-242.522 -183.988)"/>
    <path id="Path_231" data-name="Path 231" class="cls-4" d="M468.507,493.05l-.463,1.971s-3.706-1.891-4.374-4.295a2.718,2.718,0,0,1,1.118-3.316l3.453,1.463Z" transform="translate(-374.46 -395.567)"/>
    <path id="Path_232" data-name="Path 232" class="cls-5" d="M468.507,493.05l-.463,1.971s-3.706-1.891-4.374-4.295a2.718,2.718,0,0,1,1.118-3.316l3.453,1.463Z" transform="translate(-374.46 -395.567)"/>
    <path id="Path_233" data-name="Path 233" class="cls-4" d="M358.954,798.223a26.628,26.628,0,0,1-5.783,1.418,2.2,2.2,0,0,1-2.247-1.422,4.305,4.305,0,0,1-.353-1.3l.306-3.395.163-1.808,5.006-1.3.709,2.168.066.165a25.1,25.1,0,0,1,1.392,4.284,1.17,1.17,0,0,0,.351.846A2.035,2.035,0,0,0,358.954,798.223Z" transform="translate(-285.702 -633.675)"/>
    <path id="Path_234" data-name="Path 234" class="cls-4" d="M442.56,795.672a.858.858,0,0,1-.03.306s-7.33,1.223-8.829,0a3.971,3.971,0,0,0-3.084-.9s-2.836.077-3.309-.857a3.718,3.718,0,0,1-.024-1.9,18.133,18.133,0,0,1,.5-2.08l.114-.09.675-.542,7.9-.234h.06c-.039,1.615,2.682,3.468,2.682,3.468C442.1,793.909,442.525,795.119,442.56,795.672Z" transform="translate(-345.899 -632.85)"/>
    <path id="Path_235" data-name="Path 235" class="cls-5" d="M442.564,806.476a.875.875,0,0,1-.032.306s-7.328,1.223-8.827,0a3.971,3.971,0,0,0-3.082-.9s-2.838.077-3.309-.857a3.715,3.715,0,0,1-.026-1.9c1.092.109,2.817.381,3.493,1.03a7.757,7.757,0,0,0,3.823,2.05C435.438,806.254,440.422,806.412,442.564,806.476Z" transform="translate(-345.903 -643.655)"/>
    <path id="Path_236" data-name="Path 236" class="cls-5" d="M360.258,825.64a26.625,26.625,0,0,1-5.783,1.418,2.195,2.195,0,0,1-2.245-1.424,4.655,4.655,0,0,0,2.718.319,24.245,24.245,0,0,1,4.926-.643A2.109,2.109,0,0,0,360.258,825.64Z" transform="translate(-287.006 -661.092)"/>
    <path id="Path_237" data-name="Path 237" class="cls-6" d="M392.545,305.852c-2.827-1.1-6.464-4.729-5.556-6.426a3.8,3.8,0,0,0,.353-1.362,12.433,12.433,0,0,0,.026-1.928,26.4,26.4,0,0,0-.379-3.136s8.827.2,8.313,1.5a4.861,4.861,0,0,0-.133,1.784c.041.741.148,1.579.259,2.288.154.972.308,1.714.308,1.714s-.54.756-.857.8S396.6,307.417,392.545,305.852Z" transform="translate(-314.209 -242.798)"/>
    <path id="Path_238" data-name="Path 238" class="cls-5" d="M357.914,792.753l-.066.073c-2.639-3.191-5.83.786-5.83.786l-.047-.083.163-1.808,5.006-1.3.709,2.168Z" transform="translate(-286.802 -633.675)"/>
    <path id="Path_239" data-name="Path 239" class="cls-5" d="M438.764,789.563a5.069,5.069,0,0,0-2.956.867c-1.028.908-6,.2-5.783,0a.7.7,0,0,0,.111-.326l.675-.542,7.9-.234C438.741,789.474,438.764,789.563,438.764,789.563Z" transform="translate(-348.133 -632.818)"/>
    <path id="Path_240" data-name="Path 240" class="cls-7" d="M353.2,657.89a5.961,5.961,0,0,0-.326,1.1,12.574,12.574,0,0,0-.148,3.119c.079,1.5,0,11.547,0,11.547a30.735,30.735,0,0,1-2.639,3.624c-.945.945,1.928,2.641,1.928,2.641.428,2.442-2.168,5.2-2.168,5.2-2.639-3.191-5.83.788-5.83.788s-1.735-3-2.168-4.07,1.694-1.812,2.442-2.247-.036-3-.036-3-.632-2.247-1.382-4.3.827-12.254.827-12.254a15.814,15.814,0,0,1,.276-2.444,4.088,4.088,0,0,0,.058-1.388c-.013-.156-.028-.287-.039-.375s-.019-.128-.019-.128l.03-.051,1.071-2S353.713,656.633,353.2,657.89Z" transform="translate(-278.804 -526.208)"/>
    <path id="Path_241" data-name="Path 241" class="cls-7" d="M430.271,690.4a5.113,5.113,0,0,0-2.956.857c-1.028.9-6,.2-5.783,0s.2-1.656.2-1.656c-2.915-3.98-.428-5.595-.428-5.595s-1.3-6.265-1.538-8.589c-.165-1.623-.368-5.987-.478-8.478-.047-1.071-.075-1.808-.075-1.808l2.382-.48.306-.062,5.745-1.152s.158,1.071.266,1.947a9.112,9.112,0,0,1,.09,1.129c-.039.428,0,1.769,0,1.769l.195,4.02a4.566,4.566,0,0,0-.195,1.3c.039.512.786,7.842.786,7.842s1.3,4.374.857,4.689S430.271,690.4,430.271,690.4Z" transform="translate(-339.64 -533.893)"/>
    <path id="Path_242" data-name="Path 242" class="cls-5" d="M395.823,294.5a4.86,4.86,0,0,0-.133,1.784,7.336,7.336,0,0,1-7.8-.146A26.4,26.4,0,0,0,387.51,293S396.337,293.195,395.823,294.5Z" transform="translate(-314.73 -242.798)"/>
    <path id="Path_243" data-name="Path 243" class="cls-6" d="M388.485,251.01a7.256,7.256,0,0,1-.36,2.273,7.33,7.33,0,0,1-14.3-2.1v-.176a7.329,7.329,0,1,1,14.658,0Z" transform="translate(-303.98 -204.042)"/>
    <path id="Path_244" data-name="Path 244" class="cls-5" d="M392.545,324.428c-2.827-1.1-6.464-4.729-5.556-6.426a3.8,3.8,0,0,0,.353-1.362l3.87,3.181,2.395,1.964,1.821-4.635c.154.972.308,1.714.308,1.714s-.54.756-.857.8S396.6,325.994,392.545,324.428Z" transform="translate(-314.209 -261.375)"/>
    <path id="Path_245" data-name="Path 245" class="cls-7" d="M345.573,278.606l-3.232,54.3-4.215.276L327.21,301.7,329,264.317l.377-7.9,4.854,3.986,2.4,1.964,1.874-4.77,3.485,3.037Z" transform="translate(-257.227 -201.495)"/>
    <path id="Path_246" data-name="Path 246" class="cls-5" d="M361.221,657.953a5.959,5.959,0,0,0-.326,1.1,31.059,31.059,0,0,1-8.838-2.761l-.058-.03.019-.345.011-.18,1.071-2S361.735,656.7,361.221,657.953Z" transform="translate(-286.826 -526.271)"/>
    <path id="Path_247" data-name="Path 247" class="cls-5" d="M421.594,671.178a21.679,21.679,0,0,1-2.369.27c-.047-1.071-.075-1.808-.075-1.808l2.382-.48Z" transform="translate(-339.592 -538.388)"/>
    <path id="Path_248" data-name="Path 248" class="cls-5" d="M437.71,665.437a16.629,16.629,0,0,1-5.98.563l-.03-1.358,5.745-1.152S437.6,664.55,437.71,665.437Z" transform="translate(-349.454 -533.932)"/>
    <path id="Path_249" data-name="Path 249" class="cls-5" d="M329.772,392.406c-8.782,1.5-16.825-2.8-16.825-2.8l.077-1.457s.2-16.512-.353-17.778A30.1,30.1,0,0,1,312,361.7c.313-.985-1.142-15.76-1.142-15.76l-.236-6L302,336.45l3.855-8.036a29.014,29.014,0,0,0,1.341-3.47c.67-2.086,3.783-4.136,3.783-4.136s3.191-2.048,4.453-1.971,2.915-1.812,2.915-1.812c1.221-3.112,2.326-1.7,2.326-1.7a2.781,2.781,0,0,1-.06.461c-.428,3.416,6.927,14.212,7.032,14.4h0l.7,17.063.709,21.593Z" transform="translate(-247.535 -260.089)"/>
    <path id="Path_250" data-name="Path 250" class="cls-4" d="M328.649,392.359c-8.782,1.5-16.827-2.8-16.827-2.8l.079-1.456s.2-16.512-.356-17.778a29.945,29.945,0,0,1-.668-8.67c.315-.985-1.142-15.76-1.142-15.76l-.238-6-8.628-3.506,3.855-8.036a29.449,29.449,0,0,0,1.341-3.47c.668-2.086,3.783-4.136,3.783-4.136s3.191-2.048,4.451-1.971,2.915-1.812,2.915-1.812c1.223-3.112,2.57-1.7,2.57-1.7,0,.148-.128.214-.06.46.942,3.314,6.691,14.212,6.8,14.4h0l.709,17.063.709,21.593Z" transform="translate(-246.647 -260.042)"/>
    <path id="Path_251" data-name="Path 251" class="cls-5" d="M389.83,332.431c-.945-.394-5.948-6.107-5.948-6.107v-1.3c-.182-.428-1.264-.167-2.142.133l.377-7.9.428.356C383.484,320.927,389.721,332.241,389.83,332.431Z" transform="translate(-310.195 -261.862)"/>
    <path id="Path_252" data-name="Path 252" class="cls-4" d="M390.932,330.221c-.947-.394-5.95-6.107-5.95-6.107v-1.3c-.182-.428-1.264-.167-2.142.133l.379-7.9.428.356C384.588,318.717,390.827,330.033,390.932,330.221Z" transform="translate(-311.06 -260.125)"/>
    <path id="Path_253" data-name="Path 253" class="cls-5" d="M351.342,516.58c.118,0,6.107-.63,6.107-.63s3.626,7.13,3.389,8.865-.668,3.271-2.127,3-7.85.214-7.85.214Z" transform="translate(-285.93 -417.994)"/>
    <path id="Path_254" data-name="Path 254" class="cls-4" d="M350.232,514.37c.118,0,6.107-.63,6.107-.63s3.624,7.133,3.389,8.865-.67,3.271-2.127,3-7.85.214-7.85.214Z" transform="translate(-285.057 -416.258)"/>
    <path id="Path_255" data-name="Path 255" class="cls-6" d="M361.055,501.05s5.5,2.954,5.614,3.856-2.8-.394-3.427-.551a7.846,7.846,0,0,0-1.262-.2l-4.2.114Z" transform="translate(-291.367 -406.286)"/>
    <circle id="Ellipse_27" data-name="Ellipse 27" class="cls-5" cx="0.578" cy="0.578" r="0.578" transform="translate(77.523 69.781)"/>
    <circle id="Ellipse_28" data-name="Ellipse 28" class="cls-8" cx="0.578" cy="0.578" r="0.578" transform="translate(77.523 69.545)"/>
    <circle id="Ellipse_29" data-name="Ellipse 29" class="cls-5" cx="0.578" cy="0.578" r="0.578" transform="translate(78.587 94.816)"/>
    <circle id="Ellipse_30" data-name="Ellipse 30" class="cls-8" cx="0.578" cy="0.578" r="0.578" transform="translate(78.587 94.578)"/>
    <circle id="Ellipse_31" data-name="Ellipse 31" class="cls-5" cx="0.578" cy="0.578" r="0.578" transform="translate(78.099 82.298)"/>
    <circle id="Ellipse_32" data-name="Ellipse 32" class="cls-8" cx="0.578" cy="0.578" r="0.578" transform="translate(78.099 82.063)"/>
    <path id="Path_256" data-name="Path 256" class="cls-4" d="M437.691,360.87s.394.591,0,.867.039.945.039.945-.983.576-.55,1.095.158,2.859.158,2.859l-1.182,1.958s.071,1.262.075,2.967c0,2.66-.156,6.4-1.022,8.105l.12,13.989a19.041,19.041,0,0,1-7.606,1.052l-.514-22.447s.75-12.729,1.026-15.171a25.43,25.43,0,0,0,.2-3.823,42.718,42.718,0,0,0-.514-5.595s-.428-7.683-.471-9.81c-.019-1.017.034-3.986.094-6.809.066-3.087.141-6,.141-6l-.782-6.186s.782-.079,1.017.236a2.252,2.252,0,0,0,.343.263h0c1.349.912,6.117,3.718,6.117,3.718s2.639,1.049,3.271,2.553a22.261,22.261,0,0,0,1.377,3,9.256,9.256,0,0,1,.473,2.442s.908,3.706,1.617,4.333,1.227,4.62,1.227,4.62l-6.265,4.926s-.55,8.195-.668,8.512S437.691,360.87,437.691,360.87Z" transform="translate(-345.683 -263.118)"/>
    <path id="Path_257" data-name="Path 257" class="cls-4" d="M437.874,360.62s.392.591,0,.867.036.945.036.945-.977.583-.548,1.1.159,2.859.159,2.859l-1.182,1.958s.071,1.262.077,2.967c0,2.66-.156,6.4-1.022,8.105l.118,13.989a19.073,19.073,0,0,1-7.608,1.052l-.512-22.447s.75-12.729,1.026-15.171a25.181,25.181,0,0,0,.195-3.823,42.982,42.982,0,0,0-.512-5.595s-.428-7.683-.473-9.81c-.019-1.017.036-3.986.094-6.809.066-3.087.141-6,.141-6l-1.032-6.269s1.032,0,1.27.319a2.034,2.034,0,0,0,.343.263h0c1.349.912,6.119,3.718,6.119,3.718s2.637,1.049,3.269,2.553a21.9,21.9,0,0,0,1.379,3,9.149,9.149,0,0,1,.471,2.442s.908,3.706,1.617,4.333,1.221,4.612,1.221,4.612l-6.265,4.926s-.55,8.2-.67,8.512S437.874,360.62,437.874,360.62Z" transform="translate(-345.627 -262.868)"/>
    <path id="Path_258" data-name="Path 258" class="cls-5" d="M431.243,328.349l.565,1.649-2.977,3c.066-3.084.141-6,.141-6l-1.032-6.269s1.032,0,1.27.319a1.952,1.952,0,0,0,.343.261h0l2.532,7.3Z" transform="translate(-346.5 -264.589)"/>
    <path id="Path_259" data-name="Path 259" class="cls-4" d="M430.133,326.139l.568,1.649-2.977,3c.066-3.087.141-6,.141-6l-1.035-6.269s1.035,0,1.27.319a2.142,2.142,0,0,0,.343.263h0l2.534,7.3Z" transform="translate(-345.628 -262.852)"/>
    <path id="Path_260" data-name="Path 260" class="cls-5" d="M388.485,251.01a7.256,7.256,0,0,1-.36,2.273.306.306,0,0,1-.231-.058,9.455,9.455,0,0,0-2.172-5.278,5.544,5.544,0,0,0-1.178-1.221,2.3,2.3,0,0,0-1.6-.452c-.643.088-1.21.525-1.859.58-.857.071-1.624-.523-2.474-.553a2.431,2.431,0,0,0-1.819.844,4.989,4.989,0,0,0-.975,1.808,10.577,10.577,0,0,0-.544,3.119c-.011.6-.069,1.352-.625,1.57a3.2,3.2,0,0,0-.808-2.444l-.013-.013v-.176a7.329,7.329,0,1,1,14.658,0Z" transform="translate(-303.98 -204.042)"/>
    <path id="Path_261" data-name="Path 261" class="cls-9" d="M375.98,221.809a5.046,5.046,0,0,0-3.56-.278c-.593.176-1.152.461-1.754.6-1.285.311-2.785-.026-3.888.726a4.65,4.65,0,0,0-1.324,1.763l-.857,1.632a10.592,10.592,0,0,0-1.133,2.785,3.555,3.555,0,0,0,.546,2.874c.454.576,1.125.938,1.617,1.48a3.213,3.213,0,0,1,.805,2.442c.559-.214.613-.968.625-1.568a10.576,10.576,0,0,1,.544-3.119,4.971,4.971,0,0,1,.975-1.808,2.436,2.436,0,0,1,1.818-.844c.857.03,1.626.621,2.474.55.643-.054,1.212-.493,1.859-.578a2.3,2.3,0,0,1,1.6.452,5.487,5.487,0,0,1,1.176,1.221,9.431,9.431,0,0,1,2.174,5.278c.242.178.591-.054.711-.328a7.823,7.823,0,0,1,.276-.857,3.157,3.157,0,0,1,.775-.69,3.032,3.032,0,0,0,.81-2.427,12.089,12.089,0,0,1-.03-2.639c.1-.531.328-1.028.452-1.553a2.031,2.031,0,0,0-.154-1.566,2.637,2.637,0,0,0-2.116-.857c-.893-.077-1.692.021-2.262-.73a8.2,8.2,0,0,0-.9-1.1C377.126,222.563,375.98,221.856,375.98,221.809Z" transform="translate(-295.767 -186.479)"/>
    <path id="Path_262" data-name="Path 262" class="cls-5" d="M302.707,419.268l-2.238-4.138-.709,6.385a29.594,29.594,0,0,1,.315,3.271,31.447,31.447,0,0,0,1.615,4.333s5.6,9.969,7.882,10.483l7.722-5.518-2.048-2.6s-.709-.276-.887,0c0,0-3.8-6.541-4.2-7.015a2.363,2.363,0,0,1-.317-1.418s-.591-.63-.394-1.221-1.142-2.641-1.142-2.641l1.221-1.142Z" transform="translate(-245.775 -338.769)"/>
    <path id="Path_263" data-name="Path 263" class="cls-4" d="M298.85,412.93l-.591.471-.709,6.385a29.6,29.6,0,0,1,.315,3.271,31.433,31.433,0,0,0,1.617,4.333s5.595,9.968,7.88,10.483l7.724-5.518-2.05-2.6s-.709-.276-.887,0c0,0-3.8-6.541-4.2-7.015a2.355,2.355,0,0,1-.315-1.418s-.591-.63-.394-1.221-1.144-2.641-1.144-2.641l1.221-1.142Z" transform="translate(-244.038 -337.04)"/>
    <path id="Path_264" data-name="Path 264" class="cls-5" d="M458.5,515.715c.428.521.158,2.857.158,2.857l-1.182,1.958s.071,1.264.075,2.967l-1.988.621a1.18,1.18,0,0,1-1.531-1.163l.343-11.054,4.637,1.773c-.394.274.039.947.039.947S458.063,515.194,458.5,515.715Z" transform="translate(-366.999 -414.812)"/>
    <path id="Path_265" data-name="Path 265" class="cls-4" d="M459.6,514.613c.428.52.159,2.859.159,2.859l-1.182,1.958s.071,1.262.077,2.967l-2.024.632a1.157,1.157,0,0,1-1.5-1.139l.345-11.089,4.639,1.774c-.4.274.036.945.036.945S459.17,514.094,459.6,514.613Z" transform="translate(-367.864 -413.947)"/>
    <path id="Path_266" data-name="Path 266" class="cls-6" d="M469.56,497.672s-.315,2.011-1.1,2.129-1.142,3.254-1.928,3.142-.266-2.915-.238-3.459-.857-2.8-.195-3.309,2.757,0,2.757,0Z" transform="translate(-376.29 -402.276)"/>
    <path id="Path_267" data-name="Path 267" class="cls-5" d="M468.27,420.689l1.486-3a19.469,19.469,0,0,1,.591,3.506c0,1.221.827,1.341.827,1.341s.906,1.071.428,1.851a8.982,8.982,0,0,0-.67,2.72s.156,3.7-.553,4.215a2.869,2.869,0,0,0-.857,1.735,12.563,12.563,0,0,0-1.262,2.877,28.574,28.574,0,0,1-1.812,4.295s.906-4.65-4.374-6.659c0,0-.041-1.579.353-2.011s1.009-.63.623-2.817a25.544,25.544,0,0,1-.111-5.325,33.535,33.535,0,0,1,1.182-3.8Z" transform="translate(-373.323 -340.781)"/>
    <path id="Path_268" data-name="Path 268" class="cls-4" d="M470.556,415.69l1.3.428a19.4,19.4,0,0,1,.593,3.506c0,1.221.827,1.341.827,1.341s.906,1.071.428,1.851a8.959,8.959,0,0,0-.668,2.72s.156,3.7-.553,4.215a2.908,2.908,0,0,0-.867,1.735,12.569,12.569,0,0,0-1.259,2.877,28.557,28.557,0,0,1-1.814,4.295s.908-4.65-4.374-6.659c0,0-.039-1.579.356-2.011s1.009-.63.623-2.817a25.543,25.543,0,0,1-.111-5.325,33.532,33.532,0,0,1,1.182-3.8Z" transform="translate(-374.966 -339.209)"/>
    <path id="Path_269" data-name="Path 269" class="cls-5" d="M360.15,775.993s2.069-1.3,3.427-.355S360.15,775.993,360.15,775.993Z" transform="translate(-293.23 -621.789)"/>
    <path id="Path_270" data-name="Path 270" class="cls-5" d="M435.21,759.748a4.189,4.189,0,0,1,3.369,1.42C440.117,762.823,435.21,759.748,435.21,759.748Z" transform="translate(-352.213 -609.563)"/>
    <g id="Group_19" data-name="Group 19" class="cls-10" transform="translate(67.613 39.556)">
      <path id="Path_271" data-name="Path 271" d="M392.682,257.527a3.178,3.178,0,0,0-.777.692,7.83,7.83,0,0,0-.274.857c-.12.278-.469.505-.711.33a9.471,9.471,0,0,0-2.174-5.28,5.49,5.49,0,0,0-1.176-1.221,2.3,2.3,0,0,0-1.6-.452c-.643.088-1.208.525-1.857.578-.857.073-1.626-.52-2.476-.55a2.425,2.425,0,0,0-1.816.846,4.961,4.961,0,0,0-.975,1.806,10.59,10.59,0,0,0-.544,3.119c-.013.6-.069,1.343-.621,1.566a2.924,2.924,0,0,1,0,.475c.557-.214.613-.968.625-1.568a10.577,10.577,0,0,1,.544-3.119,4.971,4.971,0,0,1,.975-1.808,2.431,2.431,0,0,1,1.816-.844c.857.03,1.628.621,2.476.55.643-.054,1.212-.493,1.857-.578a2.3,2.3,0,0,1,1.6.452,5.484,5.484,0,0,1,1.176,1.221,9.446,9.446,0,0,1,2.174,5.278c.242.178.591-.054.711-.328a8.306,8.306,0,0,1,.274-.857,3.169,3.169,0,0,1,.778-.69,3.032,3.032,0,0,0,.81-2.427v-.081A2.812,2.812,0,0,1,392.682,257.527Z" transform="translate(-374.618 -250.484)"/>
      <path id="Path_272" data-name="Path 272" d="M365.637,263.612c-.493-.542-1.165-.9-1.617-1.478a3.135,3.135,0,0,1-.623-1.754,3.3,3.3,0,0,0,.623,2.225c.452.576,1.124.938,1.617,1.48a3.213,3.213,0,0,1,.808,1.911A3.213,3.213,0,0,0,365.637,263.612Z" transform="translate(-363.385 -256.722)"/>
      <path id="Path_273" data-name="Path 273" d="M451.541,243.724c-.126.525-.351,1.024-.454,1.553a4.945,4.945,0,0,0-.066,1.071,4.163,4.163,0,0,1,.066-.608c.1-.531.328-1.028.454-1.553a2.636,2.636,0,0,0,.071-.887A2.977,2.977,0,0,1,451.541,243.724Z" transform="translate(-432.245 -243.3)"/>
    </g>
    <ellipse id="Ellipse_33" data-name="Ellipse 33" class="cls-1" cx="20.871" cy="3.352" rx="20.871" ry="3.352" transform="translate(7.456 156.21)"/>
    <rect id="Rectangle_88" data-name="Rectangle 88" class="cls-11" width="1.343" height="30.238" transform="translate(27.657 95.347)"/>
    <path id="Path_274" data-name="Path 274" class="cls-8" d="M155.666,636.982l-.084,1.362-.12,1.928-.049.8L155.3,643l-.051.8-.12,1.928-1.354,21.863a3.706,3.706,0,0,1-3.7,3.474h-7.038a3.7,3.7,0,0,1-3.695-3.474l-1.347-21.878-.12-1.928-.049-.8-.12-1.928-.049-.8-.12-1.928-.086-1.362a1.928,1.928,0,0,1,1.928-2.037h14.4a1.915,1.915,0,0,1,1.893,2.052Z" transform="translate(-118.227 -511.49)"/>
    <path id="Path_275" data-name="Path 275" class="cls-12" d="M108.636,592.24l-.12,1.921H90.7l-.12-1.921Z" transform="translate(-71.281 -465.385)"/>
    <path id="Path_276" data-name="Path 276" class="cls-12" d="M109.088,604.95l-.118,1.923H91.49l-.12-1.923Z" transform="translate(-71.902 -475.373)"/>
    <path id="Path_277" data-name="Path 277" class="cls-12" d="M109.54,617.68l-.118,1.921H92.28l-.12-1.921Z" transform="translate(-72.523 -485.376)"/>
    <path id="Path_278" data-name="Path 278" class="cls-7" d="M64.992,534.74A34.918,34.918,0,0,1,76.077,549.25a34.85,34.85,0,0,1-17.247-5.982A34.865,34.865,0,0,1,47.75,528.76,34.826,34.826,0,0,1,64.992,534.74Z" transform="translate(-47.744 -428.06)"/>
    <path id="Path_279" data-name="Path 279" class="cls-13" d="M47.72,528.76s9.784,5.43,12.922,9.926S76.053,549.25,76.053,549.25" transform="translate(-47.72 -428.06)"/>
    <path id="Path_280" data-name="Path 280" class="cls-7" d="M117.386,491.516a19.017,19.017,0,0,1,6.036,7.9A17.238,17.238,0,0,1,108,488.26,18.965,18.965,0,0,1,117.386,491.516Z" transform="translate(-95.088 -396.235)"/>
    <path id="Path_281" data-name="Path 281" class="cls-13" d="M108,488.26s5.325,2.956,7.032,5.4,8.39,5.749,8.39,5.749" transform="translate(-95.088 -396.235)"/>
    <path id="Path_282" data-name="Path 282" class="cls-7" d="M187.115,513.248a26.231,26.231,0,0,0-5.925,12.4A23.841,23.841,0,0,0,198.9,506.18,26.253,26.253,0,0,0,187.115,513.248Z" transform="translate(-152.602 -410.317)"/>
    <path id="Path_283" data-name="Path 283" class="cls-13" d="M198.9,506.19s-6.37,5.509-7.989,9.3-9.72,10.159-9.72,10.159" transform="translate(-152.602 -410.325)"/>
    <path id="Path_284" data-name="Path 284" class="cls-14" d="M870.543,320.808s-3.536-17.594-2.183-19.783c0,0,.049-2.035-.032-4.629v-.3a6.59,6.59,0,0,0,.743.428,6.015,6.015,0,0,0,4.048.523l-1.071-1.193a1.977,1.977,0,0,1-.58-.97,2.032,2.032,0,0,1,.231-1.05c1.017-2.57,1.071-5.8-.889-7.764-1.656-1.649-2.058-3.778-3.855-5.284a11.136,11.136,0,0,1-2.716-4.284,24.091,24.091,0,0,1-1.487-4.055c-.257-1.095-.36-2.228-.713-3.3a4.2,4.2,0,0,0-2.05-2.585,7.742,7.742,0,0,1-1.114-.49,4.81,4.81,0,0,1-1.026-1.206c-1.622-2.142-7.051-.88-9.622-.011a5.413,5.413,0,0,0-1.9,1.054l.024-.039c.019-.032.043-.064.064-.1a3.381,3.381,0,0,0-.72.8,19.245,19.245,0,0,0-.844,1.928c-.377.76-2.474,2.883-1.572,3.738a.76.76,0,0,0,.214.137,1.853,1.853,0,0,0,1.071.107l-.039.092a6.261,6.261,0,0,0-.465,2.375,6.429,6.429,0,0,0,6.486,6.372,6.548,6.548,0,0,0,1.986-.306c.015.081.028.163.043.244a.753.753,0,0,0,.015.1h0l-.113.158a.213.213,0,0,0-.019-.028l-3.363,4.7c-.514.362-3.474,2.5-3.641,4.11-.176,1.759-.351,3.817-.351,3.817l-.024.441a1.324,1.324,0,0,1-1.071.289c-1.05-.171-1.05,3.855-1.05,3.855s-.7.643-1.178.086-1.748,1.33-1.748,1.33l-7.947.343h0l-.182.011-.428-1.326a.559.559,0,0,0-.7-.358.652.652,0,0,0-.1.041l-.03.017-.056.039-.028.026a.426.426,0,0,0-.043.045l-.026.03-.013.013h0a.539.539,0,0,0-.077.48l.368,1.137c-1.534.308-3.1,1.178-1.823,3.573L822.47,303l2.1,1.761,10.825,2.234c-.144.257-.049.63.4,1.154,1.928,2.264,5.44,2.879,6.854,3.037a12.174,12.174,0,0,0,1.39,2.356l-.122,2.255s-3.579,17.191-4.235,18.063a10.2,10.2,0,0,0,.906-1.193c-1.039,3.532-2.491,8.366-2.872,9.09-.613,1.157-1.18,5.837-.482,6.137a5.874,5.874,0,0,0,1.7-.019v.388l-.039,14.691s.176,9.011-.306,9.87a8.4,8.4,0,0,0-.61,2.66,26.111,26.111,0,0,1-3.455,4.982.228.228,0,0,1-.034.03l-.047-.334a7.288,7.288,0,0,1-5.9,2.187s-2.444,1.589,1.18,1.675,8.253-.128,8.253-.128,3.232-4.926,5.94-4.284v3.733h.829V379.55a3.4,3.4,0,0,0,1.476-2.234,2.716,2.716,0,0,0-.968-2.512,1.606,1.606,0,0,1-.529-1.174l-.03.026a2.271,2.271,0,0,0-.028-.231c-.238-1.928-.536-5.905.516-8.848,1.442-4.035,1.878-9.656.829-13a29.893,29.893,0,0,1-.833-3.258c-.026-.139-.049-.272-.071-.4a16.889,16.889,0,0,1,2.127.428c2.431.67,7.749.795,12.29.758.011.124.024.255.039.386a14.032,14.032,0,0,0,.506,2.682c.57,1.714.831,9.268.831,9.268s.735,6.212.334,8.739c-.214,1.405-.428,2.817-.55,4.235v.028s-1.2,3.427-2.084,5.288c-.021.047-.045.094-.066.139a2.785,2.785,0,0,0-.687.152s-1.18,2.356-2.356,2.746-.786,1.673,1.876,1.2,6.683-.857,6.683-.857l.174-2.4.818-1.024-.214,2.4.872-.171L865.581,379l1.339-1.675s1.617-1.439-.786-4.271v.062c-.026-.041-.049-.084-.077-.124v-.013c-.4-.617-.715-1.767-.135-3.808,1.05-3.688,1.66-7.036,1.66-7.036s2.343-8.968-.473-13.211h.124a7.141,7.141,0,0,1-.606-1.885q-.021-.116-.038-.238a15.455,15.455,0,0,0,5.8-1.311C872.379,345.479,871.374,324.2,870.543,320.808Zm-26.459-14.844v.043l-.428.021Zm-1.469.2a.473.473,0,0,0-.193.092,1.9,1.9,0,0,0-.336.88l-.668-.15s-.469-.1-1.144-.214l-.319-.321C840.833,306.382,841.745,306.275,842.615,306.168Z" transform="translate(-656.524 -219.768)"/>
    <path id="Path_285" data-name="Path 285" class="cls-15" d="M971.575,741.958l-.255,3.035.855-.171-.129-3.292Z" transform="translate(-763.373 -582.699)"/>
    <path id="Path_286" data-name="Path 286" class="cls-16" d="M885.967,668.22c-1.03,2.934-.739,6.895-.508,8.818.086.711.165,1.144.165,1.144s-1.54,3.508-1.669,3.641-4.532,2.821-4.532,2.821l-3.078,1.8s-3.123-1.369-1.626-1.84a2.273,2.273,0,0,0,.808-.55,25.852,25.852,0,0,0,3.382-4.965,8.539,8.539,0,0,1,.6-2.652c.471-.855.3-9.836.3-9.836l.036-14.64V650.05l5.858.043a13.268,13.268,0,0,0,.253,1.928,29.45,29.45,0,0,0,.816,3.247C887.8,658.607,887.376,664.2,885.967,668.22Z" transform="translate(-697.263 -523.371)"/>
    <path id="Path_287" data-name="Path 287" class="cls-5" d="M885.624,777.209s-1.54,3.508-1.669,3.641-4.532,2.821-4.532,2.821l-3.078,1.8s-3.123-1.369-1.626-1.84a2.271,2.271,0,0,0,.808-.551l.133.936,1.026-.043,8.782-7.9C885.545,776.777,885.624,777.209,885.624,777.209Z" transform="translate(-697.263 -622.398)"/>
    <path id="Path_288" data-name="Path 288" class="cls-15" d="M865.556,777l-8.831,7.955L855.7,785l-.214-1.5a7.091,7.091,0,0,1-5.783,2.181s-2.395,1.583,1.155,1.669,8.081-.129,8.081-.129,3.166-4.926,5.815-4.284v3.721h.814V782.9a3.382,3.382,0,0,0,1.444-2.228,2.729,2.729,0,0,0-.945-2.5A1.613,1.613,0,0,1,865.556,777Z" transform="translate(-677.303 -623.129)"/>
    <path id="Path_289" data-name="Path 289" class="cls-16" d="M994.369,672.21c-.57,2.035-.259,3.181.131,3.8v.013a7.013,7.013,0,0,1,1.024,2.5l.034.193-4.018,5.858-2.181.857s-3.506-1.2-2.866-1.54a3.281,3.281,0,0,0,.7-1.144c.857-1.853,2.039-5.271,2.039-5.271v-.028c.124-1.412.321-2.819.54-4.22.392-2.521-.328-8.709-.328-8.709s-.257-7.525-.814-9.236a14.116,14.116,0,0,1-.5-2.665c-.116-1.071-.141-1.953-.141-1.953s2.309-3.213,6.541.257a4.652,4.652,0,0,1,.885.96c2.924,4.16.57,13.323.57,13.323S995.4,668.532,994.369,672.21Z" transform="translate(-785.354 -522.786)"/>
    <path id="Path_290" data-name="Path 290" class="cls-5" d="M995.588,776.477l-4.018,5.858-2.18.857s-3.506-1.2-2.866-1.54a3.283,3.283,0,0,0,.7-1.144,2.771,2.771,0,0,1,2.253,1.4l1.881-.3s2.48-4.875,3.037-5.173.086-2.225.086-2.225v-.49c.015.017.028.036.045.053v.013a7.012,7.012,0,0,1,1.024,2.5Z" transform="translate(-785.377 -620.552)"/>
    <path id="Path_291" data-name="Path 291" class="cls-15" d="M979,782.491a2.618,2.618,0,0,0-3.123-1.24s-1.154,2.356-2.309,2.737-.769,1.666,1.84,1.2,6.542-.857,6.542-.857l.171-2.4,2.652-3.378s1.581-1.433-.771-4.254v.49s.471,1.928-.086,2.226-3.029,5.175-3.029,5.175Z" transform="translate(-774.772 -621.008)"/>
    <path id="Path_292" data-name="Path 292" class="cls-5" d="M906,650.073a13.273,13.273,0,0,0,.253,1.928,26.874,26.874,0,0,0-6.117-.062V650.03Z" transform="translate(-717.558 -523.355)"/>
    <path id="Path_293" data-name="Path 293" class="cls-5" d="M1001.455,652.4s-3.427.167-7.514.2c-.116-1.071-.141-1.953-.141-1.953s2.309-3.213,6.542.257a4.657,4.657,0,0,1,.885.96A5.221,5.221,0,0,0,1001.455,652.4Z" transform="translate(-791.157 -522.778)"/>
    <path id="Path_294" data-name="Path 294" class="cls-15" d="M920.6,514.37s-15.011.726-19.586-.557-9.11-.171-9.793-.469-.128-4.961.471-6.115,3.89-12.83,3.89-12.83l3.166-16.506,3.335-.919.236-.066,5.811-1.6,4.258-1.176s8.467,33.056,7.741,35.494a6.241,6.241,0,0,0-.124,2.868A7.158,7.158,0,0,0,920.6,514.37Z" transform="translate(-710.305 -385.132)"/>
    <path id="Path_295" data-name="Path 295" class="cls-17" d="M870.211,439s-3,3.213-.728,5,3.763.171,3.763.171Z" transform="translate(-692.8 -357.526)"/>
    <path id="Path_296" data-name="Path 296" class="cls-5" d="M870.211,439s-3,3.213-.728,5,3.763.171,3.763.171Z" transform="translate(-692.8 -357.526)"/>
    <path id="Path_297" data-name="Path 297" class="cls-16" d="M965.575,318.895s-.351.334-.88.827c-.754.7-1.87,1.735-2.859,2.6-1.371,1.193-2.5,2.069-2.1,1.322a5.775,5.775,0,0,0,.126-3.269c-.015-.081-.028-.163-.043-.242a22.462,22.462,0,0,0-.662-2.647,45.82,45.82,0,0,1,3.44-3.99c.456-.428.775-.6.795-.306a9.95,9.95,0,0,0,.694,2.223c.011.03.021.058.034.088.249.643.529,1.3.775,1.872C965.275,318.243,965.575,318.895,965.575,318.895Z" transform="translate(-763.937 -258.544)"/>
    <path id="Path_298" data-name="Path 298" class="cls-5" d="M964.123,315.507a6.357,6.357,0,0,1-4.258,4.875,22.309,22.309,0,0,0-.7-2.889s4.17-5.387,4.234-4.3A10.192,10.192,0,0,0,964.123,315.507Z" transform="translate(-763.937 -258.554)"/>
    <path id="Path_299" data-name="Path 299" class="cls-5" d="M931.089,351.21l.54-.76s.358,2.18,1.673,1.219,1.379,7.238,1.379,7.238l-1.412,21.1-10.2-.61.289-10.2,1.154-5.141,2.855-7.473,1.7-2.47Z" transform="translate(-735.577 -287.943)"/>
    <path id="Path_300" data-name="Path 300" class="cls-15" d="M934.705,359.477l-1.285,19.082-.135,2.022-5.687-.341-.214-.013-4.284-.257.289-10.2,1.154-5.141,2.855-7.473,1.7-2.47,2.022-2.919.54-.758s.358,2.18,1.673,1.219l.028-.019h0C934.645,351.4,934.705,359.477,934.705,359.477Z" transform="translate(-735.6 -288.383)"/>
    <path id="Path_301" data-name="Path 301" class="cls-4" d="M882.018,406.26a1.561,1.561,0,0,1-1.54.9c-1.028-.174-1.026,3.855-1.026,3.855s-.683.643-1.155.086-1.714,1.326-1.714,1.326l-7.784.343s3.464,1.583,2.784,6.372c0,0,11.759-.728,12.145-1.84S882.018,406.26,882.018,406.26Z" transform="translate(-692.931 -331.799)"/>
    <path id="Path_302" data-name="Path 302" class="cls-18" d="M882.018,406.26a1.561,1.561,0,0,1-1.54.9c-1.028-.174-1.026,3.855-1.026,3.855s-.683.643-1.155.086-1.714,1.326-1.714,1.326l-7.784.343s3.464,1.583,2.784,6.372c0,0,11.759-.728,12.145-1.84S882.018,406.26,882.018,406.26Z" transform="translate(-692.931 -331.799)"/>
    <path id="Path_303" data-name="Path 303" class="cls-4" d="M777.66,389.76l2.052,1.752,16.891,3.549-2.095-2.138Z" transform="translate(-611.194 -306.275)"/>
    <path id="Path_304" data-name="Path 304" class="cls-4" d="M915.8,349.8a43.212,43.212,0,0,0-1.754,4.537c-.559,1.6-1.026,3-1.026,3s-1.09,7.1-1.647,8.381-.255,6.286-.255,6.286l-2.076,12.357a61.628,61.628,0,0,1-2.393,10.178,18.538,18.538,0,0,1-3.078,5.558c.642-.87,4.145-17.992,4.145-17.992l1.157-21.595s.169-2.052.341-3.806,3.641-4.149,3.641-4.149L916.2,347.8C916.535,348.25,916.31,349.034,915.8,349.8Z" transform="translate(-720.253 -285.861)"/>
    <path id="Path_305" data-name="Path 305" class="cls-16" d="M891.455,469.342s-4.926-.214-7.312-3.08,5.515-1.144,5.515-1.144l2.054.471Z" transform="translate(-704.635 -377.647)"/>
    <path id="Path_306" data-name="Path 306" class="cls-5" d="M961.136,417.14a6.242,6.242,0,0,0-.124,2.868,40.828,40.828,0,0,1-11.123-1.071A24.991,24.991,0,0,1,946,421.374l-1.538-19.063c-.983-2.57-1.369-16.037-1.369-16.037s.088-.7.214-1.761a.2.2,0,0,1,.011-.079c.383-2.949,1.144-8.486,1.517-9.234.514-1.028-1.581-3.763-1.581-3.763l.953-8.129.116-.981c2.009-.9,3.549-3.763,3.549-3.763l1.182-2.071h0c1.285-.825,1.352,7.257,1.352,7.257l-1.285,19.082,4.258-1.176S961.862,414.7,961.136,417.14Z" transform="translate(-751.308 -292.645)"/>
    <path id="Path_307" data-name="Path 307" class="cls-4" d="M967.594,399.728c-5.858,2.909-16.506.214-16.506.214a24.983,24.983,0,0,1-3.892,2.438l-1.54-19.063c-.981-2.57-1.366-16.037-1.366-16.037s1.238-10.048,1.752-11.074a1.65,1.65,0,0,0-.1-1.225,15.5,15.5,0,0,1-.938-7.173l.411-3.493.114-.979c2.011-.9,3.551-3.766,3.551-3.766l1.071-1.876,1.971-3.457.934-1.636.158.143,1.21,1.1,1.285,1.071c1.677,1.414,4.575,3.9,6.07,5.425,1.315,1.341,1.731,6.556,1.851,10.483.079,2.585.032,4.612.032,4.612-1.326,2.183,2.142,19.706,2.142,19.706C966.611,378.523,967.594,399.728,967.594,399.728Z" transform="translate(-752.252 -273.916)"/>
    <path id="Path_308" data-name="Path 308" class="cls-18" d="M934.459,363.832s-4.02,7.653-3.553,10.562,1.795,6.2,1.154,6.97a2.367,2.367,0,0,1-1.883.94,6.189,6.189,0,0,0-2.356,1.369,22.315,22.315,0,0,0-3,.728,18.669,18.669,0,0,1-3.506.94s-4.07-.129-4.449.257-.769,2.692.043,4.532,1.714,3.213,2.395,3.463,5-1.2,8.51-1.54,7.313-3.121,7.313-3.121,4.192-1.5,4.926-4.02-.9-16.377-.9-16.377S937.922,362.077,934.459,363.832Z" transform="translate(-730.361 -298.221)"/>
    <path id="Path_309" data-name="Path 309" class="cls-18" d="M932.081,360.834s-4.02,7.655-3.549,10.562,1.795,6.2,1.152,6.972a2.356,2.356,0,0,1-1.881.94,6.19,6.19,0,0,0-2.356,1.369,22.51,22.51,0,0,0-3,.726,18.853,18.853,0,0,1-3.506.94s-4.07-.129-4.447.257-.771,2.695.043,4.532,1.714,3.213,2.395,3.464,5-1.2,8.51-1.538,7.313-3.123,7.313-3.123,4.19-1.5,4.916-4.018-.9-16.379-.9-16.379S935.545,359.082,932.081,360.834Z" transform="translate(-728.498 -295.866)"/>
    <path id="Path_310" data-name="Path 310" class="cls-4" d="M933.884,362.043s-4.021,7.655-3.549,10.562,1.795,6.2,1.155,6.97a2.356,2.356,0,0,1-1.883.942,6.218,6.218,0,0,0-2.356,1.367,22.04,22.04,0,0,0-3,.728,18.713,18.713,0,0,1-3.506.94s-4.07-.129-4.449.257-.769,2.695.043,4.532,1.713,3.213,2.395,3.464,5-1.2,8.51-1.54,7.313-3.121,7.313-3.121,4.192-1.5,4.927-4.02-.887-16.377-.887-16.377S937.346,360.3,933.884,362.043Z" transform="translate(-729.913 -296.817)"/>
    <path id="Path_311" data-name="Path 311" class="cls-5" d="M991.038,458.3s-3.213-.643-2.095.428,1.112,2.009,2.48,1.966S991.038,458.3,991.038,458.3Z" transform="translate(-787.155 -372.541)"/>
    <path id="Path_312" data-name="Path 312" class="cls-5" d="M1023.548,566.58s-1.452.983,1.326,3.249S1023.548,566.58,1023.548,566.58Z" transform="translate(-814.235 -457.78)"/>
    <path id="Path_313" data-name="Path 313" class="cls-5" d="M1011.771,604.31c0,.128-.514,4.712,1.409,5.858S1011.771,604.31,1011.771,604.31Z" transform="translate(-805.23 -487.428)"/>
    <path id="Path_314" data-name="Path 314" class="cls-16" d="M856.027,436.59c-1.551.054-4.9.527-3.164,3.768,1.536,2.868,4.117.951,5.569-.5A5.472,5.472,0,0,0,856.027,436.59Z" transform="translate(-680.025 -355.632)"/>
    <path id="Path_315" data-name="Path 315" class="cls-16" d="M881.39,451Z" transform="translate(-702.824 -366.956)"/>
    <path id="Path_316" data-name="Path 316" class="cls-16" d="M880.74,451.466l.064-.066Z" transform="translate(-702.313 -367.27)"/>
    <path id="Path_317" data-name="Path 317" class="cls-5" d="M959.834,335.505c-1.645,1.125-3.024,2.073-3.294,2.27-.737.546-2.142,3.753-3.048,5.389-.722,1.317-3.067,1.656-3.952,1.739l.114-.979c2.011-.9,3.551-3.765,3.551-3.765l3.975-6.97,1.369,1.245Z" transform="translate(-756.377 -274.38)"/>
    <path id="Path_318" data-name="Path 318" class="cls-19" d="M959.834,334.905c-1.645,1.125-3.024,2.073-3.294,2.273-.737.544-2.142,3.751-3.048,5.387-.722,1.317-3.067,1.656-3.952,1.739l.114-.979c2.011-.9,3.551-3.766,3.551-3.766l3.975-6.97,1.369,1.24S959.063,334.254,959.834,334.905Z" transform="translate(-756.377 -273.908)"/>
    <path id="Path_319" data-name="Path 319" class="cls-16" d="M936.2,294.615a6.353,6.353,0,1,1-5.4-6.28,6.341,6.341,0,0,1,5.4,6.28Z" transform="translate(-735.911 -239.076)"/>
    <path id="Path_320" data-name="Path 320" class="cls-5" d="M948.982,315.98a5.647,5.647,0,0,1-2.05-2.2,5.8,5.8,0,0,0-1.206-2.024,5.356,5.356,0,0,0-1.971-.76,5.776,5.776,0,0,1-4.213-5.07,30.075,30.075,0,0,0,.154-3.3,3.657,3.657,0,0,0-.715-1.7,5.858,5.858,0,0,0-.619-.666c-.3-.283-.615-.557-.889-.857a3.327,3.327,0,0,1-.45-.61,2.936,2.936,0,0,1-.246-.568c-.428-1.311-.039-2.866-.51-4.192l-.026-.073a1.364,1.364,0,0,0-1.043-.979c-.5-.036-.934.381-1.414.568-1,.39-2.088-.274-2.926-.951s-1.782-1.45-2.847-1.3a9.2,9.2,0,0,0-1.911.829,2.676,2.676,0,0,1-.452.131,6.351,6.351,0,0,1,12.245,2.367,6.278,6.278,0,0,1-.139,1.326c.011.03.021.058.034.088.249.643.529,1.3.775,1.872l1.21,1.1,1.285,1.071c1.677,1.414,4.575,3.9,6.07,5.425C948.447,306.841,948.858,312.054,948.982,315.98Z" transform="translate(-737.604 -239.075)"/>
    <path id="Path_321" data-name="Path 321" class="cls-20" d="M920.96,270.322c.306-.623.458-1.322.825-1.913a4.558,4.558,0,0,1,2.44-1.737c2.517-.867,7.835-2.127,9.424,0a4.638,4.638,0,0,0,1,1.2,7.454,7.454,0,0,0,1.09.491,4.166,4.166,0,0,1,2,2.57c.345,1.058.448,2.193.7,3.284a24.147,24.147,0,0,0,1.457,4.042,11.13,11.13,0,0,0,2.658,4.267c1.754,1.5,2.142,3.622,3.77,5.267,1.928,1.953,1.866,5.177.872,7.737a2.123,2.123,0,0,0-.227,1.045,2.05,2.05,0,0,0,.568.968l1.054,1.189a5.926,5.926,0,0,1-6.475-2.986,5.789,5.789,0,0,0-1.208-2.024,5.343,5.343,0,0,0-1.969-.758,5.784,5.784,0,0,1-4.213-5.074,29.938,29.938,0,0,0,.154-3.3,3.641,3.641,0,0,0-.717-1.714c-.589-.769-1.478-1.285-1.958-2.142-.812-1.433-.195-3.294-.78-4.832a1.367,1.367,0,0,0-1.043-.979c-.5-.036-.934.381-1.416.568-1,.39-2.086-.272-2.924-.951s-1.782-1.45-2.849-1.3a8.954,8.954,0,0,0-1.908.829c-.48.184-1.452.349-1.872-.056C918.536,273.2,920.59,271.084,920.96,270.322Z" transform="translate(-732.537 -221.191)"/>
    <path id="Path_322" data-name="Path 322" class="cls-5" d="M942.551,302.681a5.794,5.794,0,0,0-1.208-2.022,5.344,5.344,0,0,0-1.971-.76,5.785,5.785,0,0,1-4.213-5.072,30.517,30.517,0,0,0,.156-3.3,3.662,3.662,0,0,0-.718-1.7c-.591-.769-1.48-1.285-1.958-2.142-.812-1.431-.195-3.292-.782-4.832a1.371,1.371,0,0,0-1.041-.979c-.5-.039-.936.383-1.416.57-1,.39-2.088-.274-2.924-.951s-1.784-1.45-2.849-1.3a9.13,9.13,0,0,0-1.909.829c-.48.184-1.454.351-1.874-.054-.883-.857,1.172-2.967,1.54-3.725a20.484,20.484,0,0,1,.827-1.913c.019-.032.041-.064.062-.1a3.4,3.4,0,0,0-.7.8c-.366.591-.518,1.285-.825,1.913-.37.758-2.425,2.874-1.54,3.725.428.407,1.392.24,1.872.056a8.814,8.814,0,0,1,1.908-.829c1.071-.152,2.013.621,2.849,1.3s1.928,1.341,2.926.951c.48-.186.9-.606,1.414-.568a1.364,1.364,0,0,1,1.043.979c.585,1.538-.032,3.4.78,4.832.48.842,1.369,1.369,1.958,2.142a3.641,3.641,0,0,1,.718,1.714,29.939,29.939,0,0,1-.154,3.3,5.775,5.775,0,0,0,4.213,5.074,5.372,5.372,0,0,1,1.968.758,5.664,5.664,0,0,1,1.208,2.024,5.926,5.926,0,0,0,6.475,2.986l-.5-.561A5.99,5.99,0,0,1,942.551,302.681Z" transform="translate(-732.368 -228.835)"/>
    <path id="Path_323" data-name="Path 323" class="cls-5" d="M949.232,350.324a43.2,43.2,0,0,0-1.754,4.537c-.628-.244-1.2-1.8-1.2-1.8l3.346-4.759C949.968,348.771,949.744,349.553,949.232,350.324Z" transform="translate(-753.815 -286.253)"/>
    <path id="Path_324" data-name="Path 324" class="cls-19" d="M949.832,349.732a43.206,43.206,0,0,0-1.754,4.537c-.627-.242-1.2-1.8-1.2-1.8l3.346-4.757C950.568,348.179,950.344,348.963,949.832,349.732Z" transform="translate(-754.287 -285.79)"/>
    <path id="Path_325" data-name="Path 325" class="cls-21" d="M862.939,435.235l-1.855-5.85a.546.546,0,0,1,.356-.687h0a.548.548,0,0,1,.685.356l1.855,5.843-.184,1.223Z" transform="translate(-686.847 -349.411)"/>
    <path id="Path_326" data-name="Path 326" class="cls-22" d="M861.583,428.9h0a.548.548,0,0,1,.688.356l1.855,5.843-.139.917.135.141.184-1.223-1.866-5.843a.548.548,0,0,0-.685-.356h0a.548.548,0,0,0-.285.214A.746.746,0,0,1,861.583,428.9Z" transform="translate(-687.171 -349.443)"/>
    <path id="Path_327" data-name="Path 327" class="cls-23" d="M822.6,399.47l1.041-.33-.152,1-.032.221-.3-.317Z" transform="translate(-646.508 -313.646)"/>
    <path id="Path_328" data-name="Path 328" class="cls-24" d="M872.42,461.742a.213.213,0,0,1,.066-.056.094.094,0,0,1,.1,0,.263.263,0,0,1,.036.058.184.184,0,0,0,.133.088l-.032.214Z" transform="translate(-695.776 -375.342)"/>
    <path id="Path_329" data-name="Path 329" class="cls-16" d="M861.13,441.7s3.721-.021,2.845,1.562a3.346,3.346,0,0,1-2.245,1.773Z" transform="translate(-686.904 -359.648)"/>
    <path id="Path_330" data-name="Path 330" class="cls-25" d="M573.535,110.05h-.161a18.321,18.321,0,0,0-15.3,8.373,18.32,18.32,0,0,0-15.3-8.373h-.161a18.206,18.206,0,0,0-18.033,18.2c0,5.957,2.609,14.409,7.7,21.364,9.692,13.252,25.793,24.846,25.793,24.846s16.1-11.592,25.791-24.846c5.089-6.955,7.7-15.407,7.7-21.364a18.207,18.207,0,0,0-18.031-18.2Zm-2.3,40.579a3.609,3.609,0,0,1-3.356-2.318h-3.821a1.208,1.208,0,0,1-1.137-.822l-1.174-3.536-3.714,12.978a1.2,1.2,0,0,1-1.152.867h-.075a1.187,1.187,0,0,1-1.114-.994l-3.828-23.021-2.8,13.623a1.193,1.193,0,0,1-1.159.906h-5.383a1.2,1.2,0,1,1,0-2.393h4.44l3.962-18.316a1.2,1.2,0,0,1,2.356.1l3.909,23.484,3.329-11.611a1.178,1.178,0,0,1,1.12-.857h.023a1.2,1.2,0,0,1,1.135.822l2.123,6.385h2.909a3.59,3.59,0,1,1,3.41,4.712Z" transform="translate(-422.448 -99.035)"/>
  </g>
</svg>
