<svg xmlns="http://www.w3.org/2000/svg" viewBox="0 0 438 286.923">
  <defs>
    <style>
      .cls-1, .cls-3 {
        fill: #6c63ff;
      }

      .cls-1, .cls-12, .cls-14, .cls-8 {
        opacity: 0.1;
      }

      .cls-2 {
        opacity: 0.5;
      }

      .cls-4 {
        fill: #ffb9b9;
      }

      .cls-5 {
        opacity: 0.05;
      }

      .cls-6 {
        fill: #737a9d;
      }

      .cls-7 {
        fill: #4c4c78;
      }

      .cls-14, .cls-9 {
        fill: #fff;
      }

      .cls-15, .cls-9 {
        opacity: 0.2;
      }

      .cls-10 {
        fill: #cbcdda;
      }

      .cls-11 {
        fill: #b96b6b;
      }

      .cls-13 {
        opacity: 0.8;
      }

      .cls-16 {
        fill: none;
        stroke: #6c63ff;
        stroke-miterlimit: 10;
      }
    </style>
  </defs>
  <g id="undraw_healthy_habit_bh5w" transform="translate(-0.002 -0.005)">
    <path id="Path_84" data-name="Path 84" class="cls-1" d="M98.482,207.4c-3.3,9.984,6.4,18.963,14.025,26.194a102.742,102.742,0,0,1,24.176,35.233c3.315,8.043,5.621,16.7,5,25.374-1.752,24.614-24.932,41.013-43.452,57.318-2.624,2.332-5.247,4.771-6.776,7.914-4.908,10.087,3.435,21.711,12.625,28.144,32.726,22.9,79.961,16.086,111.7-8.155,16.438-12.556,30.566-29.629,50.486-35.212,12.736-3.551,26.254-1.868,39.433-.773a419.849,419.849,0,0,0,59.405.7c6.948-.429,14.213-1.1,20.032-4.917,14.733-9.653,12.247-32.541,22.879-46.583,7.644-10.091,20.7-13.982,32.069-19.56A100.328,100.328,0,0,0,482.1,234.1c9.125-15.532,13.853-33.189,18.465-50.6,3.478-13.08,6.969-26.778,4.024-39.991s-14.574-25.55-28.058-24.391c-10.353.889-18.589,9.069-28.56,12-23.884,7.034-47.072-17.4-71.849-15.038-15.6,1.481-28.182,13.312-37.694,25.765s-17.563,26.473-30.123,35.852c-19.538,14.6-46.308,15.115-70.226,10.387s-46.866-14.033-71.051-17.134c-14.248-1.825-25.168,6.664-38,11.332C117.252,186.564,102.845,194.191,98.482,207.4Z" transform="translate(-90 -115.91)"/>
    <ellipse id="Ellipse_20" data-name="Ellipse 20" class="cls-1" cx="31.235" cy="9.49" rx="31.235" ry="9.49" transform="translate(28.003 267.948)"/>
    <ellipse id="Ellipse_21" data-name="Ellipse 21" class="cls-1" cx="83.422" cy="5.535" rx="83.422" ry="5.535" transform="translate(271.158 150.525)"/>
    <g id="Group_7" data-name="Group 7" class="cls-2" transform="translate(274.323 29.375)">
      <path id="Path_85" data-name="Path 85" class="cls-3" d="M702.483,68.4h0a4.363,4.363,0,0,1,4.363,4.363V194.072H698.12V72.759a4.363,4.363,0,0,1,4.363-4.359Z" transform="translate(-672.66 -68.4)"/>
      <path id="Path_86" data-name="Path 86" class="cls-3" d="M925.384,68.4h0a4.363,4.363,0,0,1,4.363,4.363V194.072H921V72.758a4.363,4.363,0,0,1,4.384-4.359Z" transform="translate(-799.833 -68.4)"/>
      <rect id="Rectangle_40" data-name="Rectangle 40" class="cls-3" width="8.726" height="155.379" rx="4.363" transform="translate(155.379 18.392) rotate(90)"/>
      <rect id="Rectangle_41" data-name="Rectangle 41" class="cls-3" width="6.836" height="32.773" rx="3.418" transform="translate(16.03 6.364)"/>
      <rect id="Rectangle_42" data-name="Rectangle 42" class="cls-3" width="6.836" height="26.645" rx="3.418" transform="translate(9.194 9.43)"/>
      <rect id="Rectangle_43" data-name="Rectangle 43" class="cls-3" width="6.836" height="32.773" rx="3.418" transform="translate(139.344 39.137) rotate(180)"/>
      <rect id="Rectangle_44" data-name="Rectangle 44" class="cls-3" width="6.836" height="26.645" rx="3.418" transform="translate(146.181 36.071) rotate(180)"/>
    </g>
    <g id="Group_8" data-name="Group 8" class="cls-2" transform="translate(336 80.149)">
      <path id="Path_87" data-name="Path 87" class="cls-3" d="M789.783,186.64h17.838a7.3,7.3,0,0,1,7.3,7.3v30.643H782.5V193.94A7.3,7.3,0,0,1,789.783,186.64Z" transform="translate(-782.483 -186.64)"/>
      <rect id="Rectangle_45" data-name="Rectangle 45" class="cls-3" width="4.745" height="15.815" transform="translate(13.836 35.19)"/>
      <rect id="Rectangle_46" data-name="Rectangle 46" class="cls-3" width="4.745" height="15.815" transform="translate(4.346 52.981)"/>
      <rect id="Rectangle_47" data-name="Rectangle 47" class="cls-3" width="4.745" height="15.815" transform="translate(24.116 52.981)"/>
      <rect id="Rectangle_48" data-name="Rectangle 48" class="cls-3" width="32.421" height="4.35" transform="translate(0 49.816)"/>
    </g>
    <ellipse id="Ellipse_22" data-name="Ellipse 22" class="cls-1" cx="177.914" cy="13.046" rx="177.914" ry="13.046" transform="translate(25.238 235.136)"/>
    <path id="Path_88" data-name="Path 88" class="cls-4" d="M670.36,573.077s12.255,5.535,18.186,5.535a77.8,77.8,0,0,1,9.877,3.165c3.551,1.584,17.4,2.37,17.4,2.37s16.21,5.93,18.186,8.7,7.905-9.876,7.905-9.876l-3.165-7.905L679.056,563.6Z" transform="translate(-421.145 -371.353)"/>
    <path id="Path_89" data-name="Path 89" class="cls-5" d="M670.36,573.077s12.255,5.535,18.186,5.535a77.8,77.8,0,0,1,9.877,3.165c3.551,1.584,17.4,2.37,17.4,2.37s16.21,5.93,18.186,8.7,7.905-9.876,7.905-9.876l-3.165-7.905L679.056,563.6Z" transform="translate(-421.145 -371.353)"/>
    <path id="Path_90" data-name="Path 90" class="cls-6" d="M811.23,608.325s7.51,9.876,4.35,15.815-1.975,5.93,0,6.325,13.046,2.77,14.235-5.93,3.56-28.071,3.56-28.071l-16.232-1.585S821.51,609.51,811.23,608.325Z" transform="translate(-501.523 -389.201)"/>
    <path id="Path_91" data-name="Path 91" class="cls-7" d="M593.94,546.885l34,15.815s10.675-8.3,9.876-12.651l-39.536-9.49Z" transform="translate(-377.54 -358.207)"/>
    <path id="Path_92" data-name="Path 92" class="cls-8" d="M593.94,546.885l34,15.815s10.675-8.3,9.876-12.651l-39.536-9.49Z" transform="translate(-377.54 -358.207)"/>
    <path id="Path_93" data-name="Path 93" class="cls-4" d="M807.084,565.831l-3.573,8.7-8.288,1.967a52.946,52.946,0,0,0-7.424-5.187c-4.462-2.576-10.332-5.1-15.888-4.7,0,0-22.141-3.56-23.326-5.153,0,0-14.235-3.165-17.4-2.77-1.524.189-4.8-.906-7.781-2.1-3.2-1.288-6.059-2.649-6.059-2.649l10.28-16.21a27.63,27.63,0,0,0,3.693,1.288,76.146,76.146,0,0,0,21.217,2.645c16.605,0,39.536,17,39.536,17s.228.077.618.193c1.718.52,6.613,1.743,8.872-.193C804.315,556.341,807.084,565.831,807.084,565.831Z" transform="translate(-447.957 -356.592)"/>
    <path id="Path_94" data-name="Path 94" class="cls-8" d="M900.695,593.2l-3.573,8.7-8.288,1.967a52.936,52.936,0,0,0-7.424-5.187c12.058.906,4.857-12.406,4.857-12.406h.026c1.718.52,6.613,1.743,8.872-.193C897.925,583.711,900.695,593.2,900.695,593.2Z" transform="translate(-541.567 -383.962)"/>
    <path id="Path_95" data-name="Path 95" class="cls-6" d="M881.52,598.611s9.563,13.411,5.539,20.964-2.516,7.549,0,8.056,16.614,3.526,18.121-7.549c1.159-8.515.142-24.859-.391-31.953a3.388,3.388,0,0,0-3.684-3.117L887.12,586.3S894.609,600.123,881.52,598.611Z" transform="translate(-541.63 -383.563)"/>
    <path id="Path_96" data-name="Path 96" class="cls-3" d="M262.71,526.195l.4,19.375,4.35,3.16H282.48l2.765-3.951V526.195l-4.35-3.955H266.665Z" transform="translate(-149.898 -297.981)"/>
    <path id="Path_97" data-name="Path 97" class="cls-9" d="M355.08,648.28s2.77,17.791,0,19.375l-1.975-.4-.4-18.976Z" transform="translate(-239.898 -419.671)"/>
    <path id="Path_98" data-name="Path 98" class="cls-3" d="M433.719,640.395l3.165-3.165h15.029l3.165,3.165s3.955,11.465.79,18.976l-3.568,3.56H437.27l-3.56-3.165Z" transform="translate(-286.115 -413.366)"/>
    <path id="Path_99" data-name="Path 99" class="cls-8" d="M262.71,526.195l.4,19.375,4.35,3.16H282.48l2.765-3.951V526.195l-4.35-3.955H266.665Z" transform="translate(-149.898 -297.981)"/>
    <path id="Path_100" data-name="Path 100" class="cls-8" d="M433.719,640.395l3.165-3.165h15.029l3.165,3.165s3.955,11.465.79,18.976l-3.568,3.56H437.27l-3.56-3.165Z" transform="translate(-286.115 -413.366)"/>
    <path id="Path_101" data-name="Path 101" class="cls-9" d="M437.27,645.39s3.165,13.84,0,18.581h-3.56V644.6Z" transform="translate(-286.115 -417.571)"/>
    <path id="Path_102" data-name="Path 102" class="cls-4" d="M405.19,491.76s1.58,15.42,1.58,17.4-.79,15.029,1.58,27.676-1.58,28.461-1.58,28.461h13.046l5.535-42.7L421.4,500.056l-1.58-7.115Z" transform="translate(-269.842 -330.362)"/>
    <path id="Path_103" data-name="Path 103" class="cls-5" d="M405.19,491.76s1.58,15.42,1.58,17.4-.79,15.029,1.58,27.676-1.58,28.461-1.58,28.461h13.046l5.535-42.7L421.4,500.056l-1.58-7.115Z" transform="translate(-269.842 -330.362)"/>
    <path id="Path_104" data-name="Path 104" class="cls-10" d="M387.838,400.212s-17.4.4-3.56,29.256c0,0,3.56,11.86,3.56,13.84s17.791,1.975,19.753,0-3.165-18.186-3.165-25.7S399.3,397.842,387.838,400.212Z" transform="translate(-254.86 -277.955)"/>
    <path id="Path_105" data-name="Path 105" class="cls-5" d="M387.838,400.212s-17.4.4-3.56,29.256c0,0,3.56,11.86,3.56,13.84s17.791,1.975,19.753,0-3.165-18.186-3.165-25.7S399.3,397.842,387.838,400.212Z" transform="translate(-254.86 -277.955)"/>
    <path id="Path_106" data-name="Path 106" class="cls-4" d="M339.327,361s15.029,16.21,27.676,4.35l-1.58,41.911s-20.56-24.906-34.782-22.931Z" transform="translate(-227.305 -255.752)"/>
    <path id="Path_107" data-name="Path 107" class="cls-8" d="M731.283,539.1c-.6,4.633-2.491,14.39-7.914,17.55-3.2-1.288-6.059-2.649-6.059-2.649l10.28-16.21A27.627,27.627,0,0,0,731.283,539.1Z" transform="translate(-447.934 -356.626)"/>
    <path id="Path_108" data-name="Path 108" class="cls-7" d="M636.32,483.966s-1.185,19.375-10.675,20.955l-57.318-10.34a17.3,17.3,0,0,1-7.618-3.435,39.371,39.371,0,0,1-6.832-6.561,5.452,5.452,0,0,1-1.37-3.392c.4-4.35,17.791-14.63,11.86-32.816a10.839,10.839,0,0,1,2.783-1.6c4.951-2.057,16.348-3.568,32.8,13.458C599.949,460.259,630.39,484.774,636.32,483.966Z" transform="translate(-353.894 -304.001)"/>
    <path id="Path_109" data-name="Path 109" class="cls-3" d="M296.78,529.881l.4,19.375,4.346,3.165h15.025l2.77-3.955V529.881l-4.35-3.951H300.731Z" transform="translate(-169.338 -300.086)"/>
    <path id="Path_110" data-name="Path 110" class="cls-9" d="M389.15,652s2.77,17.791,0,19.375l-1.975-.4-.4-18.98Z" transform="translate(-259.338 -421.793)"/>
    <path id="Path_111" data-name="Path 111" class="cls-3" d="M488.06,643.155l3.165-3.165h15.029l3.165,3.165s3.955,11.465.79,18.976l-3.56,3.56H491.62l-3.56-3.165Z" transform="translate(-317.127 -414.94)"/>
    <path id="Path_112" data-name="Path 112" class="cls-9" d="M491.61,648.15s3.165,13.84,0,18.581h-3.56V647.36Z" transform="translate(-317.121 -419.146)"/>
    <path id="Path_113" data-name="Path 113" class="cls-3" d="M434.976,664.86h21.389a3.208,3.208,0,0,1,3.032,3.362h0a3.211,3.211,0,0,1-3.032,3.362H434.976a3.245,3.245,0,0,1-3.006-3.753h0A3.158,3.158,0,0,1,434.976,664.86Z" transform="translate(-285.11 -429.131)"/>
    <path id="Path_114" data-name="Path 114" class="cls-8" d="M565.543,479.2c-4.23,2.963-8.687,4.9-11.676,6.557a5.452,5.452,0,0,1-1.37-3.392c.4-4.35,17.791-14.63,11.86-32.816a10.837,10.837,0,0,1,2.783-1.6,12.075,12.075,0,0,0,2.753-.378S573.448,473.661,565.543,479.2Z" transform="translate(-353.888 -305.148)"/>
    <path id="Path_115" data-name="Path 115" class="cls-10" d="M375.824,389.907a88.1,88.1,0,0,0,11.663,9.688c5.29,3.465-4.152-31.433-4.152-31.433s5.857-4.724,9.3-7.528a11.783,11.783,0,0,1,8.193-2.662c7.914.511,22.411,3.839,34.108,19.882,17,23.326,32.421,18.581,32.421,18.581s3.56,26.1-4.35,31.631-16.605,7.51-15.029,10.675-7.115-15.42-26.886-18.581-41.516-17-41.116-23.721C379.976,396.434,374.244,391.9,375.824,389.907Z" transform="translate(-252.929 -254.012)"/>
    <path id="Path_116" data-name="Path 116" class="cls-8" d="M348.655,372.39a19.873,19.873,0,0,0-.3-3.41c-5.179-2.576-4.444-6.08-4.444-6.08l-8.7,23.326c3.182-.429,6.682.464,10.194,2.147C350.029,384.718,348.655,378.7,348.655,372.39Z" transform="translate(-229.912 -256.836)"/>
    <circle id="Ellipse_23" data-name="Ellipse 23" class="cls-4" cx="19.77" cy="19.77" r="19.77" transform="translate(81.577 95.371)"/>
    <path id="Path_117" data-name="Path 117" class="cls-8" d="M272.768,350.7a5.078,5.078,0,0,1-1.988,3.006,3.768,3.768,0,0,1-4.213-.6,7.1,7.1,0,0,1-2.087-3.942,13.235,13.235,0,0,1,.215-6.463c.515-1.782,1.4-3.435,1.778-5.26.4-1.941.2-3.972.644-5.9.605-2.619,2.332-4.814,4.015-6.914a7.137,7.137,0,0,1,4.651-3.092l8.275-2.495a27.96,27.96,0,0,1,4.818-1.151,16.692,16.692,0,0,1,6.265.55,14.432,14.432,0,0,1,4.543,2.027,16.805,16.805,0,0,1,3.586,3.629c4.376,5.72,6.871,15.077,11.384,20.706-1.782.55-3.564-1.288-5.346-.73a1.254,1.254,0,0,1-.8.064,1.318,1.318,0,0,1-.588-.653,13.686,13.686,0,0,0-7-5.986c-2.19-.829-5.153-.824-6.351,1.185-.812,1.357-.485,3.07-.271,4.638s.176,3.435-1.065,4.4a4.6,4.6,0,0,1-2.31.782,25.456,25.456,0,0,1-11.448-1.121c-1.288-.429-2.6-1.773-3.959-1.344C273.678,346.612,273.253,349.142,272.768,350.7Z" transform="translate(-189.383 -231.102)"/>
    <path id="Path_118" data-name="Path 118" class="cls-11" d="M271.758,349.7a5.078,5.078,0,0,1-1.988,3.006,3.768,3.768,0,0,1-4.213-.6,7.1,7.1,0,0,1-2.087-3.942,13.234,13.234,0,0,1,.215-6.463c.515-1.782,1.4-3.435,1.778-5.26.4-1.941.2-3.972.644-5.9.605-2.619,2.332-4.814,4.015-6.914a7.137,7.137,0,0,1,4.651-3.092l8.275-2.495a27.963,27.963,0,0,1,4.818-1.147,16.691,16.691,0,0,1,6.265.55,14.433,14.433,0,0,1,4.543,2.027,16.8,16.8,0,0,1,3.586,3.629c4.376,5.72,6.871,15.077,11.384,20.706-1.782.55-3.564-1.288-5.346-.73a1.254,1.254,0,0,1-.8.064,1.318,1.318,0,0,1-.6-.653,13.686,13.686,0,0,0-7-5.986c-2.19-.829-5.153-.824-6.351,1.185-.812,1.357-.485,3.07-.271,4.638s.176,3.435-1.065,4.4a4.6,4.6,0,0,1-2.31.782,25.456,25.456,0,0,1-11.448-1.121c-1.288-.429-2.6-1.773-3.959-1.344C272.668,345.608,272.243,348.137,271.758,349.7Z" transform="translate(-188.807 -230.531)"/>
    <g id="Group_9" data-name="Group 9" class="cls-12" transform="translate(122.589 113.072)">
      <path id="Path_119" data-name="Path 119" d="M395.02,379.22l-1.34,1.082s5.535,20.453,5.754,28.487C402.26,408.025,396.823,386.142,395.02,379.22Z" transform="translate(-385.864 -379.22)"/>
      <path id="Path_120" data-name="Path 120" d="M463.732,467.369c-7.905,5.535-16.605,7.51-15.029,10.675s-7.115-15.42-26.886-18.581c-18.546-2.967-38.832-15.33-40.944-22.4-2.963-2.534-5.119-4.685-5.119-4.685-1.58,1.975,4.152,6.523,4.152,6.523-.4,6.72,21.35,20.56,41.116,23.721s28.466,21.745,26.886,18.581,7.115-5.153,15.029-10.675c2.263-1.585,3.586-4.852,4.324-8.713A10.26,10.26,0,0,1,463.732,467.369Z" transform="translate(-375.478 -409.552)"/>
    </g>
    <path id="Path_121" data-name="Path 121" class="cls-4" d="M456.552,523.452c-1.185,1.58-1.975,17.791-1.975,17.791S459.3,564.568,444.7,562.2s-1.975-18.976-1.975-18.976l-1.975-22.931c-7.51-19.753-5.93-34-5.93-34l-1.4-12.912-.575-5.273,17-3.955c-.464.618-.266,4.474.15,8.953.648,7.017,1.825,15.558,1.825,15.558C455.363,492.611,457.737,521.867,456.552,523.452Z" transform="translate(-285.619 -314.608)"/>
    <path id="Path_122" data-name="Path 122" class="cls-8" d="M420.058,380.881s-17.4.4-3.56,29.256c0,0,3.56,11.86,3.56,13.84s17.791,1.975,19.753,0-3.165-18.186-3.165-25.7S431.523,378.506,420.058,380.881Z" transform="translate(-273.244 -266.925)"/>
    <path id="Path_123" data-name="Path 123" class="cls-8" d="M449.955,473.1c-3.693,1.009-12.745,1.1-16.58.275L432.8,468.1l17-3.955C449.345,464.764,449.543,468.62,449.955,473.1Z" transform="translate(-285.596 -314.608)"/>
    <path id="Path_124" data-name="Path 124" class="cls-10" d="M418.218,380.881s-17.4.4-3.56,29.256c0,0,3.56,11.86,3.56,13.84s17.791,1.975,19.753,0-3.165-18.186-3.165-25.7S429.683,378.506,418.218,380.881Z" transform="translate(-272.195 -266.925)"/>
    <g id="Group_10" data-name="Group 10" class="cls-2" transform="translate(17.581 175.843)">
      <path id="Path_125" data-name="Path 125" class="cls-3" d="M55.583,409.5l-12.59.258-2.053,2.826v9.765l2.568,1.8H55.583l2.572-2.826v-9.25Z" transform="translate(-40.94 -409.496)"/>
      <path id="Path_126" data-name="Path 126" class="cls-9" d="M147.72,526.946s-11.564,1.8-12.59,0l.258-1.288,12.333-.258Z" transform="translate(-133.331 -525.4)"/>
      <path id="Path_127" data-name="Path 127" class="cls-3" d="M147.977,591.23l2.057,2.057v9.765l-2.057,2.057s-7.45,2.576-12.333.515l-2.315-2.315v-9.765l2.057-2.315Z" transform="translate(-132.304 -562.962)"/>
      <path id="Path_128" data-name="Path 128" class="cls-9" d="M150.2,593.545s-8.992,2.057-12.075,0V591.23h12.59Z" transform="translate(-135.037 -562.962)"/>
      <path id="Path_129" data-name="Path 129" class="cls-3" d="M150.261,556.74v13.9a2.087,2.087,0,0,1-2.186,1.971h0a2.087,2.087,0,0,1-2.186-1.971v-13.9a2.115,2.115,0,0,1,2.439-1.958h0A2.057,2.057,0,0,1,150.261,556.74Z" transform="translate(-139.47 -542.157)"/>
      <path id="Path_130" data-name="Path 130" class="cls-3" d="M102.537,410.42l-12.59.258L87.89,413.5v9.765l2.572,1.8h12.075l2.568-2.826v-9.25Z" transform="translate(-67.729 -410.021)"/>
      <path id="Path_131" data-name="Path 131" class="cls-9" d="M194.67,527.876s-11.564,1.8-12.59,0l.258-1.288,12.333-.258Z" transform="translate(-160.12 -525.931)"/>
      <path id="Path_132" data-name="Path 132" class="cls-3" d="M194.927,592.154l2.057,2.057v9.765l-2.057,2.057s-7.45,2.576-12.333.515l-2.315-2.315v-9.769l2.057-2.315Z" transform="translate(-159.093 -563.487)"/>
      <path id="Path_133" data-name="Path 133" class="cls-9" d="M197.155,594.464s-8.992,2.057-12.075,0V592.15h12.59Z" transform="translate(-161.832 -563.487)"/>
      <path id="Path_134" data-name="Path 134" class="cls-3" d="M197.191,557.66v13.9a2.087,2.087,0,0,1-2.186,1.971h0a2.087,2.087,0,0,1-2.186-1.971v-13.9a2.115,2.115,0,0,1,2.439-1.958h0a2.057,2.057,0,0,1,1.932,1.958Z" transform="translate(-166.248 -542.682)"/>
      <path id="Path_135" data-name="Path 135" class="cls-3" d="M165.758,427.74l-10.366.21-1.692,2.327v8.039l2.117,1.477h9.941l2.113-2.327v-7.613Z" transform="translate(-105.279 -419.903)"/>
      <path id="Path_136" data-name="Path 136" class="cls-9" d="M257.506,544.917s-9.52,1.481-10.366,0l.21-1.056,10.151-.21Z" transform="translate(-197.242 -535.813)"/>
      <path id="Path_137" data-name="Path 137" class="cls-3" d="M257.728,597.83l1.692,1.692v8.039l-1.692,1.692s-6.132,2.117-10.151.429l-1.907-1.9v-8.047l1.692-1.9Z" transform="translate(-196.403 -566.728)"/>
      <path id="Path_138" data-name="Path 138" class="cls-9" d="M259.551,599.732s-7.4,1.692-9.941,0v-1.9h10.366Z" transform="translate(-198.652 -566.728)"/>
      <path id="Path_139" data-name="Path 139" class="cls-3" d="M259.608,569.422v11.444a1.718,1.718,0,0,1-1.8,1.615h0a1.718,1.718,0,0,1-1.8-1.623V569.422a1.739,1.739,0,0,1,2.01-1.61h0A1.692,1.692,0,0,1,259.608,569.422Z" transform="translate(-202.303 -549.587)"/>
      <path id="Path_140" data-name="Path 140" class="cls-3" d="M204.408,428.49l-10.366.215-1.692,2.323v8.039l2.117,1.482h9.941l2.117-2.327v-7.613Z" transform="translate(-127.333 -420.331)"/>
      <path id="Path_141" data-name="Path 141" class="cls-9" d="M296.166,545.677s-9.52,1.481-10.366,0l.21-1.056,10.151-.21Z" transform="translate(-219.301 -536.247)"/>
      <path id="Path_142" data-name="Path 142" class="cls-3" d="M296.384,598.579l1.692,1.692v8.039L296.384,610s-6.132,2.117-10.151.429l-1.9-1.9v-8.056l1.692-1.9Z" transform="translate(-218.462 -567.15)"/>
      <path id="Path_143" data-name="Path 143" class="cls-9" d="M298.211,600.472s-7.4,1.692-9.941,0v-1.9h10.362Z" transform="translate(-220.711 -567.15)"/>
      <path id="Path_144" data-name="Path 144" class="cls-3" d="M298.218,570.181v11.444a1.718,1.718,0,0,1-1.8,1.623h0a1.718,1.718,0,0,1-1.8-1.623V570.181a1.739,1.739,0,0,1,2.01-1.61h0A1.692,1.692,0,0,1,298.218,570.181Z" transform="translate(-224.334 -550.021)"/>
    </g>
    <g id="Group_11" data-name="Group 11" class="cls-13" transform="translate(40.158 241.96)">
      <path id="Path_145" data-name="Path 145" class="cls-3" d="M193.677,704.079s-6.085-2.061-9.018,3.3a9.782,9.782,0,0,0,.129,9.417c1.924,3.478,5.887,7.991,13.4,7.592,6.372-.339,8.49-5.2,9.065-9.726a9.992,9.992,0,0,0-13.269-10.7Z" transform="translate(-183.515 -693.072)"/>
      <path id="Path_146" data-name="Path 146" class="cls-14" d="M186.081,717.034a9.782,9.782,0,0,1-.129-9.417c2.929-5.363,9.018-3.3,9.018-3.3l.313-.112a9.9,9.9,0,0,1,7.15.159,9.9,9.9,0,0,0-8.442-.807l-.313.112s-6.085-2.061-9.018,3.3a9.782,9.782,0,0,0,.129,9.417,14.825,14.825,0,0,0,6.871,6.514A15.086,15.086,0,0,1,186.081,717.034Z" transform="translate(-183.515 -692.832)"/>
      <path id="Path_147" data-name="Path 147" class="cls-15" d="M199.86,711s2.254,1.773,7.729,0" transform="translate(-192.841 -697.417)"/>
      <path id="Path_148" data-name="Path 148" class="cls-3" d="M198.74,681s3.865,10.478,3.547,13.217l3.062-.322s-5.153-9.185-3.865-12.882Z" transform="translate(-192.202 -680.3)"/>
      <path id="Path_149" data-name="Path 149" class="cls-15" d="M198.74,681s3.865,10.478,3.547,13.217l3.062-.322s-5.153-9.185-3.865-12.882Z" transform="translate(-192.202 -680.3)"/>
      <path id="Path_150" data-name="Path 150" class="cls-3" d="M219.615,680.928s-6.089-3.113-8.812-.541-3.143,9.146-3.143,9.146S217.588,690.9,219.615,680.928Z" transform="translate(-197.292 -679.369)"/>
      <path id="Path_151" data-name="Path 151" class="cls-14" d="M219.615,680.928s-6.089-3.113-8.812-.541-3.143,9.146-3.143,9.146S217.588,690.9,219.615,680.928Z" transform="translate(-197.292 -679.369)"/>
      <path id="Path_152" data-name="Path 152" class="cls-16" d="M207.66,691.588s1.6-7.631,11.955-8.588" transform="translate(-197.292 -681.441)"/>
    </g>
    <path id="Path_153" data-name="Path 153" class="cls-3" d="M253.5,726.169s-6.085-2.061-9.018,3.3a9.782,9.782,0,0,0,.129,9.417c1.924,3.478,5.887,7.991,13.4,7.592,6.372-.339,8.489-5.2,9.065-9.726a9.992,9.992,0,0,0-13.269-10.7Z" transform="translate(-177.49 -463.717)"/>
    <path id="Path_154" data-name="Path 154" class="cls-14" d="M245.931,739.134a9.782,9.782,0,0,1-.129-9.417c2.929-5.363,9.018-3.3,9.018-3.3l.313-.112a9.9,9.9,0,0,1,7.15.159,9.9,9.9,0,0,0-8.442-.807l-.313.112s-6.085-2.061-9.018,3.3a9.782,9.782,0,0,0,.129,9.417A14.825,14.825,0,0,0,251.509,745,15.085,15.085,0,0,1,245.931,739.134Z" transform="translate(-177.507 -463.483)"/>
    <path id="Path_155" data-name="Path 155" class="cls-15" d="M259.71,733.09s2.254,1.773,7.729,0" transform="translate(-186.833 -468.062)"/>
    <path id="Path_156" data-name="Path 156" class="cls-3" d="M258.58,703.07s3.865,10.478,3.547,13.217l3.062-.322s-5.153-9.185-3.865-12.882Z" transform="translate(-186.188 -450.933)"/>
    <path id="Path_157" data-name="Path 157" class="cls-15" d="M258.58,703.07s3.865,10.478,3.547,13.217l3.062-.322s-5.153-9.185-3.865-12.882Z" transform="translate(-186.188 -450.933)"/>
    <path id="Path_158" data-name="Path 158" class="cls-3" d="M279.465,703.028s-6.089-3.113-8.812-.541-3.143,9.146-3.143,9.146S277.438,713,279.465,703.028Z" transform="translate(-191.284 -450.02)"/>
    <path id="Path_159" data-name="Path 159" class="cls-14" d="M279.465,703.028s-6.089-3.113-8.812-.541-3.143,9.146-3.143,9.146S277.438,713,279.465,703.028Z" transform="translate(-191.284 -450.02)"/>
    <path id="Path_160" data-name="Path 160" class="cls-16" d="M267.51,713.728s1.6-7.631,11.955-8.588" transform="translate(-191.284 -452.114)"/>
    <path id="Path_161" data-name="Path 161" class="cls-3" d="M135.731,654.922s.6-.666-.524-.932V652.9h.674a5.78,5.78,0,0,0-4.578-5.651v-1.327h.176V644.2h-4.337v1.718h.125v1.344a5.78,5.78,0,0,0-4.5,5.634h.6v1.052s-1.426.674,0,1.877,1.2,2.1,1.2,2.1-.6,2.25-1.8,2.551v20.934a4.651,4.651,0,0,0,4.651,4.651H131.1a4.651,4.651,0,0,0,4.633-4.646V660.475s-2.1-1.576-1.718-2.551a23.623,23.623,0,0,1,1.718-3Z" transform="translate(-108.677 -417.343)"/>
  </g>
</svg>
