<svg xmlns="http://www.w3.org/2000/svg" xmlns:xlink="http://www.w3.org/1999/xlink" viewBox="0 0 621 516.488">
  <defs>
    <style>
      .cls-1, .cls-3 {
        fill: #6c63ff;
      }

      .cls-1, .cls-15, .cls-5 {
        opacity: 0.1;
      }

      .cls-2 {
        fill: #3a3768;
      }

      .cls-4 {
        fill: #e6e8ec;
      }

      .cls-6 {
        fill: #ffd037;
      }

      .cls-7 {
        fill: #a8a8a8;
      }

      .cls-8 {
        opacity: 0.2;
      }

      .cls-9 {
        fill: url(#linear-gradient);
      }

      .cls-10 {
        fill: url(#linear-gradient-2);
      }

      .cls-11 {
        fill: #ffbdc6;
      }

      .cls-12 {
        fill: #474463;
      }

      .cls-13 {
        fill: #f2f1f2;
      }

      .cls-14 {
        fill: #ff748e;
      }

      .cls-16 {
        fill: #fff;
      }

      .cls-17 {
        fill: #0fbda3;
      }
    </style>
    <linearGradient id="linear-gradient" x1="0.505" y1="1.007" x2="0.505" gradientUnits="objectBoundingBox">
      <stop offset="0" stop-color="gray" stop-opacity="0.251"/>
      <stop offset="0.54" stop-color="gray" stop-opacity="0.122"/>
      <stop offset="1" stop-color="gray" stop-opacity="0.102"/>
    </linearGradient>
    <linearGradient id="linear-gradient-2" x1="0.5" y1="1" x2="0.5" y2="0" xlink:href="#linear-gradient"/>
  </defs>
  <g id="undraw_order_confirmed_1m3v" transform="translate(0.004 0.002)">
    <path id="Path_1" data-name="Path 1" class="cls-1" d="M456.033,98.7C416.221,97.321,378.3,84.471,342.1,70.409S270.03,40.766,231.172,33.316c-24.993-4.792-53.578-5.469-73.711,7.929-19.383,12.918-25.645,35.155-29.01,55.811-2.534,15.538-4.023,31.894,2.916,46.436,4.823,10.1,13.373,18.589,19.29,28.265,20.588,33.66,6.034,75.169-16.27,108.035-10.457,15.421-22.606,30.141-30.683,46.541s-11.81,35.216-4.743,51.96c7,16.608,23.689,29.059,41.767,37.824,36.717,17.808,79.967,22.9,122.171,25.786,93.4,6.391,187.282,3.623,280.923.855,34.656-1.027,69.46-2.067,103.551-7.425,18.934-2.977,38.476-7.7,52.224-19.1,17.445-14.474,21.769-38.981,10.076-57.133-19.61-30.443-73.816-38-87.539-70.672-7.542-17.986.2-38.015,11.171-54.7,23.523-35.776,62.946-67.166,65.019-108.06,1.427-28.087-17.525-56.217-46.83-69.51-30.713-13.927-73.311-12.18-95.96,10.882C532.192,90.788,491.187,99.923,456.033,98.7Z" transform="translate(-95.23 -30.18)"/>
    <ellipse id="Ellipse_2" data-name="Ellipse 2" class="cls-1" cx="186.981" cy="25.294" rx="186.981" ry="25.294" transform="translate(110.426 455.115)"/>
    <rect id="Rectangle_31" data-name="Rectangle 31" class="cls-2" width="5.45" height="44.917" rx="2.29" transform="translate(395.404 178.276)"/>
    <rect id="Rectangle_32" data-name="Rectangle 32" class="cls-2" width="3.057" height="14.788" rx="1.529" transform="translate(214.291 143.084)"/>
    <rect id="Rectangle_33" data-name="Rectangle 33" class="cls-2" width="3.445" height="25.737" rx="1.722" transform="translate(214.18 170.162)"/>
    <rect id="Rectangle_34" data-name="Rectangle 34" class="cls-2" width="3.279" height="25.958" rx="1.639" transform="translate(214.236 204.905)"/>
    <rect id="Rectangle_35" data-name="Rectangle 35" class="cls-2" width="182.324" height="370.548" rx="38.99" transform="translate(216.02 94.219)"/>
    <path id="Path_2" data-name="Path 2" class="cls-3" d="M610.063,199H589.148v2.516a11.921,11.921,0,0,1-11.927,11.921H510.707a11.921,11.921,0,0,1-11.927-11.921V199H479.2a14.48,14.48,0,0,0-14.48,14.48V535.789a14.48,14.48,0,0,0,14.48,14.48H610.063a14.48,14.48,0,0,0,14.48-14.48V213.5a14.48,14.48,0,0,0-14.48-14.5Z" transform="translate(-237.437 -95.155)"/>
    <rect id="Rectangle_36" data-name="Rectangle 36" class="cls-4" width="25.46" height="5.167" rx="2.584" transform="translate(289.595 105.285)"/>
    <circle id="Ellipse_3" data-name="Ellipse 3" class="cls-4" cx="2.934" cy="2.934" r="2.934" transform="translate(318.906 104.934)"/>
    <path id="Path_3" data-name="Path 3" class="cls-3" d="M816.529,156.888s-51.794-3.125-45.692,33.168c0,0-1.23,6.416,4.6,9.325,0,0,.092-2.688,5.315-1.772a24.3,24.3,0,0,0,5.628.271,11.725,11.725,0,0,0,6.877-2.811h0s14.56-6.016,20.219-29.809c0,0,4.189-5.192,4.023-6.527l-8.741,3.734s2.99,6.305.615,11.546c0,0-.283-11.318-1.962-11.072-.338.049-4.54,2.184-4.54,2.184s5.136,10.98,1.261,18.964c0,0,1.47-13.533-2.867-18.171l-6.151,3.592s6,11.343,1.932,20.6c0,0,1.046-14.2-3.229-19.727l-5.573,4.349s5.641,11.177,2.2,18.854c0,0-.449-16.522-3.408-17.771,0,0-4.878,4.306-5.622,6.065,0,0,3.863,8.12,1.464,12.4,0,0-1.47-11.011-2.676-11.072,0,0-4.86,7.3-5.364,12.3,0,0,.209-7.437,4.189-12.992,0,0-4.7.806-7.443,3.851,0,0,.757-5.155,8.643-5.61,0,0,4.017-5.536,5.087-5.868,0,0-7.837-.658-12.592,1.452,0,0,4.183-4.866,14.031-2.651l5.505-4.5s-10.322-1.409-14.7.148c0,0,5.038-4.306,16.184-1.169l5.991-3.58s-8.8-1.895-14.043-1.23c0,0,5.536-2.983,15.8.252l4.306-1.925s-6.447-1.267-8.335-1.47-1.987-.72-1.987-.72a22.36,22.36,0,0,1,12.112,1.347S816.683,157.46,816.529,156.888Z" transform="translate(-355.061 -78.921)"/>
    <path id="Path_4" data-name="Path 4" class="cls-3" d="M746,130.671s-23.375-1.409-20.644,14.991a4,4,0,0,0,2.079,4.214s.043-1.23,2.405-.806a10.77,10.77,0,0,0,2.54.123,5.266,5.266,0,0,0,3.106-1.279h0s6.582-2.719,9.141-13.471c0,0,1.888-2.344,1.815-2.946l-3.949,1.685s1.347,2.848.289,5.216c0,0-.129-5.112-.886-4.995-.154,0-2.055.99-2.055.99s2.325,4.964.572,8.569c0,0,.664-6.114-1.3-8.212l-2.78,1.649s2.713,5.124.873,9.307c0,0,.474-6.416-1.458-8.913l-2.516,1.968s2.547,5.05,1,8.52c0,0-.209-7.468-1.544-8.034a15.425,15.425,0,0,0-2.54,2.743s1.747,3.691.664,5.6c0,0-.664-4.976-1.23-5,0,0-2.2,3.3-2.424,5.536a12.007,12.007,0,0,1,1.895-5.868A6.619,6.619,0,0,0,725.693,144s.344-2.331,3.906-2.534a16.826,16.826,0,0,1,2.3-2.657s-3.543-.3-5.69.658c0,0,1.888-2.2,6.336-1.2l2.461-2.03s-4.669-.615-6.643.068c0,0,2.276-1.944,7.314-.529l2.707-1.618a24.649,24.649,0,0,0-6.348-.547s2.5-1.347,7.142.111l1.938-.867s-2.916-.572-3.771-.664-.9-.326-.9-.326a10.082,10.082,0,0,1,5.475.615S746.079,130.929,746,130.671Z" transform="translate(-337.665 -68.845)"/>
    <ellipse id="Ellipse_4" data-name="Ellipse 4" class="cls-1" cx="16.565" cy="2.799" rx="16.565" ry="2.799" transform="translate(515.009 472.904)"/>
    <ellipse id="Ellipse_5" data-name="Ellipse 5" class="cls-1" cx="16.565" cy="2.799" rx="16.565" ry="2.799" transform="translate(39.465 495.873)"/>
    <ellipse id="Ellipse_6" data-name="Ellipse 6" class="cls-1" cx="16.565" cy="2.799" rx="16.565" ry="2.799" transform="translate(103.543 510.889)"/>
    <ellipse id="Ellipse_7" data-name="Ellipse 7" class="cls-3" cx="24.734" cy="4.183" rx="24.734" ry="4.183" transform="translate(470.578 501.514)"/>
    <path id="Path_5" data-name="Path 5" class="cls-3" d="M902.766,834.027a7.2,7.2,0,0,0,2.356-3.562,3.176,3.176,0,0,0-1.649-3.623c-1.513-.578-3.131.474-4.355,1.532s-2.633,2.27-4.238,2.042a6.446,6.446,0,0,0,2-6.034,2.541,2.541,0,0,0-.56-1.23c-.837-.9-2.362-.517-3.365.2-3.2,2.245-4.091,6.594-4.109,10.5a19.744,19.744,0,0,1-.062-4.306c-.012-1.427-.4-3.076-1.624-3.832a4.884,4.884,0,0,0-2.461-.578c-1.439-.055-3.039.092-4.023,1.144-1.23,1.3-.9,3.494.16,4.921A15.662,15.662,0,0,0,885,834.532a9.227,9.227,0,0,1,2.971,2.836,2.554,2.554,0,0,1,.221.51h8.987a25.257,25.257,0,0,0,5.585-3.851Z" transform="translate(-397.224 -335.17)"/>
    <path id="Path_6" data-name="Path 6" class="cls-3" d="M286.059,753.45s3.383,4.423-1.556,11.072-9.012,12.3-7.382,16.467c0,0,7.455-12.395,13.533-12.567S292.734,760.905,286.059,753.45Z" transform="translate(-165.096 -308.546)"/>
    <path id="Path_7" data-name="Path 7" class="cls-5" d="M286.184,753.45a5.432,5.432,0,0,1,.689,1.39c5.918,6.951,9.073,13.441,3.383,13.6-5.3.154-11.651,9.627-13.176,12.02.049.185.111.363.178.547,0,0,7.455-12.395,13.533-12.567S292.858,760.905,286.184,753.45Z" transform="translate(-165.22 -308.546)"/>
    <path id="Path_8" data-name="Path 8" class="cls-6" d="M301.605,761.987c0,1.556-.172,2.817-.388,2.817s-.388-1.261-.388-2.817.215-.824.431-.824S301.605,760.43,301.605,761.987Z" transform="translate(-174.361 -311.448)"/>
    <path id="Path_9" data-name="Path 9" class="cls-6" d="M303.933,764.961c-1.366.744-2.559,1.193-2.657,1s.917-.947,2.282-1.692.83-.2.929,0S305.3,764.216,303.933,764.961Z" transform="translate(-174.53 -312.565)"/>
    <path id="Path_10" data-name="Path 10" class="cls-3" d="M258.117,753.45s-3.383,4.423,1.556,11.072,9.012,12.3,7.382,16.467c0,0-7.449-12.395-13.533-12.567S251.43,760.905,258.117,753.45Z" transform="translate(-154.998 -308.546)"/>
    <path id="Path_11" data-name="Path 11" class="cls-5" d="M258.108,753.45a5.536,5.536,0,0,0-.7,1.39c-5.918,6.951-9.067,13.441-3.383,13.6,5.3.154,11.657,9.627,13.182,12.02a4.77,4.77,0,0,1-.185.547s-7.449-12.395-13.533-12.567S251.422,760.905,258.108,753.45Z" transform="translate(-154.99 -308.546)"/>
    <path id="Path_12" data-name="Path 12" class="cls-6" d="M252.65,761.987c0,1.556.178,2.817.394,2.817s.388-1.261.388-2.817-.215-.824-.431-.824S252.65,760.43,252.65,761.987Z" transform="translate(-155.818 -311.448)"/>
    <path id="Path_13" data-name="Path 13" class="cls-6" d="M248.629,764.961c1.366.744,2.553,1.193,2.657,1s-.923-.947-2.288-1.692-.824-.2-.929,0S247.264,764.216,248.629,764.961Z" transform="translate(-153.95 -312.565)"/>
    <path id="Path_14" data-name="Path 14" class="cls-7" d="M254.4,794.114s9.448-.3,12.3-2.319,14.536-4.453,15.237-1.2,14.2,16.172,3.537,16.258-24.79-1.661-27.632-3.389S254.4,794.114,254.4,794.114Z" transform="translate(-156.491 -322.231)"/>
    <path id="Path_15" data-name="Path 15" class="cls-8" d="M285.661,808.91c-10.666.086-24.79-1.661-27.632-3.389-2.159-1.323-3.026-6.053-3.316-8.23H254.4s.615,7.615,3.439,9.35,16.965,3.476,27.632,3.389c3.076,0,4.14-1.12,4.084-2.743C289.124,808.282,287.949,808.891,285.661,808.91Z" transform="translate(-156.491 -325.419)"/>
    <path id="Path_16" data-name="Path 16" class="cls-9" d="M377.46,474.88a.566.566,0,0,0,.671.086,2.376,2.376,0,0,1-.671-.086Z" transform="translate(-203.854 -201.333)"/>
    <path id="Path_17" data-name="Path 17" class="cls-10" d="M387.97,252.923c-1.3-.381-3.143-1-5.376-1.784a28.806,28.806,0,0,0,4.983-10.168l-.191.074c.062-.228.129-.449.191-.677-4.269,1.759-9-1.23-12.007-5.05s-5.056-8.575-8.347-12.1a38.566,38.566,0,0,0-4.423-3.857,5.877,5.877,0,0,0-3.211-1.593c-1.919-.055-3.426,1.845-5.278,2.417a7.147,7.147,0,0,1-3.691-.135c-4.78-1.113-9.387-3.162-14.24-3.691a16.455,16.455,0,0,0-7.726.88c-2.461.947-3.568,2.823-5.536,4.306-2.135,1.612-6.385,1.575-8.9,1.845a63.737,63.737,0,0,1-9.19.388,20.839,20.839,0,0,0-5.29.2c-3.654.812-6.588,3.752-9.325,6.582a4.921,4.921,0,0,0-1.544,2.461,3.268,3.268,0,0,0,0,.812,5.284,5.284,0,0,0,.369,2.153,28.548,28.548,0,0,0,3.506,7.172,21.5,21.5,0,0,1,3.076,5.069,9.983,9.983,0,0,1,.474,2.922,22.413,22.413,0,0,1-.326,3.143,39.983,39.983,0,0,1-2.368,8.36,16.07,16.07,0,0,0-1.384,4.41,7.951,7.951,0,0,0,0,.935c-.185,4.816,4.62,8.292,5.536,13.084a8.729,8.729,0,0,1,.135,1.2,8.18,8.18,0,0,1-4.257,7.068c.215.086.437.16.658.24a6.917,6.917,0,0,1-.658.369c.449.172.91.32,1.378.455a32.368,32.368,0,0,0-7.019,8.723c-8.28,15.7-64.712,46.51-64.712,46.51s.32.178.837.486c-.209.129-.431.277-.677.443-4.884,3.3-16.35,12.918-5.985,25.048,0,0,8.089-12.948,13.754-18.454.258-.246.5-.474.744-.689a1.679,1.679,0,0,1,.221,1.329l37.111-21.142s13.188-9.362,16.867-11.478a30.281,30.281,0,0,1,8.36-3.635l-.431.191a16.7,16.7,0,0,1,4.257-.615c6.57.1,13.68,4.983,16.03,24.3,3.143,25.872,1.685,30.535.677,31.175a1.772,1.772,0,0,1-.369-.068.551.551,0,0,0,.1.074,1.785,1.785,0,0,1-.406-.074.566.566,0,0,0,.541.135.529.529,0,0,0,.412-.049h.5c0,.234-.037.48-.055.72-.049,0-.3.142,0,.16h0c-.074,1.458-.068,3.076,0,4.706-3.266.185-6.527.381-9.387.56l.258-1.372.117-.615c2.5-.2,4.884-.947,5.161-3.014.615-4.527-5.536-6.945-10.734-7.246s-36.5,1.815-36.5,1.815-4.693,6.151,10.187,8.064c.443.234.9.492,1.372.763,5.825,3.371,13.736,9.571,17.519,12.629l.529.424-1.7,1.372c9.227,2.116,18.1,37.757,23,54.064s15.643,15.7,24.538,13.293c8.335-2.27,9.4-26.807,9.5-29.889v-.314l14.818,18.522,1.126,1.409c.437.228.861.443,1.279.646,11.226,5.419,23.627-4.964,20.1-16.775-3.562-11.934-9.1-29.569-12.789-37.025-3.076-6.244-7.08-16.608-9.5-23.117a8.522,8.522,0,0,0,.917-.443s-.055-.289-.154-.824l.154-.08S362,352.26,361.8,338.918V337.78c2.682-.615,4.38-.861,4.38-.861l.049-.578-.314.068,1.489-17.31s5.475-11.8,1.286-16.725a10.457,10.457,0,0,1-2.461-5.112c-.7-4.527,0-12.063,9.762-18.331,15.028-9.664,20.859-17.519,20.859-17.519S397.173,255.642,387.97,252.923ZM358.124,264.93v-8c2.787-.135,5.635.191,8.433,0a21.26,21.26,0,0,0,4.072-.689l.677.474A74.257,74.257,0,0,1,358.124,264.93ZM315.52,390.3c1.1.775,2.208,1.581,3.3,2.387.677,3.943,1.273,6.729,1.316,6.92A55.51,55.51,0,0,0,315.52,390.3Z" transform="translate(-140.653 -101.786)"/>
    <path id="Path_18" data-name="Path 18" class="cls-11" d="M396.7,491l-.664,3.6-.511,2.756-.929,5.044-9.006,6.305s-.812-.7-2.153-1.79c-3.691-3.039-11.448-9.227-17.144-12.549a19.183,19.183,0,0,0-4.712-2.171Z" transform="translate(-197.742 -207.537)"/>
    <path id="Path_19" data-name="Path 19" class="cls-5" d="M396.7,491l-.664,3.6a28.124,28.124,0,0,1-5.942-.307l-21.013.3c-.99-.062-1.919-.135-2.787-.228a19.188,19.188,0,0,0-4.712-2.171Z" transform="translate(-197.742 -207.537)"/>
    <path id="Path_20" data-name="Path 20" class="cls-12" d="M385.532,489.153s10.5,1.8,11.115-2.682-5.407-6.908-10.506-7.209-35.721,1.8-35.721,1.8-5.4,7.2,14.1,8.409Z" transform="translate(-193.183 -203.008)"/>
    <path id="Path_21" data-name="Path 21" class="cls-5" d="M396.7,491l-.664,3.6-.511,2.756-.929,5.044-9.006,6.305s-.812-.7-2.153-1.79c-3.691-3.039-11.448-9.227-17.144-12.549a19.183,19.183,0,0,0-4.712-2.171Z" transform="translate(-197.742 -207.537)"/>
    <path id="Path_22" data-name="Path 22" class="cls-5" d="M396.7,491l-.664,3.6a28.124,28.124,0,0,1-5.942-.307l-21.013.3c-.99-.062-1.919-.135-2.787-.228a19.188,19.188,0,0,0-4.712-2.171Z" transform="translate(-197.742 -207.537)"/>
    <path id="Path_23" data-name="Path 23" class="cls-5" d="M385.529,489.121s10.506,1.8,11.109-2.707-5.407-6.9-10.506-7.2-35.721,1.8-35.721,1.8-5.4,7.2,14.1,8.4Z" transform="translate(-193.179 -202.988)"/>
    <rect id="Rectangle_37" data-name="Rectangle 37" class="cls-12" width="54.931" height="65.136" transform="translate(160.381 138.17)"/>
    <rect id="Rectangle_38" data-name="Rectangle 38" class="cls-5" width="54.931" height="65.136" transform="translate(160.381 138.465)"/>
    <path id="Path_24" data-name="Path 24" class="cls-11" d="M238.21,432.683a8.793,8.793,0,0,0-3.346,2.368c-5.536,5.481-13.465,18.343-13.465,18.343-10.137-12.075,1.083-21.616,5.862-24.894,1.163-.794,1.944-1.23,1.944-1.23Z" transform="translate(-142.209 -183.009)"/>
    <path id="Path_25" data-name="Path 25" class="cls-11" d="M399.474,288.22s2.7,18.909,12.007,23.412-12.007,12.918-12.007,12.918L370.36,313.736s16.51-5.407,13.207-21.314Z" transform="translate(-201.121 -129.493)"/>
    <path id="Path_26" data-name="Path 26" class="cls-11" d="M344.952,473.16l-.658,3.592-.535,2.768-.929,5.044-9.005,6.3s-.812-.689-2.153-1.784c-3.691-3.039-11.448-9.227-17.15-12.549a19.066,19.066,0,0,0-4.712-2.171Z" transform="translate(-177.817 -200.671)"/>
    <path id="Path_27" data-name="Path 27" class="cls-5" d="M344.968,473.16l-.658,3.592a28.133,28.133,0,0,1-5.942-.308l-21.013.3c-.99-.062-1.925-.135-2.793-.228a19.07,19.07,0,0,0-4.712-2.171Z" transform="translate(-177.833 -200.671)"/>
    <path id="Path_28" data-name="Path 28" class="cls-12" d="M333.808,471.331s10.506,1.8,11.1-2.7-5.4-6.908-10.506-7.209-35.714,1.8-35.714,1.8-5.407,7.2,14.1,8.409Z" transform="translate(-173.273 -196.142)"/>
    <path id="Path_29" data-name="Path 29" class="cls-5" d="M357.437,483.369l-.929,5.044-9.005,6.3s-.812-.689-2.153-1.784l11.909-9.768Z" transform="translate(-191.495 -204.519)"/>
    <path id="Path_30" data-name="Path 30" class="cls-12" d="M416.225,543.741c-.412-.2-.824-.412-1.23-.615l-1.107-1.4-14.523-18.417v.32c-.1,3.076-1.144,27.447-9.3,29.7-8.7,2.4-19.2,3-23.99-13.207S352.541,488.5,343.56,486.393l13.361-10.955s8.846,10.346,12.45,20.25c-.135-.615-6.244-29.157-1.23-34.207h43.828s6.766,19.272,11.4,28.819c3.611,7.412,9.03,24.937,12.518,36.8C439.348,538.808,427.211,549.148,416.225,543.741Z" transform="translate(-190.807 -196.176)"/>
    <path id="Path_31" data-name="Path 31" class="cls-5" d="M429.075,443.936c-6.766,4-36.471,2.374-46.135,1.722l-2.633-.191c-.283,0,.043-.16.043-.16l.271-2.725,7.2-18.306,38.569-22.366c-.781,2.356-1.04,5.961-.978,10.088C425.594,425.26,429.075,443.936,429.075,443.936Z" transform="translate(-204.905 -173.249)"/>
    <path id="Path_32" data-name="Path 32" class="cls-13" d="M428.874,442.477c-6.766,4-36.471,2.374-46.135,1.722l-2.633-.185-.437-.037.48-.123,2.374-.615,5.1-20.41,38.569-22.36c-.781,2.356-1.04,5.961-.978,10.088C425.393,423.808,428.874,442.477,428.874,442.477Z" transform="translate(-204.704 -172.695)"/>
    <path id="Path_33" data-name="Path 33" class="cls-5" d="M425.447,410.546c-7.843,1.808-25.1,7.117-31.735,19.93-4.423,8.532-8.144,12.192-10.74,13.724l-2.633-.185a1.541,1.541,0,0,0,.043-.16l2.374-.615,5.1-20.41,38.569-22.36C425.65,402.814,425.386,406.418,425.447,410.546Z" transform="translate(-204.962 -172.695)"/>
    <path id="Path_34" data-name="Path 34" class="cls-5" d="M235.444,427.29l9.005,5.4a8.793,8.793,0,0,0-3.346,2.368c-.75-2.19-5.462-5.247-7.6-6.551C234.663,427.727,235.444,427.29,235.444,427.29Z" transform="translate(-148.448 -183.017)"/>
    <path id="Path_35" data-name="Path 35" class="cls-5" d="M377.345,471.776a.535.535,0,0,1-.615-.086A2.133,2.133,0,0,0,377.345,471.776Z" transform="translate(-203.573 -200.105)"/>
    <path id="Path_36" data-name="Path 36" class="cls-14" d="M342.484,295.607s-8.107.9-13.81-5.106c0,0-23.99,6.908-32.116,22.514S233.2,359.242,233.2,359.242s9.608,5.4,8.7,8.1l36.323-21.013s12.918-9.3,16.5-11.4,23.418-15.009,27.619,20.109,0,30.916,0,30.916,6,2.1,14.708-14.708,35.714-20.711,35.714-20.711l1.5-17.7s5.358-11.737,1.23-16.608a10.457,10.457,0,0,1-2.405-5.081c-.683-4.5,0-11.989,9.559-18.214,14.708-9.608,20.41-17.408,20.41-17.408s.3-5.708-8.7-8.409S348.74,249.7,348.74,249.7l-1.23,5.106L376.4,275.2S362,286.885,350.567,286.6C350.567,286.6,352.689,295.306,342.484,295.607Z" transform="translate(-148.332 -114.668)"/>
    <path id="Path_37" data-name="Path 37" class="cls-5" d="M408.681,297.012a58.623,58.623,0,0,1-1.661-7.332l-15.907,4.2a17.439,17.439,0,0,1-.363,9.178,17.107,17.107,0,0,0,17.931-6.047Z" transform="translate(-208.969 -130.055)"/>
    <circle id="Ellipse_8" data-name="Ellipse 8" class="cls-11" cx="17.107" cy="17.107" r="17.107" transform="translate(169.393 138.471)"/>
    <path id="Path_38" data-name="Path 38" class="cls-5" d="M384.078,219.762c4.749.535,9.258,2.577,13.933,3.691a6.915,6.915,0,0,0,3.6.141c1.815-.566,3.291-2.461,5.173-2.405a5.5,5.5,0,0,1,3.137,1.581,37.973,37.973,0,0,1,4.306,3.838c3.223,3.5,5.222,8.212,8.163,12.02s7.578,6.766,11.755,5.019c-2.842,11.072-12.149,19.506-22.219,20.195-4.017.271-8.132-.566-12.02.615a10.618,10.618,0,0,1-3.033.738c-2.239,0-4.041-2.055-5.438-4.054-3.272-4.7-5.862-10.039-9.547-14.326-1.23-1.415-2.651-2.762-4.374-3.02s-3.3.56-4.835,1.353a22.793,22.793,0,0,0-7.074,4.921c-1.962,2.251-3.2,5.6-2.387,8.612.437,1.636,1.433,3.113,1.452,4.823.037,2.725-2.374,4.724-2.848,7.382a27.735,27.735,0,0,0-.117,3.359c-.209,3.642-2.59,6.625-5.075,8.913a6.4,6.4,0,0,0-2.325,3.223c-.191.935,0,1.932-.123,2.879-.363,2.362-2.719,3.562-4.8,3.875a13.982,13.982,0,0,1-7.209-.855c2.916-1.384,4.712-5.3,4.035-8.821-.929-4.872-5.825-8.366-5.407-13.33a15.508,15.508,0,0,1,1.353-4.386,40.022,40.022,0,0,0,2.313-8.3,14,14,0,0,0-.141-6.625,20.491,20.491,0,0,0-2.99-5.038,28.584,28.584,0,0,1-3.463-7.1,4.921,4.921,0,0,1-.332-2.344,4.823,4.823,0,0,1,1.507-2.461c2.676-2.811,5.536-5.739,9.122-6.539a20.257,20.257,0,0,1,5.179-.2,60.283,60.283,0,0,0,9-.381c2.461-.289,6.619-.246,8.7-1.845,1.944-1.495,3.039-3.359,5.432-4.306a15.883,15.883,0,0,1,7.591-.837Z" transform="translate(-188.481 -103.091)"/>
    <path id="Path_39" data-name="Path 39" class="cls-5" d="M428.67,507.07s9.9,19.512,6.9,25.509" transform="translate(-223.563 -213.722)"/>
    <path id="Path_40" data-name="Path 40" class="cls-5" d="M448.71,577.861l-14.5-18.392v.32s-.837-5.954,1.925-3.955c6.053,4.38,15.735,11.558,15.944,12.795S450.113,574.8,448.71,577.861Z" transform="translate(-225.648 -232.331)"/>
    <g id="Group_1" data-name="Group 1" class="cls-15" transform="translate(85.194 135.008)">
      <path id="Path_41" data-name="Path 41" d="M422.811,309.54s1.23,5.069-2.731,7.6c6.09-1.04,6.36-5.782,6.151-7.843a19.321,19.321,0,0,1-3.42.24Z" transform="translate(-305.451 -272.614)"/>
      <path id="Path_42" data-name="Path 42" d="M237.033,383.873s55.226-30.615,63.358-46.221c5.813-11.2,19.826-17.919,27.269-20.822-5.425,1.845-23.707,8.8-30.572,22.022-8.1,15.606-63.358,46.227-63.358,46.227Z" transform="translate(-233.73 -275.512)"/>
      <path id="Path_43" data-name="Path 43" d="M433.39,284.2c9.4-2.922,18.38-10.217,18.38-10.217L422.933,253.56l.658-2.793-2.762-1.107-1.2,5.106,28.819,20.41A69.633,69.633,0,0,1,433.39,284.2Z" transform="translate(-305.277 -249.66)"/>
      <path id="Path_44" data-name="Path 44" d="M442.27,416.112a71.7,71.7,0,0,1,11.294-2.854l.049-.578a76.584,76.584,0,0,0-11.343,3.432Z" transform="translate(-313.991 -312.402)"/>
      <path id="Path_45" data-name="Path 45" d="M370.265,434.874H370a.541.541,0,0,1-.615-.086,2.158,2.158,0,0,0,.615.086c.984-.572,2.461-5.056-.615-31-3.309-27.681-16.332-25.522-23.455-22.335,7.283-2.005,17.3-.271,20.152,23.535,3.106,25.946,1.624,30.43.615,31A6.65,6.65,0,0,0,370.265,434.874Z" transform="translate(-276.912 -299.718)"/>
      <path id="Path_46" data-name="Path 46" d="M379.305,471.286a2.158,2.158,0,0,1-.615-.086.541.541,0,0,0,.615.086Z" transform="translate(-289.521 -334.924)"/>
    </g>
    <path id="Path_47" data-name="Path 47" class="cls-12" d="M384.079,218.789c4.749.541,9.258,2.577,13.933,3.691a6.915,6.915,0,0,0,3.6.135c1.815-.56,3.291-2.461,5.173-2.405a5.737,5.737,0,0,1,3.137,1.581,38.584,38.584,0,0,1,4.306,3.838c3.223,3.5,5.222,8.212,8.163,12.02s7.578,6.766,11.755,5.019c-2.842,11.072-12.149,19.506-22.218,20.195-4.017.277-8.132-.56-12.02.615a10.415,10.415,0,0,1-3.033.738c-2.239,0-4.041-2.055-5.438-4.054-3.272-4.7-5.862-10.033-9.547-14.32-1.23-1.421-2.651-2.768-4.374-3.026s-3.3.566-4.835,1.359c-2.528,1.31-5.112,2.663-7.074,4.921s-3.2,5.592-2.387,8.612c.437,1.636,1.433,3.113,1.452,4.823.037,2.731-2.374,4.724-2.848,7.382a27.687,27.687,0,0,0-.117,3.359c-.209,3.642-2.59,6.619-5.075,8.913a6.388,6.388,0,0,0-2.325,3.217c-.191.941,0,1.932-.123,2.885-.363,2.362-2.719,3.562-4.8,3.869a13.859,13.859,0,0,1-7.209-.855c2.916-1.378,4.712-5.3,4.035-8.815-.929-4.872-5.825-8.372-5.407-13.33a15.447,15.447,0,0,1,1.353-4.386,40.181,40.181,0,0,0,2.313-8.31,14.007,14.007,0,0,0-.142-6.625,20.6,20.6,0,0,0-2.99-5.038,28.647,28.647,0,0,1-3.463-7.092,4.989,4.989,0,0,1-.332-2.35,4.847,4.847,0,0,1,1.507-2.43c2.676-2.811,5.536-5.733,9.122-6.539a20.535,20.535,0,0,1,5.179-.2,61.137,61.137,0,0,0,9-.381c2.461-.289,6.619-.252,8.7-1.845,1.944-1.489,3.039-3.359,5.432-4.306a15.993,15.993,0,0,1,7.591-.867Z" transform="translate(-188.482 -102.721)"/>
    <circle id="Ellipse_9" data-name="Ellipse 9" class="cls-16" cx="34.49" cy="34.49" r="34.49" transform="translate(273.805 249.551)"/>
    <path id="Path_48" data-name="Path 48" class="cls-17" d="M612.406,455.708a46.1,46.1,0,1,1-46.1-46.1A46.1,46.1,0,0,1,612.406,455.708Zm-51.425,24.4,34.2-34.2a2.971,2.971,0,0,0,0-4.207l-4.207-4.177a2.965,2.965,0,0,0-4.2,0l-27.89,27.89-13.022-13.053a2.983,2.983,0,0,0-4.208,0L537.44,456.6a2.983,2.983,0,0,0,0,4.207l19.333,19.327a2.971,2.971,0,0,0,4.207,0Z" transform="translate(-258.794 -176.212)"/>
  </g>
</svg>
