<svg xmlns="http://www.w3.org/2000/svg" xmlns:xlink="http://www.w3.org/1999/xlink" viewBox="0 0 247.378 242.204">
  <defs>
    <style>
      .cls-1 {
        fill: #6c63ff;
      }

      .cls-2 {
        opacity: 0.2;
      }

      .cls-15, .cls-3 {
        fill: #fff;
      }

      .cls-12, .cls-3 {
        opacity: 0.05;
      }

      .cls-4, .cls-8 {
        opacity: 0.5;
      }

      .cls-5 {
        fill: #f55f44;
      }

      .cls-6 {
        fill: none;
        stroke: #f55f44;
        stroke-miterlimit: 10;
      }

      .cls-7 {
        fill: #47e6b1;
      }

      .cls-8 {
        fill: #4d8af0;
      }

      .cls-9 {
        fill: url(#linear-gradient);
      }

      .cls-10 {
        fill: #965d7b;
      }

      .cls-11 {
        fill: #575988;
      }

      .cls-13 {
        fill: #f7c4a7;
      }

      .cls-14 {
        opacity: 0.1;
      }

      .cls-15 {
        opacity: 0.07;
      }

      .cls-16 {
        fill: #fc6681;
      }
    </style>
    <linearGradient id="linear-gradient" x1="0.5" y1="1" x2="0.5" gradientUnits="objectBoundingBox">
      <stop offset="0" stop-color="gray" stop-opacity="0.251"/>
      <stop offset="0.54" stop-color="gray" stop-opacity="0.122"/>
      <stop offset="1" stop-color="gray" stop-opacity="0.102"/>
    </linearGradient>
  </defs>
  <g id="medtitation" transform="translate(0)">
    <path id="Path_162" data-name="Path 162" class="cls-1" d="M436.276,704.53H199.4c-2.9,0-5.249,1.459-5.249,3.259v33.7c0,1.8,2.35,3.259,5.249,3.259H436.276c2.9,0,5.253-1.459,5.253-3.259v-33.7C441.528,705.989,439.175,704.53,436.276,704.53Z" transform="translate(-194.15 -502.547)"/>
    <path id="Path_163" data-name="Path 163" class="cls-2" d="M436.276,704.53H199.4c-2.9,0-5.249,1.459-5.249,3.259v33.7c0,1.8,2.35,3.259,5.249,3.259H436.276c2.9,0,5.253-1.459,5.253-3.259v-33.7C441.528,705.989,439.175,704.53,436.276,704.53Z" transform="translate(-194.15 -502.547)"/>
    <rect id="Rectangle_49" data-name="Rectangle 49" class="cls-1" width="247.369" height="37.875" rx="14.09" transform="translate(0.01 201.983)"/>
    <rect id="Rectangle_50" data-name="Rectangle 50" class="cls-3" width="247.369" height="3.265" transform="translate(0.01 207.207)"/>
    <rect id="Rectangle_51" data-name="Rectangle 51" class="cls-3" width="247.369" height="3.265" transform="translate(0.01 214.825)"/>
    <rect id="Rectangle_52" data-name="Rectangle 52" class="cls-3" width="247.369" height="3.265" transform="translate(0.01 222.443)"/>
    <rect id="Rectangle_53" data-name="Rectangle 53" class="cls-3" width="247.369" height="3.265" transform="translate(0.01 230.061)"/>
    <g id="Group_12" data-name="Group 12" class="cls-4" transform="translate(204.453 65.817)">
      <path id="Path_164" data-name="Path 164" class="cls-5" d="M842.628,276.934a3.466,3.466,0,0,0-4.518.42,3.539,3.539,0,0,0,.14,4.931l4.318,4.292a.722.722,0,0,0,1.021,0l4.293-4.318a3.539,3.539,0,0,0,.114-4.931,3.459,3.459,0,0,0-4.515-.4A.731.731,0,0,1,842.628,276.934Z" transform="translate(-837.177 -276.274)"/>
      <path id="Path_165" data-name="Path 165" class="cls-6" d="M854.65,308.15a.636.636,0,0,0,0,.6,3.1,3.1,0,0,1,.168.28c.111.277-.083.579-.28.8-.124.143-.261.334-.181.509a.661.661,0,0,0,.146.165,1.062,1.062,0,0,1-.4,1.774" transform="translate(-848.719 -298.015)"/>
    </g>
    <g id="Group_13" data-name="Group 13" class="cls-4" transform="translate(20.04 89.345)">
      <path id="Path_166" data-name="Path 166" class="cls-5" d="M262.628,350.934a3.466,3.466,0,0,0-4.518.42,3.539,3.539,0,0,0,.14,4.931l4.318,4.292a.722.722,0,0,0,1.021,0l4.292-4.318a3.539,3.539,0,0,0,.114-4.931,3.459,3.459,0,0,0-4.515-.4A.731.731,0,0,1,262.628,350.934Z" transform="translate(-257.177 -350.274)"/>
      <path id="Path_167" data-name="Path 167" class="cls-6" d="M274.65,382.15a.636.636,0,0,0,0,.6,3.121,3.121,0,0,1,.168.28c.111.277-.083.579-.28.8-.124.143-.261.334-.181.509a.656.656,0,0,0,.146.165,1.062,1.062,0,0,1-.4,1.774" transform="translate(-268.719 -372.015)"/>
    </g>
    <g id="Group_14" data-name="Group 14" class="cls-4" transform="translate(140.863 0)">
      <path id="Path_168" data-name="Path 168" class="cls-5" d="M642.628,69.934a3.466,3.466,0,0,0-4.518.42,3.539,3.539,0,0,0,.14,4.931l4.318,4.292a.722.722,0,0,0,1.021,0l4.292-4.318a3.539,3.539,0,0,0,.115-4.931,3.459,3.459,0,0,0-4.515-.4A.731.731,0,0,1,642.628,69.934Z" transform="translate(-637.177 -69.273)"/>
      <path id="Path_169" data-name="Path 169" class="cls-6" d="M654.65,101.15a.635.635,0,0,0,0,.6,3.091,3.091,0,0,1,.168.28c.111.277-.082.579-.28.8-.124.143-.261.318-.181.509a.657.657,0,0,0,.146.165,1.062,1.062,0,0,1-.4,1.774" transform="translate(-648.719 -91.015)"/>
    </g>
    <g id="Group_15" data-name="Group 15" class="cls-4" transform="translate(173.295 44.888)">
      <rect id="Rectangle_54" data-name="Rectangle 54" class="cls-7" width="0.954" height="5.405" transform="translate(2.226)"/>
      <rect id="Rectangle_55" data-name="Rectangle 55" class="cls-7" width="0.954" height="5.405" transform="translate(5.405 2.226) rotate(90)"/>
    </g>
    <g id="Group_16" data-name="Group 16" class="cls-4" transform="translate(63.283 127.874)">
      <rect id="Rectangle_56" data-name="Rectangle 56" class="cls-7" width="0.954" height="5.405" transform="translate(2.226)"/>
      <rect id="Rectangle_57" data-name="Rectangle 57" class="cls-7" width="0.954" height="5.405" transform="translate(5.405 2.226) rotate(90)"/>
    </g>
    <g id="Group_17" data-name="Group 17" class="cls-4" transform="translate(38.482 38.211)">
      <rect id="Rectangle_58" data-name="Rectangle 58" class="cls-7" width="0.954" height="5.405" transform="translate(2.226)"/>
      <rect id="Rectangle_59" data-name="Rectangle 59" class="cls-7" width="0.954" height="5.405" transform="translate(5.405 2.226) rotate(90)"/>
    </g>
    <g id="Group_18" data-name="Group 18" class="cls-4" transform="translate(207.952 121.833)">
      <rect id="Rectangle_60" data-name="Rectangle 60" class="cls-7" width="0.954" height="5.405" transform="translate(2.226)"/>
      <rect id="Rectangle_61" data-name="Rectangle 61" class="cls-7" width="0.954" height="5.405" transform="translate(5.405 2.226) rotate(90)"/>
    </g>
    <path id="Path_170" data-name="Path 170" class="cls-8" d="M733.9,326.381a1.17,1.17,0,0,1-.636-1.412.378.378,0,0,0,.025-.13h0a.585.585,0,0,0-1.065-.385h0a.654.654,0,0,0-.063.115,1.17,1.17,0,0,1-1.412.636.59.59,0,0,0-.13-.025h0a.585.585,0,0,0-.388,1.052h0a.583.583,0,0,0,.115.064,1.167,1.167,0,0,1,.636,1.412.633.633,0,0,0-.026.13h0a.585.585,0,0,0,1.053.388h0a.512.512,0,0,0,.063-.115,1.173,1.173,0,0,1,1.415-.652.559.559,0,0,0,.127.025h0a.585.585,0,0,0,.388-1.052h0A.5.5,0,0,0,733.9,326.381Z" transform="translate(-559.618 -243.145)"/>
    <path id="Path_171" data-name="Path 171" class="cls-8" d="M368.9,288.381a1.17,1.17,0,0,1-.636-1.412.38.38,0,0,0,.025-.13h0a.585.585,0,0,0-1.065-.385h0a.662.662,0,0,0-.064.114,1.17,1.17,0,0,1-1.412.636.6.6,0,0,0-.13-.025h0a.585.585,0,0,0-.388,1.052h0a.577.577,0,0,0,.114.064,1.167,1.167,0,0,1,.652,1.412.642.642,0,0,0-.025.13h0a.585.585,0,0,0,1.052.388h0a.5.5,0,0,0,.064-.114,1.173,1.173,0,0,1,1.415-.652.559.559,0,0,0,.127.025h0a.585.585,0,0,0,.388-1.052h0A.5.5,0,0,0,368.9,288.381Z" transform="translate(-310.672 -217.227)"/>
    <path id="Path_172" data-name="Path 172" class="cls-8" d="M512.9,93.381a1.17,1.17,0,0,1-.636-1.412.381.381,0,0,0,.025-.13h0a.585.585,0,0,0-1.065-.385h0a.662.662,0,0,0-.064.114,1.17,1.17,0,0,1-1.412.652.589.589,0,0,0-.13-.025h0a.585.585,0,0,0-.388,1.052h0a.579.579,0,0,0,.114.064,1.167,1.167,0,0,1,.652,1.412.626.626,0,0,0-.025.13h0a.585.585,0,0,0,1.052.388h0a.5.5,0,0,0,.064-.114,1.173,1.173,0,0,1,1.415-.652.561.561,0,0,0,.127.025h0a.585.585,0,0,0,.388-1.052h0A.5.5,0,0,0,512.9,93.381Z" transform="translate(-408.886 -84.228)"/>
    <path id="Path_173" data-name="Path 173" class="cls-9" d="M488.81,452.088l-15.472-11.882s-1.246-4.947-1.746-8.413-1.25-18.314-1.25-18.314a21.541,21.541,0,0,0,.7-3.93c.153-.032.318-.07.461-.111a7.71,7.71,0,0,0,5.211-4.493c1.59-3.955-.464-8.629-3.065-11.764s-5.876-5.653-7.586-9.539c-2.111-4.785-1.389-10.575-2.467-15.815a4.786,4.786,0,0,0-.795-2.044,5.318,5.318,0,0,0-2.649-1.339c-2.951-1.049-5.164-3.914-6.89-6.906-2.795-4.849-5.688-12.225-11.446-12.645-2.14-.156-4.372.566-6.537.56a72.478,72.478,0,0,0-10,.5,6.785,6.785,0,0,0-3.412,1.167c-3.405,2.7-1.863,9.815-5.144,12.718a16.056,16.056,0,0,1-3.329,1.762c-4.159,2.226-6.006,8.162-5.761,13.5.118,2.505.636,5.11,2.114,6.938,1.173,1.463,2.839,2.3,3.933,3.847,1.758,2.486,1.52,5.79,1.329,9.148-2.353.986-4.242,2.118-4.836,3.335-2.016,4.092-1.755,18.082-1.755,18.082s.747,22.893-5,25.754l-21.468,14.849s-15.23-13.24-18.975-5.443c-2.56,5.332,6.788,8.35,12.957,9.723-3.889,2.76-6.041,7.86-4.219,11.313,2.862,5.447,10.861,9.157,10.861,9.157s30.508,1.472,44.609-1.688h.232c5.987,1.084,14.578,2.226,21.468,1.539.134.318.226.521.226.521s44.2,3.714,52.18-11.383c4.1-7.745-.178-11.319-5.316-12.966,5.752-.458,12.3-2.067,13.055-6.96C510.406,441.939,488.81,452.088,488.81,452.088Zm-4.451,4.734a45.377,45.377,0,0,1-18.149,2.89c-1.717-3.745-8.877-19.964-9.065-30.823a12.291,12.291,0,0,1,1.447-6.13c2.079-3.424,2.7-6.111,2.626-8.149v-.445a8.324,8.324,0,0,0-.178-1.854,4.877,4.877,0,0,1,.293,2.652c-.747,3.835,1.25,28.708,1.25,28.708s1.622,5.571,4.992,7.176Zm-79.2-1.765,7.765-4.951a7.635,7.635,0,0,0,4-5.939l2.56-20.1a20.493,20.493,0,0,0,.684,2.544,19.533,19.533,0,0,1,.674,5.555c-.1,11.221-3.917,29.837-3.917,29.837h.044a.622.622,0,0,1-.025.133l-.27.016c-6.28-.191-20.915-.738-29.106-1.873Zm-13.538,11.717v.038h-1.908Z" transform="translate(-309.004 -257.243)"/>
    <path id="Path_174" data-name="Path 174" class="cls-10" d="M551.355,364.55c1.666,2.919,3.815,5.723,6.677,6.731a4.986,4.986,0,0,1,2.544,1.31,4.684,4.684,0,0,1,.773,1.994c1.04,5.106.343,10.75,2.385,15.421,1.653,3.78,4.817,6.241,7.332,9.291s4.486,7.609,2.963,11.462a7.482,7.482,0,0,1-5.04,4.381,14.718,14.718,0,0,1-6.439-.044,17.051,17.051,0,0,1-8.031-3.18c-4.06-3.3-5.777-9.221-7.9-14.489-1-2.467-2.324-5.052-4.518-5.933-2.512-1.011-5.338.677-6.97,3.154s-2.353,5.59-3.145,8.585c-.89,3.383-2.016,6.893-4.359,9.106a7.335,7.335,0,0,1-7.834,1.564,9.484,9.484,0,0,1-5.269-7.024c-.922-4.912,1.291-10.81-1.428-14.7-1.056-1.5-2.668-2.324-3.8-3.749a11.836,11.836,0,0,1-2.041-6.763c-.238-5.208,1.545-11.011,5.567-13.167a15.124,15.124,0,0,0,3.218-1.717c3.18-2.827,1.679-9.768,4.97-12.4a6.517,6.517,0,0,1,3.3-1.141,68.721,68.721,0,0,1,9.666-.487c2.1,0,4.254-.7,6.321-.547C545.861,352.63,548.656,359.822,551.355,364.55Z" transform="translate(-407.687 -262.236)"/>
    <path id="Path_175" data-name="Path 175" class="cls-11" d="M264.1,641.733l1.218,14.426,85.177-.509L348.87,639.9l-28.8-3.351-50.5,3.049Z" transform="translate(-180.119 -434.157)"/>
    <path id="Path_176" data-name="Path 176" class="cls-12" d="M264.1,641.733l1.218,14.426,85.177-.509L348.87,639.9l-28.8-3.351-50.5,3.049Z" transform="translate(-180.119 -434.157)"/>
    <path id="Path_177" data-name="Path 177" class="cls-13" d="M573.725,753.82l-28.355,2.655s19.427,4.947,30.768,2.544Z" transform="translate(-433.698 -536.165)"/>
    <path id="Path_178" data-name="Path 178" class="cls-14" d="M573.725,753.82l-28.355,2.655s19.427,4.947,30.768,2.544Z" transform="translate(-433.698 -536.165)"/>
    <path id="Path_179" data-name="Path 179" class="cls-13" d="M552.207,434.29s5.552,14.6-2.655,21.115-1.447,24.737-1.447,24.737l31.614-1.45s3.135-20.511,1.447-24.855c0,0-7.482,2.172-9.17-2.413s-2.9-17.135-2.9-17.135Z" transform="translate(-433.778 -318.231)"/>
    <path id="Path_180" data-name="Path 180" class="cls-11" d="M443.1,706.063s-26.667-.6-34.508-2.544-14.6,7.37-11.825,12.693,10.493,8.928,10.493,8.928,39.7,1.93,48.266-3.5c0,0,3.259-9.291,0-11.1H414.141l30.524-.6Z" transform="translate(-331.911 -501.679)"/>
    <path id="Path_181" data-name="Path 181" class="cls-11" d="M644.86,697.124s8.931,1.93,21.236-2.9c0,0,23.049-.722,15.325,13.99s-50.437,11.1-50.437,11.1-2.544-5.431,0-6.878,24.616-10.74,31.493-10.257L643.4,705.925Z" transform="translate(-491.32 -495.517)"/>
    <path id="Path_182" data-name="Path 182" class="cls-14" d="M585.384,443c-.461-3.437-.731-6.238-.731-6.238H567.76a32.912,32.912,0,0,1,1.615,6.83A13.275,13.275,0,0,0,585.384,443Z" transform="translate(-448.969 -319.916)"/>
    <circle id="Ellipse_24" data-name="Ellipse 24" class="cls-13" cx="13.271" cy="13.271" r="13.271" transform="translate(114.387 98.746)"/>
    <path id="Path_183" data-name="Path 183" class="cls-13" d="M434.126,491.147s-15.926,3.017-17.856,7-1.688,17.618-1.688,17.618.722,22.32-4.827,25.1L389,555.335s-14.718-12.909-18.34-5.31S388.036,560.4,388.036,560.4l23.408-6.995,7.481-4.827a7.434,7.434,0,0,0,3.86-5.793l3.138-24.855,12.55-3.622h20.27l2.715-7.752s5.008,4.013,4.283,7.752,1.208,27.98,1.208,27.98,1.567,5.427,4.827,6.995l18.823,6.757s19.907,1.93,21.236-6.757-19.548,1.237-19.548,1.237l-14.972-11.6s-1.205-4.827-1.688-8.206-1.205-17.856-1.205-17.856,4.585-15.2-8.69-17.856L448.6,489.7Z" transform="translate(-314.251 -356.023)"/>
    <path id="Path_184" data-name="Path 184" class="cls-14" d="M536.164,495.527l2.474,16.349s-2.544,7.6,0,15.084-3.138,35.36-3.138,35.36,29.805,9.539,48.011-1.45c0,0-13.392-28.234-7.723-37.646s.1-13.093.1-13.093l.871-17.313-4.1-1.208-2.413,17.135s-16.651,11.583-28.959,1.45l-2.655-18.585Z" transform="translate(-426.966 -357.326)"/>
    <path id="Path_185" data-name="Path 185" class="cls-15" d="M564.584,555.155A9.777,9.777,0,0,0,551.93,551.6,18.39,18.39,0,0,0,564.584,555.155Z" transform="translate(-438.172 -397.537)"/>
    <path id="Path_186" data-name="Path 186" class="cls-15" d="M613.24,549.506a9.761,9.761,0,0,1,12.642-3.558A18.493,18.493,0,0,1,613.24,549.506Z" transform="translate(-479.988 -393.684)"/>
    <path id="Path_187" data-name="Path 187" class="cls-14" d="M536.165,493.706l2.474,15.5s-2.544,7.6,0,15.084-3.138,35.353-3.138,35.353,29.805,9.539,48.011-1.447c0,0-13.392-28.234-7.723-37.646s.1-13.093.1-13.093l.871-17.316-4.1-1.205-2.413,17.135s-16.651,11.583-28.959,1.447l-2.655-18.581Z" transform="translate(-426.966 -355.505)"/>
    <path id="Path_188" data-name="Path 188" class="cls-16" d="M536.044,494.1l2.594,15.866s-2.544,7.6,0,15.084-3.138,35.353-3.138,35.353,29.805,9.539,48.011-1.447c0,0-13.392-28.238-7.723-37.649s.1-13.09.1-13.09l.871-17.316-4.1-1.205-2.413,17.135s-16.651,11.583-28.959,1.447L538.625,489.7Z" transform="translate(-426.966 -356.023)"/>
    <path id="Path_189" data-name="Path 189" class="cls-13" d="M575.73,718.431l6.273-.849s7.24-9.29,12.429-2.172c0,0,2.172,4.585,4.827,5.428a35.643,35.643,0,0,0,5.551,1.208l-10.74,3.017s-4.706,2.776-9.653,2.051a18.719,18.719,0,0,0-8.686.725Z" transform="translate(-454.405 -508.137)"/>
    <path id="Path_190" data-name="Path 190" class="cls-14" d="M553.91,603.926s11.341,1.688,13.271-1.326" transform="translate(-439.523 -433.026)"/>
    <path id="Path_191" data-name="Path 191" class="cls-14" d="M621.46,600.7s2.172,2.172,10.858.6" transform="translate(-485.595 -431.73)"/>
    <path id="Path_192" data-name="Path 192" class="cls-14" d="M552,494.82s8.327,1.208,9.895.483" transform="translate(-438.22 -359.516)"/>
    <path id="Path_193" data-name="Path 193" class="cls-14" d="M609.69,494.82s8.327,1.208,9.895.483" transform="translate(-477.567 -359.516)"/>
    <path id="Path_194" data-name="Path 194" class="cls-14" d="M566.668,727.83s2.3,10.81,0,11.192-5.548-1.781-5.548-2.022,1.447-7.119,1.447-7.119Z" transform="translate(-444.44 -518.439)"/>
    <path id="Path_195" data-name="Path 195" class="cls-11" d="M565.911,727.83s2.293,10.81,0,11.192-5.551-1.781-5.551-2.022,1.447-7.119,1.447-7.119Z" transform="translate(-443.922 -518.439)"/>
    <path id="Path_196" data-name="Path 196" class="cls-14" d="M540.548,470.287a9.258,9.258,0,0,0-.3,7.443c.82,1.771,2.426,3.205,2.734,5.132.388,2.42-1.405,4.874-.734,7.23a6.634,6.634,0,0,0,1.453,2.378c1.838,2.172,4.28,4.276,7.116,4.108.451-4.381-3.339-8.633-2.1-12.858.445-1.513,1.488-2.773,2.118-4.216,1.046-2.394.9-5.129.518-7.714-.55-3.752-1.943-8.35-5.663-10.1-1.707-.808-4.133-.868-4.741,1.326-.334,1.17.445,2.27.55,3.415A7.569,7.569,0,0,1,540.548,470.287Z" transform="translate(-429.76 -336.566)"/>
    <path id="Path_197" data-name="Path 197" class="cls-10" d="M540.548,469.152a9.257,9.257,0,0,0-.3,7.443c.82,1.768,2.426,3.2,2.734,5.129.388,2.42-1.405,4.874-.734,7.23a6.646,6.646,0,0,0,1.453,2.381c1.838,2.168,4.28,4.273,7.116,4.1.451-4.381-3.339-8.632-2.1-12.858.445-1.513,1.488-2.773,2.118-4.216,1.046-2.394.9-5.129.518-7.714-.55-3.752-1.943-8.349-5.663-10.1-1.707-.808-4.133-.865-4.741,1.326-.334,1.17.445,2.27.55,3.415A7.589,7.589,0,0,1,540.548,469.152Z" transform="translate(-429.76 -335.79)"/>
    <path id="Path_198" data-name="Path 198" class="cls-14" d="M545.56,377.4s17.615-2.413,18.1,1.205,16.05,9.539,16.05,9.539l-3.863-9.539-7.119-11.825s-13.036-.954-13.634,0-7.485,4.1-7.485,4.1Z" transform="translate(-433.828 -271.898)"/>
    <path id="Path_199" data-name="Path 199" class="cls-10" d="M545.56,376.64s17.615-2.413,18.1,1.205,16.05,9.539,16.05,9.539l-3.863-9.539-7.119-11.825s-13.036-.954-13.634,0-7.485,4.1-7.485,4.1Z" transform="translate(-433.828 -271.379)"/>
    <path id="Path_200" data-name="Path 200" class="cls-14" d="M638.948,475.88a8.583,8.583,0,0,1,1.768,3.539c.293,1.246.318,2.544.582,3.79.591,2.655,2.35,4.887,4.181,6.9a7.529,7.529,0,0,0,2.14,1.8,2.8,2.8,0,0,0,2.684,0,4.807,4.807,0,0,1-1.4-2.448,12.551,12.551,0,0,1-.49-3.946c.08-2.226.731-4.575-.194-6.6a8.15,8.15,0,0,0-2.544-2.862,13.7,13.7,0,0,0-2.27-1.491,14.114,14.114,0,0,0-4.874-1.24C636.372,473.094,638.258,475.066,638.948,475.88Z" transform="translate(-496.552 -344.836)"/>
    <path id="Path_201" data-name="Path 201" class="cls-10" d="M638.948,474.737a8.533,8.533,0,0,1,1.768,3.536c.293,1.246.318,2.544.582,3.79.591,2.655,2.35,4.887,4.181,6.9a7.531,7.531,0,0,0,2.14,1.8,2.8,2.8,0,0,0,2.684,0,4.794,4.794,0,0,1-1.4-2.448,12.551,12.551,0,0,1-.49-3.946c.08-2.226.731-4.575-.194-6.6a8.206,8.206,0,0,0-2.544-2.862,13.52,13.52,0,0,0-2.27-1.494,14.113,14.113,0,0,0-4.874-1.24C636.372,471.948,638.258,473.92,638.948,474.737Z" transform="translate(-496.552 -344.052)"/>
  </g>
</svg>
