<svg xmlns="http://www.w3.org/2000/svg" viewBox="0 0 254.131 169.092">
  <defs>
    <style>
      .cls-1, .cls-8 {
        fill: #6c63ff;
      }

      .cls-1, .cls-4, .cls-6 {
        opacity: 0.1;
      }

      .cls-2 {
        fill: #0fbda3;
      }

      .cls-3 {
        fill: #3f3d56;
      }

      .cls-5 {
        fill: #fabdbd;
      }

      .cls-7 {
        fill: #f86d70;
      }
    </style>
  </defs>
  <g id="finish" transform="translate(0 0)">
    <path id="Path_49" data-name="Path 49" class="cls-1" d="M240.154,144.333c-14.951-.531-29.19-5.357-42.778-10.626s-27.065-11.132-41.657-13.93c-9.386-1.8-20.121-2.054-27.681,2.978-7.279,4.851-9.631,13.2-10.894,20.959-.952,5.835-1.511,11.975,1.095,17.439,1.811,3.793,5.022,6.981,7.244,10.615,7.732,12.641,2.266,28.229-6.11,40.572-3.927,5.791-8.489,11.319-11.523,17.478s-4.435,13.225-1.781,19.513c2.629,6.237,8.9,10.913,15.685,14.2,13.789,6.685,30.031,8.6,45.88,9.684,35.074,2.4,70.332,1.361,105.5.321,13.015-.386,26.085-.776,38.887-2.788,7.11-1.118,14.449-2.892,19.612-7.173,6.551-5.436,8.175-14.641,3.784-21.456-7.364-11.432-27.721-14.272-32.874-26.543-2.832-6.752.076-14.276,4.2-20.539,8.834-13.435,23.639-25.223,24.417-40.583.536-10.548-6.581-21.112-17.586-26.1-11.534-5.232-27.531-4.574-36.037,4.087C268.757,141.348,253.356,144.778,240.154,144.333Z" transform="translate(-92.027 -110.607)"/>
    <path id="Path_421" data-name="Path 421" class="cls-2" d="M16.912,0c9.34,0,16.912,1.456,16.912,3.253S26.252,6.505,16.912,6.505,0,5.049,0,3.253,7.572,0,16.912,0Z" transform="translate(22.647 162.587)"/>
    <ellipse id="Ellipse_12" data-name="Ellipse 12" class="cls-3" cx="1.968" cy="2.578" rx="1.968" ry="2.578" transform="translate(37.307 161.88)"/>
    <ellipse id="Ellipse_13" data-name="Ellipse 13" class="cls-3" cx="1.968" cy="2.578" rx="1.968" ry="2.578" transform="translate(37.307 158.729)"/>
    <ellipse id="Ellipse_14" data-name="Ellipse 14" class="cls-3" cx="1.968" cy="2.578" rx="1.968" ry="2.578" transform="translate(37.307 155.578)"/>
    <ellipse id="Ellipse_15" data-name="Ellipse 15" class="cls-3" cx="1.968" cy="2.578" rx="1.968" ry="2.578" transform="translate(37.307 152.43)"/>
    <ellipse id="Ellipse_16" data-name="Ellipse 16" class="cls-3" cx="1.968" cy="2.578" rx="1.968" ry="2.578" transform="translate(37.307 149.279)"/>
    <ellipse id="Ellipse_17" data-name="Ellipse 17" class="cls-3" cx="1.968" cy="2.578" rx="1.968" ry="2.578" transform="translate(37.307 146.128)"/>
    <ellipse id="Ellipse_18" data-name="Ellipse 18" class="cls-3" cx="1.968" cy="2.578" rx="1.968" ry="2.578" transform="translate(37.307 142.977)"/>
    <path id="Path_50" data-name="Path 50" class="cls-2" d="M195.827,570.009a9.336,9.336,0,0,0,.735-1.079l-5.175-.85,5.595.042a9.441,9.441,0,0,0,.18-7.473l-7.505,3.895,6.93-5.082a9.432,9.432,0,1,0-15.579,10.555,9.515,9.515,0,0,0-1.076,1.721l6.718,3.488-7.161-2.4a9.427,9.427,0,0,0,1.52,8.857,9.432,9.432,0,1,0,14.826,0,9.432,9.432,0,0,0,0-11.664Z" transform="translate(-149.181 -446.014)"/>
    <path id="Path_51" data-name="Path 51" class="cls-4" d="M179,645.54a9.393,9.393,0,0,0,2.019,5.831,9.432,9.432,0,1,0,14.826,0C197.1,649.769,179,644.484,179,645.54Z" transform="translate(-149.189 -515.716)"/>
    <path id="Path_52" data-name="Path 52" class="cls-3" d="M575.8,608.016a6.545,6.545,0,0,0,2.352,4.851c1.5,1.09,3.879,1.07,5.022-.395a5.618,5.618,0,0,0,.834-1.813c.963-3.045,1.647-6.376.591-9.39-2.382-.155-5.142-1.275-6.93.693A8.21,8.21,0,0,0,575.8,608.016Z" transform="translate(-454.305 -481.426)"/>
    <path id="Path_53" data-name="Path 53" class="cls-5" d="M583.042,522.717a58.946,58.946,0,0,0-.8,8.067c.021,1.044.132,2.079.134,3.128a15.417,15.417,0,0,1-2.079,7.755,2.6,2.6,0,0,1-.568.735,1.825,1.825,0,0,1-1.987.067,3.908,3.908,0,0,1-1.411-1.532c-1.721-2.948-1.769-6.531-2.451-9.873-.522-2.557-1.437-5.036-1.767-7.623-.215-1.666-.182-3.363-.524-5.008-.1-.5-.395-1.243-.587-1.975a2.97,2.97,0,0,1-.092-1.737c.367-.9,1.571-.552,2.354-.5a54.182,54.182,0,0,0,8.284-.021.712.712,0,0,1,.959.5,11.212,11.212,0,0,1,.5,1.848A20.533,20.533,0,0,1,583.042,522.717Z" transform="translate(-450.492 -414.753)"/>
    <g id="Group_2" data-name="Group 2" class="cls-6" transform="translate(120.326 99.357)">
      <path id="Path_54" data-name="Path 54" d="M604.524,514.473a2.034,2.034,0,0,0-.427,0q-1.982.159-3.966.166Q602.327,514.644,604.524,514.473Z" transform="translate(-593.362 -514.38)"/>
      <path id="Path_55" data-name="Path 55" d="M578.225,542.469a3.908,3.908,0,0,1-1.411-1.532c-1.721-2.948-1.77-6.531-2.451-9.873-.522-2.557-1.437-5.036-1.767-7.623-.215-1.666-.182-3.363-.524-5.008-.1-.5-.4-1.243-.587-1.975a2.97,2.97,0,0,1-.093-1.737.984.984,0,0,1,.924-.6c-.584-.039-1.155.03-1.386.6a2.969,2.969,0,0,0,.092,1.737c.192.732.483,1.478.587,1.975.342,1.645.31,3.343.524,5.008.33,2.59,1.245,5.068,1.767,7.623.681,3.343.73,6.93,2.451,9.873a3.909,3.909,0,0,0,1.411,1.532,2.052,2.052,0,0,0,1.21.245,2.129,2.129,0,0,1-.748-.245Z" transform="translate(-570.833 -514.111)"/>
    </g>
    <path id="Path_56" data-name="Path 56" class="cls-5" d="M631.969,521.742a15.576,15.576,0,0,0-1.155,6.7c.231,9.24-3.465,28.645-3.465,28.645h-3.234s-.462-21.484,0-23.332-.231-8.316-.924-17.325A46.247,46.247,0,0,1,624.83,501c.259-.924.439-1.43.439-1.43s5.313-7.854,8.316-4.158c.693.859,1.06,2.594,1.187,4.784C635.184,507.418,633.031,519.615,631.969,521.742Z" transform="translate(-490.684 -399.611)"/>
    <path id="Path_57" data-name="Path 57" class="cls-4" d="M646.677,500.2c-.127-2.19-.49-3.927-1.187-4.784a2.38,2.38,0,0,0-2.268-.963,2.463,2.463,0,0,1,1.575.963c.693.859,1.06,2.594,1.187,4.784.411,7.226-1.742,19.423-2.8,21.55a15.578,15.578,0,0,0-1.155,6.7c.231,9.24-3.465,28.645-3.465,28.645h.693s3.7-19.4,3.465-28.645a15.578,15.578,0,0,1,1.155-6.7C644.936,519.62,647.089,507.423,646.677,500.2Z" transform="translate(-502.588 -399.617)"/>
    <path id="Path_58" data-name="Path 58" class="cls-3" d="M617.62,753.527a3,3,0,0,0-.661.721c-.414.781.173,1.714.8,2.335s1.386,1.287,1.386,2.172a2.165,2.165,0,0,1-1.141,1.7c-.323.2-.73.462-.663.846a.794.794,0,0,0,.122.27A3.576,3.576,0,0,0,619.829,763a10.66,10.66,0,0,0,2.832.023.571.571,0,0,0,.388-.134.527.527,0,0,0,.1-.319,4.153,4.153,0,0,1,.231-1.448c.3-.6.991-.91,1.386-1.451a3.224,3.224,0,0,0,.268-2.666A11,11,0,0,0,622,751.464C620.217,749.907,618.815,752.4,617.62,753.527Z" transform="translate(-485.872 -596.895)"/>
    <path id="Path_59" data-name="Path 59" class="cls-3" d="M414.619,219.767a5.978,5.978,0,0,0-.363-6.537,11.17,11.17,0,0,0-5.616-3.9,15.807,15.807,0,0,0-9.212-.619c-2.407.626-4.569,1.936-6.838,2.948a29.4,29.4,0,0,1-12.77,2.541c-4.877-.136-10.22-1.386-14.311,1.28-7.489,4.872-4.158,18.132-11.243,23.563-1.91,1.465-4.315,2.1-6.44,3.234s-4.14,3.1-4.089,5.5a6.4,6.4,0,0,0,1.155,3.234,14.966,14.966,0,0,0,12.6,6.768,16.04,16.04,0,0,0,12.694-6.764,9.916,9.916,0,0,1,2.393-2.832c2.079-1.363,4.819-.409,7.3-.206a11.836,11.836,0,0,0,12.149-9.136c.462-2.322.381-5.1,2.25-6.554,1.509-1.176,3.631-.924,5.544-1.125a11.339,11.339,0,0,0,8.157-5.387c.871-1.305.973-2.864,2.16-3.892C411.415,220.754,413.394,221.588,414.619,219.767Z" transform="translate(-275.87 -179.574)"/>
    <g id="Group_3" data-name="Group 3" class="cls-6" transform="translate(80.569 28.701)">
      <path id="Path_60" data-name="Path 60" d="M456.224,232.922a29.286,29.286,0,0,0,6.045-.462c-.55.016-1.1.016-1.656,0-3.828-.106-7.942-.9-11.513.055C451.456,232.539,453.893,232.857,456.224,232.922Z" transform="translate(-437.464 -226.554)"/>
      <path id="Path_61" data-name="Path 61" d="M410.241,380.6a9.917,9.917,0,0,0-2.393,2.832,16.228,16.228,0,0,1-9.118,6.286c.27.012.541.018.813.016a16.033,16.033,0,0,0,12.694-6.764,9.917,9.917,0,0,1,2.393-2.832l.18-.111A6.477,6.477,0,0,0,410.241,380.6Z" transform="translate(-398.73 -340.232)"/>
      <path id="Path_62" data-name="Path 62" d="M590,213.2a11.217,11.217,0,0,0-5.616-3.9,15.807,15.807,0,0,0-9.213-.619c-.069.016-.136.037-.2.055A17.683,17.683,0,0,1,580,209.76a11.218,11.218,0,0,1,5.616,3.9,5.983,5.983,0,0,1,.363,6.537c-1.224,1.827-3.2.993-4.5,2.118-1.187,1.028-1.289,2.587-2.16,3.892a11.879,11.879,0,0,1-6.736,5.128c.972-.116,2-.1,2.968-.2a11.339,11.339,0,0,0,8.157-5.387c.871-1.305.973-2.864,2.16-3.892,1.3-1.125,3.276-.291,4.5-2.118A5.969,5.969,0,0,0,590,213.2Z" transform="translate(-532.42 -208.252)"/>
      <path id="Path_63" data-name="Path 63" d="M513.81,309.218c-1.9.2-4.024-.051-5.544,1.125-1.869,1.458-1.779,4.232-2.25,6.554A11.86,11.86,0,0,1,498,325.548l.275.025a11.836,11.836,0,0,0,12.149-9.136c.462-2.322.381-5.1,2.25-6.554a4.171,4.171,0,0,1,1.435-.693C514,309.192,513.909,309.208,513.81,309.218Z" transform="translate(-475.068 -285.873)"/>
    </g>
    <path id="Path_64" data-name="Path 64" class="cls-5" d="M526.566,165.244s-5.544,11.088-7.392,15.246-18.711,10.4-21.021,10.626a2.975,2.975,0,0,0-1.649.795,9.086,9.086,0,0,0-2.047,3.132s.924,6.237-.231,16.632c-.023.2-.044.4-.062.6-1.007,9.892,1.1,12.225,1.1,12.225s-22.408,8.547-21.715-2.541a50.248,50.248,0,0,0-.03-8.173,34.32,34.32,0,0,0-1.326-6.436c-.547-1.915-1.2-4.015-1.878-6.875a30.155,30.155,0,0,0-1.284-4.193c-.016-.042-.032-.083-.046-.122-1.155-2.867-2.31-3.793-2.971-4.093a9.984,9.984,0,0,1-1.774-1,93.307,93.307,0,0,1-10.795-9.074c-5.544-5.544-11.088-18.711-11.088-18.711s-1.617-7.623,2.079-13.86,2.079,12.243,2.079,12.243,6.7,9.009,8.316,13.167a6.948,6.948,0,0,0,3.234,3.8,38.343,38.343,0,0,1,5.114,3.2,29.861,29.861,0,0,0,3.44,2.245c2.583,1.386,5.676,2.95,8.254,3.361a7.783,7.783,0,0,0,1.217.1,1.261,1.261,0,0,0,1.016-.462c.693-.815.677-2.571.517-4.015a20.407,20.407,0,0,0-.379-2.225s7.508-4.736,7.277,1.04a6.455,6.455,0,0,0,.176,1.9,3.292,3.292,0,0,0,2.238,2.449,5.544,5.544,0,0,0,2.772.09,2.71,2.71,0,0,0,.818-.279,55.905,55.905,0,0,1,9.7-2.772c2.079-.231,12.474-5.313,12.474-5.313l11.319-15.708s-.231-9.24,4.389-12.936S526.566,165.244,526.566,165.244Z" transform="translate(-351.439 -133.32)"/>
    <g id="Group_4" data-name="Group 4" class="cls-6" transform="translate(90.563 16.513)">
      <path id="Path_65" data-name="Path 65" d="M666.892,386.736a46.049,46.049,0,0,0-.266,5.59c.023-1.22.1-2.613.266-4.2.018-.194.039-.4.062-.6a90.608,90.608,0,0,0,.578-10.716,92.805,92.805,0,0,1-.578,9.33C666.94,386.341,666.91,386.542,666.892,386.736Z" transform="translate(-614.731 -325.684)"/>
      <path id="Path_66" data-name="Path 66" d="M594.831,289.07c-.155.09-.231.146-.231.146a19.786,19.786,0,0,1,.444,3A14.168,14.168,0,0,0,594.831,289.07Z" transform="translate(-559.346 -258.212)"/>
      <path id="Path_67" data-name="Path 67" d="M461.677,177.654c.113-1.617.282-4.516.25-7.094-.039,3.447-.346,6.962-.346,6.962Z" transform="translate(-457.055 -167.079)"/>
      <path id="Path_68" data-name="Path 68" d="M578.524,466.53a1.511,1.511,0,0,1-.016.27c-.693,11.088,21.715,2.541,21.715,2.541a3.763,3.763,0,0,1-.584-1.174C596.263,469.369,579.3,474.955,578.524,466.53Z" transform="translate(-546.959 -394.678)"/>
      <path id="Path_69" data-name="Path 69" d="M701.17,169.514s-5.544,11.088-7.392,15.246-18.711,10.4-21.022,10.626a2.975,2.975,0,0,0-1.649.795,9.086,9.086,0,0,0-2.047,3.132s.055.377.122,1.093a8.587,8.587,0,0,1,1.924-2.839,2.976,2.976,0,0,1,1.649-.795c2.31-.231,19.173-6.468,21.022-10.626S701.17,170.9,701.17,170.9s3.906-11.862,3.477-15.41C704.291,160.036,701.17,169.514,701.17,169.514Z" transform="translate(-616.605 -155.49)"/>
      <path id="Path_70" data-name="Path 70" d="M473.508,246.99a34.323,34.323,0,0,0-1.326-6.436c-.548-1.915-1.2-4.015-1.878-6.875a30.152,30.152,0,0,0-1.284-4.193c-.016-.042-.032-.083-.046-.122-1.155-2.867-2.31-3.793-2.971-4.093a9.99,9.99,0,0,1-1.774-1,93.32,93.32,0,0,1-10.795-9.074c-5.544-5.544-11.088-18.711-11.088-18.711A20.888,20.888,0,0,1,442,193.12a22.266,22.266,0,0,0,.342,4.754s5.544,13.167,11.088,18.711a93.315,93.315,0,0,0,10.795,9.074,9.987,9.987,0,0,0,1.788,1c.658.3,1.811,1.227,2.971,4.093.014.039.03.081.046.122a30.151,30.151,0,0,1,1.277,4.193c.677,2.86,1.331,4.96,1.878,6.875a34.321,34.321,0,0,1,1.326,6.436c.1.966.155,2.017.171,3.2A40.242,40.242,0,0,0,473.508,246.99Z" transform="translate(-441.989 -184.427)"/>
    </g>
    <path id="Path_71" data-name="Path 71" class="cls-2" d="M586.059,329.227a13.752,13.752,0,0,0-.924,1.82,11,11,0,0,0-.416,3.054,24.523,24.523,0,0,1-.656,4.278,4.744,4.744,0,0,1-.231.758,2,2,0,0,1-.27.462,1.97,1.97,0,0,1-.43.39,5.044,5.044,0,0,1-.783.427c-3.216,1.5-6.722,2.827-10.231,2.31a14.887,14.887,0,0,1-4.257-1.432c-1.271-.617-2.707-1.349-4.024-.836h0a2.027,2.027,0,0,1-.645.2.614.614,0,0,1-.129-.012c-.434-.083-.434-1.548-.534-1.98-.379-1.659-.437-3-.663-4.445a14.594,14.594,0,0,0-.557-2.349,27.744,27.744,0,0,1-1.2-8.7c0-.146-1.04,0-1.386-.014-.088,0-.136-.014-.116-.044a.468.468,0,0,1,.069-.079,1.056,1.056,0,0,1,.414-.206l.273-.081c1.428-.4,3-.573,4.07-1.578a5.443,5.443,0,0,0,1.337-4.209,25.03,25.03,0,0,1-.213-2.652,7.779,7.779,0,0,0,1.217.1,1.261,1.261,0,0,0,1.016-.462,18.259,18.259,0,0,1,1,2.31,15.96,15.96,0,0,0,1.268,2.855,4.835,4.835,0,0,0,4.324,2.215,4.016,4.016,0,0,0,3.576-3.119c.266-1.467-.351-3.578-.337-5.1a5.545,5.545,0,0,0,2.772.09,2.512,2.512,0,0,1,.1.289c.52,1.783,1.213,3.83,2.957,4.463,1.127.407,2.46.1,3.5.693a2.246,2.246,0,0,1,.231.152,2.556,2.556,0,0,1,.612.649,5.219,5.219,0,0,1,.742,2.328A12.918,12.918,0,0,1,586.059,329.227Z" transform="translate(-441.099 -260.186)"/>
    <path id="Path_72" data-name="Path 72" class="cls-4" d="M602.012,286.555a7.873,7.873,0,0,1-7.073-.714,20.4,20.4,0,0,0-.379-2.225s7.508-4.736,7.277,1.039A6.456,6.456,0,0,0,602.012,286.555Z" transform="translate(-468.753 -236.1)"/>
    <circle id="Ellipse_19" data-name="Ellipse 19" class="cls-5" cx="7.854" cy="7.854" r="7.854" transform="translate(122.571 34.811)"/>
    <path id="Path_73" data-name="Path 73" class="cls-7" d="M555.06,339.505s15.246-9.7,62.6.693,74.846,2.079,74.846,2.079v10.857s-53.131,5.775-73.46,0-49.267-9.106-59.4-.164Z" transform="translate(-438.378 -277.32)"/>
    <path id="Path_74" data-name="Path 74" class="cls-4" d="M555.06,339.505s15.246-9.7,62.6.693,74.846,2.079,74.846,2.079v10.857s-53.131,5.775-73.46,0-49.267-9.106-59.4-.164Z" transform="translate(-438.378 -277.32)"/>
    <path id="Path_75" data-name="Path 75" class="cls-7" d="M557.06,341.505s14.784-9.7,62.14.693,74.384,2.079,74.384,2.079l.231,9.933s-52.669,5.775-73,0-49.036-9.8-59.17-.857Z" transform="translate(-439.915 -278.858)"/>
    <path id="Path_76" data-name="Path 76" class="cls-7" d="M174.588,365.885s-15.246,9.7-62.6-.693-45.046-2.079-45.046-2.079V352.256s23.332-5.775,43.66,0,49.267,9.106,59.4.164Z" transform="translate(-63.001 -288.315)"/>
    <path id="Path_77" data-name="Path 77" class="cls-4" d="M174.588,365.885s-15.246,9.7-62.6-.693-45.046-2.079-45.046-2.079V352.256s23.332-5.775,43.66,0,49.267,9.106,59.4.164Z" transform="translate(-63.001 -288.315)"/>
    <path id="Path_78" data-name="Path 78" class="cls-7" d="M174.956,366.961s-14.784,9.7-62.14-.693-44.584-2.079-44.584-2.079L68,354.256s22.87-5.775,43.2,0,49.036,9.8,59.17.857Z" transform="translate(-63.831 -289.853)"/>
    <path id="Path_79" data-name="Path 79" class="cls-3" d="M560.76,232.154c-.231-1.441-.587-3.257.619-4.082a2.564,2.564,0,0,1,1.43-.37c2.5-.025,4.883,1.714,7.332,1.206a4.133,4.133,0,0,0,1.617-7.362,8.3,8.3,0,0,0-3.359-1.217c-3.1-.638-6.332-1.273-9.39-.462s-5.854,3.553-5.609,6.7a9.463,9.463,0,0,0,1.684,4.158c.61.975,2.985,5.544,4.137,5.613C560.848,236.433,560.919,233.1,560.76,232.154Z" transform="translate(-437.09 -188.189)"/>
    <path id="Path_80" data-name="Path 80" class="cls-2" d="M593,461.7s-15.939,3.927-21.253,0c0,0-2.31,9.009-1.617,13.629,0,0,11.319.693,12.474,1.386,0,0,.231-1.848,1.386-.924,0,0,3.927-4.62,11.088-.462C595.077,475.329,596.463,464.472,593,461.7Z" transform="translate(-449.865 -374.451)"/>
    <path id="Path_81" data-name="Path 81" class="cls-4" d="M587.269,227.333a4.59,4.59,0,0,0-.515-.323,4.124,4.124,0,0,1-2.262,6.762c-2.449.508-4.835-1.231-7.332-1.206a2.564,2.564,0,0,0-1.43.37c-1.206.825-.852,2.64-.621,4.082.152.943.09,4.278-1.532,4.188h-.028c.446.543.862.91,1.183.924,1.617.09,1.684-3.234,1.532-4.188-.231-1.441-.584-3.257.621-4.082a2.564,2.564,0,0,1,1.43-.37c2.5-.025,4.883,1.714,7.332,1.206a4.133,4.133,0,0,0,1.617-7.362Z" transform="translate(-452.596 -193.975)"/>
    <g id="Group_5" data-name="Group 5" class="cls-6" transform="translate(0 20.377)">
      <path id="Path_82" data-name="Path 82" class="cls-8" d="M69.9,174.225s-17.272-7.263-19.536,5.835a3.185,3.185,0,0,0,.462,3.726s.353-.9,2.024.032a8.685,8.685,0,0,0,1.885.765,4.241,4.241,0,0,0,2.684-.143h0s5.68-.307,10.458-7.739c0,0,2.047-1.266,2.151-1.739l-3.423.231a5.7,5.7,0,0,1-1.155,4.01s1.259-3.888.654-4c-.122-.023-1.809.2-1.809.2s.437,4.357-1.848,6.611c0,0,2.121-4.433,1.2-6.533l-2.525.487s.693,4.583-1.806,7.251c0,0,2.054-4.713,1.261-7.108l-2.421.813s.584,4.486-1.506,6.7c0,0,1.825-5.685.966-6.468a12.651,12.651,0,0,0-2.643,1.386s.347,3.234-.984,4.389c0,0,.818-3.927.413-4.089a13.188,13.188,0,0,0-3.3,3.546,9.589,9.589,0,0,1,2.98-3.927,5.318,5.318,0,0,0-3,.423s.876-1.666,3.615-.876a12.011,12.011,0,0,1,2.437-1.386,11.683,11.683,0,0,0-4.465-1.014s2.007-1.155,5.1.776l2.412-.873s-3.347-1.716-5.027-1.709c0,0,2.232-.862,5.655,1.541l2.469-.506a19.654,19.654,0,0,0-4.641-2.093s2.243-.353,5.355,1.977l1.691-.143s-2.047-1.2-2.666-1.5-.591-.485-.591-.485a8.062,8.062,0,0,1,3.966,1.908S69.883,174.44,69.9,174.225Z" transform="translate(-49.953 -172.217)"/>
    </g>
    <g id="Group_6" data-name="Group 6" class="cls-6" transform="translate(2.531 0)">
      <path id="Path_83" data-name="Path 83" class="cls-8" d="M77.688,93.372s-6.131-14.154-14.93-7.662a2.62,2.62,0,0,0-1.848,2.472s.725-.335,1.183,1.171a7.251,7.251,0,0,0,.693,1.529,3.465,3.465,0,0,0,1.661,1.439h0s3.548,3.054,10.626,1.361c0,0,1.938.416,2.271.192l-2.165-1.816A4.659,4.659,0,0,1,72.2,93.776s2.964-1.594,2.666-2.005c-.06-.083-1.187-.91-1.187-.91s-2.225,2.837-4.851,2.881c0,0,3.786-1.428,4.433-3.2l-1.776-1.155s-2.2,3.116-5.2,3.278c0,0,3.9-1.617,4.8-3.5l-1.9-.9s-2.208,3-4.706,3.116c0,0,4.322-2.338,4.255-3.292a10.038,10.038,0,0,0-2.363-.675s-1.633,2.114-3.091,2.054c0,0,2.724-1.869,2.573-2.195a10.819,10.819,0,0,0-3.98.231,7.883,7.883,0,0,1,4.008-.633,4.33,4.33,0,0,0-2.019-1.455s1.469-.492,2.647,1.538a10.018,10.018,0,0,1,2.238.561,9.448,9.448,0,0,0-2.079-3.146s1.848.462,2.587,3.366l1.929.857s-1.009-2.927-2.024-3.876c0,0,1.818.758,2.483,4.135l1.753,1.107a16.1,16.1,0,0,0-1.564-3.876s1.534,1.065,2.056,4.223l1.086.878s-.531-1.88-.732-2.407-.074-.624-.074-.624a6.655,6.655,0,0,1,1.268,3.393A16.351,16.351,0,0,0,77.688,93.372Z" transform="translate(-60.91 -84.006)"/>
    </g>
  </g>
</svg>
