<svg xmlns="http://www.w3.org/2000/svg" viewBox="0 0 116 116">
  <defs>
    <style>
      .cls-1, .cls-2 {
        fill: #fff;
      }

      .cls-1 {
        opacity: 0.2;
      }
    </style>
  </defs>
  <g id="address" transform="translate(-126 -6936)">
    <circle id="Ellipse_42" data-name="Ellipse 42" class="cls-1" cx="58" cy="58" r="58" transform="translate(126 6936)"/>
    <g id="map" transform="translate(154.357 6964.602)">
      <path id="Path_467" data-name="Path 467" class="cls-2" d="M29.836,25.672A6.836,6.836,0,1,0,23,18.836,6.844,6.844,0,0,0,29.836,25.672Zm0-11.719a4.883,4.883,0,1,1-4.883,4.883A4.888,4.888,0,0,1,29.836,13.953Z" transform="translate(-0.539 -0.281)"/>
      <path id="Path_468" data-name="Path 468" class="cls-2" d="M29.374,53.474,44.355,31.836c5.619-7.491,4.807-19.8-1.739-26.35a18.726,18.726,0,0,0-26.484,0C9.585,12.03,8.773,24.344,14.37,31.806ZM17.512,6.866a16.775,16.775,0,0,1,23.723,0c5.908,5.907,6.636,17.028,1.536,23.827l-13.4,19.349L15.955,30.664C10.876,23.895,11.6,12.773,17.512,6.866Z" transform="translate(-0.249 0)"/>
      <path id="Path_469" data-name="Path 469" class="cls-2" d="M41.13,43.007a.976.976,0,1,0-.229,1.939c10.27,1.209,15.739,4.467,15.739,6.355,0,2.65-10.4,6.348-27.344,6.348S1.953,53.951,1.953,51.3c0-1.888,5.47-5.146,15.739-6.355a.976.976,0,1,0-.229-1.939C7.182,44.218,0,47.628,0,51.3c0,4.125,10.063,8.3,29.3,8.3s29.3-4.176,29.3-8.3C58.594,47.628,51.412,44.218,41.13,43.007Z" transform="translate(0 -1.008)"/>
    </g>
  </g>
</svg>
