<svg xmlns="http://www.w3.org/2000/svg" viewBox="0 0 116 116">
  <defs>
    <style>
      .cls-1, .cls-2 {
        fill: #fff;
      }

      .cls-1 {
        opacity: 0.2;
      }
    </style>
  </defs>
  <g id="mail" transform="translate(-126 -7139)">
    <circle id="Ellipse_41" data-name="Ellipse 41" class="cls-1" cx="58" cy="58" r="58" transform="translate(126 7139)"/>
    <g id="new-email-outline" transform="translate(157.154 7178.771)">
      <g id="Shape_17" transform="translate(0 0)">
        <g id="Group_89" data-name="Group 89">
          <path id="Path_474" data-name="Path 474" class="cls-2" d="M55.889,110.049a4.577,4.577,0,0,0-1.223-3.1c-.013-.016-.015-.036-.029-.052s-.03-.02-.043-.034a4.693,4.693,0,0,0-3.4-1.46H4.7a4.7,4.7,0,0,0-3.4,1.46c-.013.013-.031.019-.043.035s-.016.036-.029.052A4.579,4.579,0,0,0,0,110.049V137.4a4.584,4.584,0,0,0,1.275,3.157c.015.017.02.039.038.055s.013.007.018.013A4.7,4.7,0,0,0,4.7,142.046h46.5a4.7,4.7,0,0,0,3.366-1.418c.006,0,.013-.007.018-.012s.021-.037.037-.053A4.583,4.583,0,0,0,55.89,137.4V110.049ZM37.6,122.281,53.7,108.927a2.676,2.676,0,0,1,.252,1.123V137.4a2.686,2.686,0,0,1-.205,1.024Zm13.6-14.96a2.765,2.765,0,0,1,1.136.249L27.945,127.786,3.561,107.57a2.767,2.767,0,0,1,1.136-.249ZM2.142,138.427a2.682,2.682,0,0,1-.205-1.024V110.049a2.676,2.676,0,0,1,.252-1.123l16.106,13.355Zm2.556,1.7a2.756,2.756,0,0,1-1.237-.3l16.322-16.315,7.541,6.253a.973.973,0,0,0,1.243,0l7.541-6.253L52.43,139.829a2.755,2.755,0,0,1-1.238.3Z" transform="translate(0 -105.408)"/>
        </g>
      </g>
    </g>
  </g>
</svg>
