<svg xmlns="http://www.w3.org/2000/svg" viewBox="0 0 117 117">
  <defs>
    <style>
      .cls-1 {
        fill: #e2e2ee;
        opacity: 0.2;
      }

      .cls-2 {
        fill: #fff;
      }
    </style>
  </defs>
  <g id="phone" transform="translate(-125 -7358)">
    <circle id="Ellipse_42" data-name="Ellipse 42" class="cls-1" cx="58.5" cy="58.5" r="58.5" transform="translate(125 7358)"/>
    <g id="phone-call" transform="translate(156.423 7388.086)">
      <path id="Path_475" data-name="Path 475" class="cls-2" d="M57.054,46.99a4.38,4.38,0,0,0-2.173-3.245L40.8,35.635a4.42,4.42,0,0,0-5.322.7L32.7,39.113a2.033,2.033,0,0,1-2.716.152,80.185,80.185,0,0,1-6.4-5.757,80.211,80.211,0,0,1-5.757-6.4,2.033,2.033,0,0,1,.152-2.716l2.774-2.774a4.419,4.419,0,0,0,.7-5.321L13.348,2.211A4.412,4.412,0,0,0,6.4,1.293l-4.18,4.18C-.694,8.391-.741,13.728,2.092,20.5,4.815,27.014,9.9,34.184,16.4,40.689S30.078,52.277,36.591,55a23.542,23.542,0,0,0,8.841,2.091,8.432,8.432,0,0,0,6.187-2.223l4.18-4.18a4.381,4.381,0,0,0,1.254-3.7Zm-17.18-9.752,14.085,8.11a2.562,2.562,0,0,1,.783,3.743L36.022,38.407l.76-.76a2.567,2.567,0,0,1,3.091-.409ZM9.86,1.872a2.544,2.544,0,0,1,1.885,1.262l8.11,14.085a2.567,2.567,0,0,1-.409,3.091l-.7.7L8.005,2.351a2.532,2.532,0,0,1,1.512-.5,2.612,2.612,0,0,1,.343.023ZM50.311,53.561c-2.318,2.318-7.059,2.221-13.006-.267-6.3-2.633-13.254-7.574-19.594-13.913S6.431,26.084,3.8,19.788C1.311,13.84,1.214,9.1,3.531,6.781l3.1-3.1L17.393,22.363l-.721.721a3.88,3.88,0,0,0-.285,5.184,82.059,82.059,0,0,0,5.89,6.549,82.1,82.1,0,0,0,6.549,5.89,3.88,3.88,0,0,0,5.184-.285l.658-.658,18.745,10.7-3.1,3.1Z" transform="translate(-0.001 0)"/>
    </g>
  </g>
</svg>
