<svg id="github-sign" xmlns="http://www.w3.org/2000/svg" viewBox="0 0 60 60">
  <defs>
    <style>
      .cls-1 {
        fill: #fff;
      }
    </style>
  </defs>
  <g id="Group_93" data-name="Group 93">
    <path id="Path_487" data-name="Path 487" class="cls-1" d="M154.74,352.524q-.709.132-.62.664t.8.354q.709-.177.62-.62Q155.449,352.436,154.74,352.524Z" transform="translate(-133.086 -308.356)"/>
    <path id="Path_488" data-name="Path 488" class="cls-1" d="M138.038,354.82c-.472,0-.708.161-.708.487q0,.575.753.487.708,0,.709-.487Q138.791,354.732,138.038,354.82Z" transform="translate(-118.596 -310.237)"/>
    <path id="Path_489" data-name="Path 489" class="cls-1" d="M119.446,352.076q-.177.487.575.664.664.264.841-.266.133-.486-.575-.708C119.844,351.649,119.564,351.751,119.446,352.076Z" transform="translate(-103.122 -307.708)"/>
    <path id="Path_490" data-name="Path 490" class="cls-1" d="M56.7,3.3A10.836,10.836,0,0,0,48.75,0H11.25A10.838,10.838,0,0,0,3.3,3.3,10.838,10.838,0,0,0,0,11.25v37.5A10.835,10.835,0,0,0,3.3,56.7,10.837,10.837,0,0,0,11.25,60H20a10.565,10.565,0,0,0,1.289-.058,1.512,1.512,0,0,0,.859-.509,1.82,1.82,0,0,0,.43-1.308q0-.117-.02-2.657t-.02-4.024l-.9.156a11.5,11.5,0,0,1-2.168.137,16.683,16.683,0,0,1-2.715-.273,6.086,6.086,0,0,1-2.617-1.171,4.958,4.958,0,0,1-1.718-2.4l-.391-.9A9.758,9.758,0,0,0,10.8,45a4.715,4.715,0,0,0-1.7-1.485l-.274-.2a2.872,2.872,0,0,1-.508-.469,2.17,2.17,0,0,1-.351-.547q-.117-.274.2-.45A2.54,2.54,0,0,1,9.3,41.679l.781.117a5.7,5.7,0,0,1,1.934.937,6.3,6.3,0,0,1,1.894,2.031,6.884,6.884,0,0,0,2.168,2.441,4.6,4.6,0,0,0,2.558.84,11.1,11.1,0,0,0,2.227-.195,7.777,7.777,0,0,0,1.758-.587,6.332,6.332,0,0,1,1.914-4.024,26.749,26.749,0,0,1-4-.7,15.958,15.958,0,0,1-3.672-1.524A10.513,10.513,0,0,1,13.71,38.4a12.583,12.583,0,0,1-2.051-4.1,19.509,19.509,0,0,1-.8-5.86,11.394,11.394,0,0,1,3.086-8.047,10.5,10.5,0,0,1,.273-7.969,5.473,5.473,0,0,1,3.359.527,23.558,23.558,0,0,1,3.262,1.5q1.036.624,1.66,1.055a28.2,28.2,0,0,1,15,0l1.484-.937a21.014,21.014,0,0,1,3.594-1.719,5.117,5.117,0,0,1,3.164-.43,10.4,10.4,0,0,1,.312,7.968,11.4,11.4,0,0,1,3.087,8.047,19.7,19.7,0,0,1-.8,5.879,12.068,12.068,0,0,1-2.07,4.1,10.924,10.924,0,0,1-3.164,2.6,15.936,15.936,0,0,1-3.672,1.523,26.73,26.73,0,0,1-4,.7q2.03,1.757,2.03,5.546v9.336a2.514,2.514,0,0,0,.195,1.074,1.079,1.079,0,0,0,.625.567,3.461,3.461,0,0,0,.762.195A8.77,8.77,0,0,0,40,60h8.75A11.27,11.27,0,0,0,60,48.749V11.25A10.838,10.838,0,0,0,56.7,3.3Z"/>
    <path id="Path_491" data-name="Path 491" class="cls-1" d="M86.055,318.614q-.31.221.089.708.443.442.709.133.31-.22-.089-.708Q86.321,318.348,86.055,318.614Z" transform="translate(-74.189 -275.022)"/>
    <path id="Path_492" data-name="Path 492" class="cls-1" d="M77.207,311.3q-.133.311.31.531a.378.378,0,0,0,.575-.088q.133-.311-.31-.532Q77.34,311.078,77.207,311.3Z" transform="translate(-62.77 -268.652)"/>
    <path id="Path_493" data-name="Path 493" class="cls-1" d="M94.559,329.738c-.266.147-.266.413,0,.8s.516.487.753.31q.4-.31,0-.842C95.076,329.62,94.825,329.53,94.559,329.738Z" transform="translate(-81.479 -284.647)"/>
    <path id="Path_494" data-name="Path 494" class="cls-1" d="M104.752,342.246c-.266.237-.207.516.177.842q.531.53.885.132.354-.353-.177-.84Q105.106,341.848,104.752,342.246Z" transform="translate(-90.318 -295.396)"/>
  </g>
</svg>
