<svg id="twitter-logo" xmlns="http://www.w3.org/2000/svg" viewBox="0 0 60 60">
  <defs>
    <style>
      .cls-1 {
        fill: #fff;
      }
    </style>
  </defs>
  <g id="Group_95" data-name="Group 95">
    <g id="Group_94" data-name="Group 94">
      <path id="Path_495" data-name="Path 495" class="cls-1" d="M48.75,0H11.25A11.249,11.249,0,0,0,0,11.25v37.5A11.249,11.249,0,0,0,11.25,60h37.5A11.249,11.249,0,0,0,60,48.75V11.25A11.249,11.249,0,0,0,48.75,0ZM44.925,23.265l.022.956c0,9.765-7.429,21.015-21.015,21.015a20.9,20.9,0,0,1-11.321-3.319,15.189,15.189,0,0,0,1.763.1,14.821,14.821,0,0,0,9.172-3.161,7.4,7.4,0,0,1-6.9-5.13,7.707,7.707,0,0,0,1.391.128,7.386,7.386,0,0,0,1.946-.255,7.394,7.394,0,0,1-5.925-7.241v-.094A7.376,7.376,0,0,0,17.4,27.2a7.4,7.4,0,0,1-2.288-9.859,20.962,20.962,0,0,0,15.225,7.717A7.392,7.392,0,0,1,42.93,18.319a14.957,14.957,0,0,0,4.691-1.793,7.406,7.406,0,0,1-3.248,4.087,14.807,14.807,0,0,0,4.241-1.163A14.93,14.93,0,0,1,44.925,23.265Z"/>
    </g>
  </g>
</svg>
